<?xml version="1.0" encoding="UTF-8"?>
<svg id="Camada_2" data-name="Camada 2" xmlns="http://www.w3.org/2000/svg" viewBox="0 0 60.6 57.91">
  <defs>
    <style>
      .cls-1 {
        fill: #fff;
        stroke-width: 0px;
      }
    </style>
  </defs>
  <g id="Camada_1-2" data-name="Camada 1">
    <g>
      <path class="cls-1" d="m47.3,4.36c-3.15,0-5.71,2.56-5.71,5.71s2.56,5.71,5.71,5.71,5.71-2.56,5.71-5.71-2.56-5.71-5.71-5.71Z"/>
      <path class="cls-1" d="m47.41,0c-7.27,0-13.19,5.92-13.19,13.19,0,1.35.21,2.66.58,3.89l-3.94,1.89c-3-4.59-8.18-7.63-14.07-7.63C7.54,11.34,0,18.87,0,28.14s7.54,16.8,16.8,16.8c4.31,0,8.25-1.63,11.22-4.31l2.42,2.01c-1.65,2.76-1.96,6.27-.52,9.4,2.32,5.06,8.33,7.28,13.38,4.95,5.06-2.32,7.28-8.33,4.96-13.38-2.32-5.06-8.33-7.28-13.38-4.96-.78.36-1.5.81-2.14,1.33l-2.37-1.97c2.03-2.77,3.23-6.19,3.23-9.88,0-1.99-.35-3.89-.98-5.66l3.89-1.87c2.38,3.48,6.38,5.78,10.9,5.78,7.27,0,13.19-5.92,13.19-13.19S54.68,0,47.41,0Zm-11.55,40.79c3.88-1.78,8.48-.08,10.26,3.8,1.4,3.06.64,6.56-1.64,8.78-.6-2.89-1.92-3.94-2.29-4.19-.04.04-.08.07-.11.1-.04.04-.08.07-.12.1-.08.07-.16.13-.25.19l-1.76,3.71-.38-2.12.52-.86c-.06.02-.13.03-.19.04-.17.03-.34.05-.51.07-.09,0-.19.01-.29.01-.37,0-.73-.04-1.07-.12l.55.87-.31,2.17-2.03-3.89c-.09-.07-.18-.15-.27-.23l-.04.03c-1.32,1.17-1.96,2.76-2.27,4.08-.65-.64-1.2-1.4-1.6-2.28-1.78-3.88-.08-8.48,3.8-10.26Zm-14.24-7.7c-.11.14-2.28,1.55-2.28,1.55l1.07,1.45-3.38,2.65h0s-.01,0-.01,0h-.01s0,0,0,0l-3.38-2.65,1.07-1.45s-2.17-1.42-2.28-1.55c-.19-.24.97-1.36.97-1.36l3.63,7.01,3.62-7.01s1.16,1.11.97,1.36Zm4.02,4.4c-.44-2.14-1.12-3.66-1.78-4.71.51-2.36.93-5.36.63-7.46-.05-.32-.09-.63-.15-.93-.01-.24-.04-.48-.08-.74-.16-.91-.43-1.78-.8-2.59-.58-1.43-1.35-2.41-2.38-3.07-1.09-.84-2.42-1.34-3.94-1.34-.76,0-1.49.12-2.17.35-2.12.44-3.06,1.75-3.4,2.24-.32.45-.58.98-.8,1.56-.21.47-.37.96-.47,1.48-.31,1.19-.54,2.52-.78,3.88-.38,2.23-.78,4.54-1.58,6.49-.03.06-.01.13.03.18.04.05.11.08.17.07.84-.16,1.48-.38,2.02-.91-.41,1.08-1.94,1.87-1.96,1.88-.06.03-.09.09-.1.15,0,.07.03.13.08.16.03.02.32.21.78.44-.45.98-.76,1.97-.97,2.87-2.5-2.35-4.06-5.68-4.06-9.37,0-7.1,5.78-12.88,12.88-12.88s12.88,5.78,12.88,12.88c0,3.68-1.56,7.01-4.04,9.36Zm28.84-17.08c-.74-4.02-2.53-5.49-3.04-5.83-.05.04-.1.09-.15.13-.05.04-.1.09-.16.13-.11.09-.22.17-.34.25l-2.4,4.92-.48-2.84.71-1.14c-.09.02-.17.04-.26.05-.22.04-.45.07-.68.08-.13,0-.25.01-.38.01-.49,0-.97-.06-1.43-.17l.72,1.16-.45,2.89-2.65-5.22c-.12-.1-.24-.2-.36-.31l-.05.04c-1.8,1.55-2.67,3.69-3.1,5.46-1.67-1.81-2.7-4.22-2.7-6.87,0-5.58,4.54-10.12,10.12-10.12s10.12,4.54,10.12,10.12c0,2.83-1.17,5.39-3.05,7.23Z"/>
      <path class="cls-1" d="m39.01,41.55c-2.36.03-4.26,1.97-4.23,4.32.02,2.36,1.96,4.26,4.32,4.23,2.36-.03,4.26-1.96,4.23-4.32-.03-2.36-1.96-4.26-4.32-4.23Z"/>
      <rect class="cls-1" x="17.02" y="38.74" width="0" height="0" transform="translate(-22.75 24.28) rotate(-46.29)"/>
    </g>
  </g>
</svg>