<svg width="92" height="73" viewBox="0 0 92 73" fill="none" xmlns="http://www.w3.org/2000/svg">
<path d="M10.6695 65.4903C11.6695 69.4903 15.3695 72.2903 19.4695 72.2903H22.8695H76.4695H78.6695C83.6695 72.2903 87.9695 68.4903 88.5695 63.5903L91.6695 37.5903C91.9695 34.7903 91.1695 31.9903 89.2695 29.8903C87.7695 28.1903 85.6695 26.9903 83.3695 26.6903V5.89028C83.3695 2.79028 80.8695 0.290283 77.7695 0.290283H58.3695C58.1695 0.290283 58.0695 0.290284 57.8695 0.390284C57.8695 0.390284 57.8695 0.390284 57.7695 0.390284C57.5695 0.490284 57.4695 0.590283 57.2695 0.690283L47.7695 9.89028C47.4695 10.1903 47.2695 10.4903 47.2695 10.8903V19.0903H39.6695L39.2695 16.9903C38.8695 14.5903 37.2695 12.9903 35.3695 12.9903H13.8695C12.8695 12.9903 11.8695 13.4903 11.1695 14.2903C10.1695 15.4903 9.66949 17.3903 9.96949 19.1903H8.26949C5.96949 19.1903 3.76949 20.2903 2.36949 22.0903C0.969494 23.9903 0.469495 26.2903 1.06949 28.5903L10.6695 65.4903ZM86.2695 32.3903C87.3695 33.6903 87.8695 35.2903 87.6695 36.9903L84.9695 59.5903L81.2695 45.1903C82.5695 44.1903 83.3695 42.5903 83.3695 40.7903V34.6903V30.4903C84.4695 30.8903 85.4695 31.4903 86.2695 32.3903ZM56.8695 5.39028V7.69028C56.8695 8.69028 56.0695 9.49028 55.0695 9.49028H52.5695L56.8695 5.39028ZM50.2695 12.4903H54.9695C57.6695 12.4903 59.7695 10.2903 59.7695 7.69028V3.39028H77.7695C79.1695 3.39028 80.3695 4.49028 80.3695 5.99028V34.7903V40.8903C80.3695 41.0903 80.3695 41.3903 80.2695 41.5903L75.8695 24.9903C74.9695 21.6903 72.0695 19.3903 68.5695 19.3903H50.2695V12.4903ZM5.56949 24.5903C6.26949 23.6903 7.26949 23.1903 8.36949 23.1903H12.3695C12.4695 23.1903 12.5695 23.1903 12.6695 23.1903C12.7695 23.1903 12.7695 23.1903 12.8695 23.0903C12.9695 23.0903 12.9695 23.0903 13.0695 22.9903C13.1695 22.9903 13.1695 22.8903 13.2695 22.8903C13.3695 22.8903 13.3695 22.7903 13.4695 22.7903C13.5695 22.7903 13.5695 22.6903 13.5695 22.6903C13.6695 22.6903 13.6695 22.5903 13.7695 22.5903L13.8695 22.4903C13.8695 22.3903 13.9695 22.3903 13.9695 22.2903C13.9695 22.2903 14.0695 22.1903 14.0695 22.0903C14.0695 21.9903 14.1695 21.9903 14.1695 21.8903C14.1695 21.7903 14.1695 21.7903 14.2695 21.6903C14.2695 21.5903 14.2695 21.5903 14.3695 21.4903C14.3695 21.3903 14.3695 21.3903 14.3695 21.2903C14.3695 21.1903 14.3695 21.0903 14.3695 21.0903C14.3695 20.9903 14.3695 20.9903 14.3695 20.8903C14.3695 20.7903 14.3695 20.7903 14.3695 20.6903L13.9695 18.2903C13.8695 17.5903 14.0695 16.9903 14.1695 16.7903H35.1695C35.2695 16.8903 35.3695 17.0903 35.3695 17.3903L36.0695 21.2903C36.0695 21.3903 36.0695 21.3903 36.1695 21.4903C36.1695 21.5903 36.1695 21.5903 36.2695 21.6903C36.2695 21.7903 36.3695 21.7903 36.3695 21.8903C36.3695 21.8903 36.3695 21.9903 36.4695 21.9903C36.4695 22.0903 36.5695 22.0903 36.5695 22.1903L36.6695 22.2903C36.7695 22.3903 36.7695 22.3903 36.8695 22.4903L36.9695 22.5903C37.0695 22.5903 37.0695 22.6903 37.1695 22.6903L37.2695 22.7903C37.3695 22.7903 37.3695 22.7903 37.4695 22.8903C37.5695 22.8903 37.5695 22.8903 37.6695 22.9903C37.7695 22.9903 37.7695 22.9903 37.8695 22.9903C37.9695 22.9903 37.9695 22.9903 38.0695 22.9903H68.7695C70.3695 22.9903 71.7695 24.0903 72.1695 25.5903L81.6695 61.5903C82.0695 63.0903 81.7695 64.6903 80.7695 65.9903C79.7695 67.2903 78.3695 67.9903 76.7695 67.9903H22.9695H19.5695C17.2695 67.9903 15.2695 66.3903 14.6695 64.1903L4.86949 27.6903C4.66949 26.5903 4.86949 25.4903 5.56949 24.5903Z" fill="white"/>
<path d="M58.2697 61.9903C58.5697 62.3903 59.0697 62.5903 59.4697 62.5903C59.5697 62.5903 59.5697 62.5903 59.6697 62.5903C59.7697 62.5903 59.8697 62.5903 59.9697 62.5903C60.3697 62.5903 60.8697 62.3903 61.1697 61.9903L69.2697 51.9903C69.7697 51.3903 69.6697 50.3903 69.0697 49.8903C68.3697 49.3903 67.4697 49.4903 66.9697 50.0903L61.3697 57.0903L61.4697 43.7903C61.4697 42.9903 60.7697 42.2903 59.9697 42.2903C59.0697 42.2903 58.4697 42.9903 58.4697 43.7903L58.3697 56.7903L53.3697 49.6903C52.8697 48.9903 51.9697 48.8903 51.2697 49.2903C50.5697 49.7903 50.4697 50.6903 50.8697 51.3903L58.2697 61.9903Z" fill="white"/>
<path d="M59.9697 41.1903C60.7697 41.1903 61.4697 40.4903 61.4697 39.6903V34.0903C61.4697 33.2903 60.7697 32.5903 59.9697 32.5903C59.1697 32.5903 58.4697 33.2903 58.4697 34.0903V39.6903C58.4697 40.4903 59.1697 41.1903 59.9697 41.1903Z" fill="white"/>
<path d="M60.0693 31.5903C60.8693 31.5903 61.5693 30.8903 61.5693 30.0903V27.2903C61.5693 26.4903 60.8693 25.7903 60.0693 25.7903C59.2693 25.7903 58.5693 26.4903 58.5693 27.2903V30.0903C58.5693 30.8903 59.1693 31.5903 60.0693 31.5903Z" fill="white"/>
</svg>
