<?xml version="1.0" encoding="UTF-8"?>
<svg id="Camada_2" data-name="Camada 2" xmlns="http://www.w3.org/2000/svg" width="96.85469" height="42.04486" viewBox="0 0 96.85469 42.04486">
  <g id="Camada_1-2" data-name="Camada 1">
    <g>
      <g>
        <path d="m83.05955,35.27968c-.0182.00893-.03634.01796-.05459.02682.014-.0068.02797-.01372.04195-.0206.00367-.00181.00736-.00361.01103-.00542.00056-.00027.00109-.00053.00162-.0008Z" style="fill: none; stroke-width: 0px;"/>
        <path d="m78.80144,30.5712c.11206-.05135.16134-.18384.11009-.29593l-.39375-.86015c-.1522.03058-.30097.06308-.44659.09739l.43423.94856c.05135.11216.18382.16145.29601.11012Z" style="fill: none; stroke-width: 0px;"/>
        <path d="m89.49393,32.39015s.00005,0,.00008-.00001c-.04402.00652-.08767.01404-.1314.02135.00122-.0002.00244-.00039.00367-.00058.04248-.00709.08488-.01443.12765-.02075Z" style="fill: none; stroke-width: 0px;"/>
        <path d="m75.28815,24.70442l-.08241-.18004c-.04054-.08853-.00162-.19322.08698-.23373.08852-.04054.19319-.00161.23373.08693l.08836.19311c.92107-.33016,1.85749-.36941,2.66119-.16554l2.37424-.91196c-1.16763-1.13308-3.2117-1.48047-5.19547-.76937l-.11187-.24452c-.0513-.11208-.18382-.16139-.29593-.11004-.11214.05127-.16145.18382-.11009.2959l.10435.22796c-1.86698.82009-3.09468,2.40156-3.20073,3.98389l1.47464-.5664c.44149-.65844,1.12252-1.2326,1.973-1.60618Z" style="fill: none; stroke-width: 0px;"/>
        <path d="m77.04793,26.2041l-.41768.16042,1.16168,2.53785.08873.19388c.14551-.03472.29383-.06788.44587-.09897l-.09596-.20962-1.18264-2.58356Z" style="fill: none; stroke-width: 0px;"/>
        <path d="m82.28276,35.63311c.08977-.03726.17911-.07566.26806-.11507-.14232.06307-.28599.12266-.43049.18004.0542-.02152.10855-.04261.16243-.06497Z" style="fill: none; stroke-width: 0px;"/>
        <path d="m85.62324,33.8769l.00008-.00004c.0118-.00652.02351-.01326.03533-.01977-.01182.00652-.02356.01327-.03541.01981Z" style="fill: none; stroke-width: 0px;"/>
        <path d="m88.93911,32.49505c.01304-.00296.02619-.00567.03924-.00862.02016-.00454.04038-.00887.06057-.01331-.03329.00725-.06663.01437-.09981.02193Z" style="fill: none; stroke-width: 0px;"/>
        <path d="m25.18436,34.51222c.01097.00255.02184.00546.03284.00798.04476.01027.08988.01951.13488.0291-.045-.00959-.09011-.01886-.13491-.02912-.01097-.00252-.02184-.00542-.03281-.00797Z" style="fill: none; stroke-width: 0px;"/>
        <path d="m12.16101,31.46486c.01448-.0042.02888-.0085.04336-.01267.06844-.01978.13655-.04038.20557-.05877-.06905.01838-.13716.03899-.20557.05875-.01448.00418-.02888.00849-.04336.01269Z" style="fill: none; stroke-width: 0px;"/>
        <path d="m63.44133,41.25652c.09001.00004.0216.01182.10868-.00818.00282.00007.01352-.00102.02821-.00268h-.55992c.14234.00786.2844.01081.42302.01087Z" style="fill: none; stroke-width: 0px;"/>
        <path d="m90.22225,32.32234c.0789-.00286.15767-.00464.23628-.00476-.07492.00011-.15.00161-.22518.00421-.00369.00013-.00741.00041-.0111.00054Z" style="fill: none; stroke-width: 0px;"/>
        <path d="m10.76488,31.96333c-.03887.01614-.07763.03236-.11639.04874.03876-.01638.07755-.03262.11642-.04874.00011-.00005.00021-.00009.00035-.00015-.00013.00005-.00024.00009-.00037.00015Z" style="fill: none; stroke-width: 0px;"/>
        <path d="m5.33799,34.1503c-.21004.04482-.42307.08307-.63986.1132.21678-.03013.42985-.06838.63986-.1132Z" style="fill: none; stroke-width: 0px;"/>
        <polygon points="6.10678 33.97795 6.10412 33.97785 6.10667 33.97795 6.10678 33.97795" style="fill: none; stroke-width: 0px;"/>
        <path d="m6.04142,33.97565c-.00614-.00024-.01227-.00032-.01841-.00069.00101.00005.00205.00008.00306.00015.0051.00029.01023.00035.01536.00054Z" style="fill: none; stroke-width: 0px;"/>
        <polygon points="6.02267 33.97492 6.02267 33.97493 6.02298 33.97496 6.02267 33.97492" style="fill: none; stroke-width: 0px;"/>
        <polygon points="6.02298 33.97496 6.02301 33.97496 6.02405 33.97464 6.02298 33.97496" style="fill: none; stroke-width: 0px;"/>
        <path d="m10.18628,32.21305c-.00396.00181-.00789.00353-.01185.00529.00396-.00175.00792-.00351.01188-.00527.00029-.00015.00058-.00027.0009-.00041-.00032.00015-.00061.00027-.00093.0004Z" style="fill: none; stroke-width: 0px;"/>
        <path d="m83.27612,35.17167c-.00011.00007-.00021.00009-.00032.00016t-.00005.00004h0c.03422-.01735.06849-.03448.10265-.05204-.03369.01732-.06759.03427-.10135.05138-.00029.00016-.00061.00031-.00093.00046Z" style="fill: none; stroke-width: 0px;"/>
        <path d="m82.55082,35.51803c.07558-.0335.15082-.06786.22584-.10279-.00016.00007-.00029.00012-.00043.00019-.07487.03488-.15.06917-.22542.1026Z" style="fill: none; stroke-width: 0px;"/>
        <polygon points="1.94749 32.52369 1.94738 32.52358 1.94377 32.52112 1.94523 32.52214 1.94749 32.52369" style="fill: none; stroke-width: 0px;"/>
        <path d="m48.18516,30.94257c-.02473-.05784-.04575-.10447-.06211-.13734-.00205.00126-.00404.00263-.00608.00388l.0682.13346Z" style="fill: none; stroke-width: 0px;"/>
        <polygon points="48.13484 30.79766 48.11736 30.79397 48.12623 30.80316 48.13484 30.79766" style="fill: #93c01f; stroke-width: 0px;"/>
        <polygon points="48.11696 30.80912 48.18521 30.94271 48.18516 30.94257 48.11696 30.80911 48.11696 30.80912" style="fill: #93c01f; stroke-width: 0px;"/>
        <path d="m49.07275,14.18013h0c-.02083.04055-.04059.08167-.0593.12331.0187-.04164.03847-.08275.0593-.12331Z" style="fill: #93c01f; stroke-width: 0px;"/>
        <path d="m49.01345,14.30344c-.13084.29146-.20786.60856-.20786.94235v14.78774h.00003v-14.78774c0-.33379.07702-.65089.20783-.94234Z" style="fill: #93c01f; stroke-width: 0px;"/>
        <path d="m83.27705,35.1712c.03377-.01711.06767-.03406.10135-.05138.0356-.0183.07107-.03697.10659-.0555-.06913.03605-.13847.07162-.20794.10688Z" style="fill: none; stroke-width: 0px;"/>
        <path d="m82.81609,35.39657c-.01328.00632-.02654.01267-.03985.01886.00013-.00007.00027-.00012.00043-.00019.01876-.00874.03741-.01775.05611-.02657l.00021-.00011c-.00563.00266-.01126.00531-.0169.008Z" style="fill: #f9b860; stroke-width: 0px;"/>
        <path d="m83.00546,35.30626c.01384-.00673.02763-.01356.04144-.02036-.01397.00688-.02795.0138-.04195.0206.00019-.00008.00035-.00016.0005-.00024Z" style="fill: #f9b860; stroke-width: 0px;"/>
        <polygon points="27.03805 34.77523 27.0351 34.77499 27.03856 34.77528 27.03856 34.77525 27.03805 34.77523" style="fill: none; stroke-width: 0px;"/>
        <path d="m19.11224,27.82123c.13443-.04609.26041-.09941.37666-.15961.00632-.00327.01339-.00599.01963-.0093-.34327.10465-.67689.21524-.98717.32369.04822-.00948.09614-.01946.14354-.03009.15536-.03483.30557-.07607.44733-.12469Z" style="fill: none; stroke-width: 0px;"/>
        <path d="m20.10677,26.19017c-.83486-2.35898-4.39902-5.88285-4.39902-5.88285,0,0,1.51032,1.67593,1.08637,4.35891-.42403,2.683-1.0326,3.42555-1.0326,3.42555,0,0,.48588.04119,1.13472.03257.5964-.24443,1.91028-.75699,3.23479-1.10314.08876-.2281.09245-.50129-.02426-.83103Z" style="fill: none; stroke-width: 0px;"/>
        <path d="m17.7181,31.61273c-.02564-.0081-.05141-.01562-.07712-.02358.1318.04082.26322.08303.39398.12755-.07853-.02673-.15727-.05272-.23618-.07815-.02689-.00867-.05377-.01732-.08068-.02582Z" style="fill: #3f8aca; stroke-width: 0px;"/>
        <path d="m17.39399,31.51473c-.0772-.02232-.15459-.04385-.23219-.06469-.00481-.00129-.00964-.00254-.01448-.00381.1301.03478.25953.07192.38851.11076-.01812-.00545-.0361-.01121-.05422-.01658-.02917-.00866-.05837-.01722-.08762-.02568Z" style="fill: #3f8aca; stroke-width: 0px;"/>
        <path d="m20.3917,32.67306c-.06894-.03071-.13799-.06065-.20695-.09115-.11764-.05202-.23527-.10425-.35305-.15549.50463.21951,1.00744.44825,1.51178.67498-.1264-.05685-.2526-.11392-.37879-.17097-.19096-.08633-.38192-.17223-.57299-.25737Z" style="fill: #3f8aca; stroke-width: 0px;"/>
        <path d="m19.3133,32.20372c-.09333-.03881-.18682-.07698-.28041-.11466-.01193-.0048-.02383-.00968-.03579-.01447-.08884-.0356-.17784-.07048-.267-.10491-.01684-.0065-.03363-.01307-.0505-.01953-.04086-.01567-.08191-.03063-.12282-.04601.31811.1196.63383.24853.94848.38187-.05829-.02475-.11631-.05073-.1747-.07506-.00576-.0024-.0115-.00484-.01727-.00723Z" style="fill: #3f8aca; stroke-width: 0px;"/>
        <path d="m18.36067,31.83116c-.08252-.02997-.16524-.05912-.24808-.08778-.01443-.00499-.02882-.00998-.04325-.01492.13722.04706.2739.09617.41019.14674-.01876-.00696-.03741-.01415-.05616-.02104-.02091-.00768-.04179-.01541-.0627-.02301Z" style="fill: #3f8aca; stroke-width: 0px;"/>
        <path d="m6.02275,33.97505c-.2251.06523-.45246.12567-.68476.17525.2323-.04955.45966-.10999.68476-.17525Z" style="fill: #f9b860; stroke-width: 0px;"/>
        <path d="m14.0338,41.09481l-.00361-.12741c-.06652-.02481-.11498.11065.00361.12741Z" style="fill: #20529f; stroke-width: 0px;"/>
        <path d="m17.45661,41.36308c1.1675-.05741-.48697,0,0,0h0Z" style="fill: #20529f; stroke-width: 0px;"/>
        <polygon points="6.02275 33.97505 6.02293 33.97499 6.0229 33.97499 6.02275 33.97505" style="fill: #f9b860; stroke-width: 0px;"/>
        <path d="m6.02301,33.97496c.09112-.02642.18172-.054.27183-.08264-.08977.02852-.18004.05599-.27079.08232l-.00104.00032Z" style="fill: #2f6eb4; stroke-width: 0px;"/>
        <path d="m12.06944,33.57403c-.38907.00634-.77878.03014-1.1687.06359-.03661.00316-.07324.00812-.10985.0114.03661-.00328.07327-.00824.10988-.0114.38992-.03342.7796-.05725,1.16867-.06359Z" style="fill: #2f6eb4; stroke-width: 0px;"/>
        <path d="m25.01215,34.47043c.06825.0169.13642.03401.20504.04977-.011-.00252-.02186-.00543-.03284-.00798-.05757-.01338-.11487-.0276-.17221-.04179Z" style="fill: #2f6eb4; stroke-width: 0px;"/>
        <path d="m10.18631,32.21307c.13703-.06138.27494-.12089.41317-.17968-.13793.05866-.27555.11805-.41226.17927-.00032.00015-.00061.00027-.0009.00041Z" style="fill: #2f6eb4; stroke-width: 0px;"/>
        <path d="m11.85879,31.55635c.00784-.00255.01578-.00484.02362-.00733-.00005.00001-.00008.00003-.00013.00004-.00778.00248-.01567.00477-.02348.00729Z" style="fill: #2f6eb4; stroke-width: 0px;"/>
        <path d="m12.16064,31.46498c.01459-.00424.02912-.00859.04373-.01279-.01448.00417-.02888.00847-.04336.01267-.00011.00004-.00024.00008-.00037.00012Z" style="fill: #2f6eb4; stroke-width: 0px;"/>
        <polygon points="11.66071 31.62333 11.67032 31.61998 11.66565 31.6216 11.66071 31.62333" style="fill: #2f6eb4; stroke-width: 0px;"/>
        <path d="m10.76525,31.96318c-.00013.00005-.00024.00009-.00035.00015.12792-.05313.25674-.10443.38609-.15449-.00027.00011-.0005.00021-.00077.00031-.12898.04991-.25743.10106-.38498.15403Z" style="fill: #2f6eb4; stroke-width: 0px;"/>
        <polygon points="13.53788 31.16534 13.54306 31.16452 13.53844 31.16525 13.53788 31.16534" style="fill: #2f6eb4; stroke-width: 0px;"/>
        <path d="m6.70623,33.99924c-.22691-.00191-.45368-.01027-.68016-.02414-.00104-.00007-.00207-.00005-.00313-.00012.22754.014.45533.02233.6833.02426Z" style="fill: #2f6eb4; stroke-width: 0px;"/>
        <path d="m8.78518,32.86604c-.00701.00329-.01405.00656-.02107.00986.00701-.00329.01405-.00656.02107-.00986Z" style="fill: #3f8aca; stroke-width: 0px;"/>
        <path d="m8.43352,33.03003c-.05667.02619-.11352.05191-.17032.07784.05677-.02596.11365-.05165.17032-.07784Z" style="fill: #3f8aca; stroke-width: 0px;"/>
        <path d="m8.04508,33.2071c-.13233.05927-.26498.1178-.39834.17481.13334-.05704.26604-.1155.39834-.17481Z" style="fill: #3f8aca; stroke-width: 0px;"/>
        <path d="m6.29484,33.89232c.03749-.0119.07452-.02473.11182-.03699-.12667.04163-.25395.08198-.38261.11931.09075-.02633.18103-.0538.27079-.08232Z" style="fill: #3f8aca; stroke-width: 0px;"/>
        <path d="m7.09397,33.60863c.02622-.01021.05194-.02155.07813-.03191-.05109.02019-.10236.03998-.15366.05964.02503-.00959.05058-.01801.07553-.02774Z" style="fill: #3f8aca; stroke-width: 0px;"/>
        <path d="m6.56378,33.80334c.03565-.01225.07045-.02635.10595-.03892-.059.02085-.11769.04244-.17709.06246.02364-.00797.04755-.01544.07115-.02354Z" style="fill: #3f8aca; stroke-width: 0px;"/>
        <polygon points="5.33759 34.14894 5.33799 34.1503 5.33767 34.1492 5.33759 34.14894" style="fill: #3f8aca; stroke-width: 0px;"/>
        <path d="m22.96583,33.79818c.02691.01072.05374.02157.08071.0322.04014.01579.08039.03127.12064.04678-.08305-.03212-.16588-.0648-.24856-.09787.01573.00627.03145.01262.04721.01889Z" style="fill: #3f8aca; stroke-width: 0px;"/>
        <path d="m22.30474,33.525c.011.0047.02197.00946.033.01413.06129.02612.12269.05195.18413.07768.01759.00737.03515.01482.05276.02216.05555.02314.11121.04596.16689.06873l.00135.00056c-.17088-.06984-.34104-.14163-.51077-.21453.02423.0104.0484.02091.07263.03127Z" style="fill: #3f8aca; stroke-width: 0px;"/>
        <path d="m22.09361,33.43409c.00175.00077.00351.00154.00526.0023.03122.01355.06248.0269.09373.04034-.0772-.03325-.15403-.0674-.23105-.10113.0441.01933.08791.03931.13206.05849Z" style="fill: #3f8aca; stroke-width: 0px;"/>
        <path d="m23.51881,34.00992c.02641.00964.05287.01901.07933.02844-.05111-.01841-.10218-.03707-.15316-.05594.0246.00922.04917.01848.07383.0275Z" style="fill: #3f8aca; stroke-width: 0px;"/>
        <path d="m23.99367,34.17602c.01291.00429.0259.00838.03884.01259-.02585-.00853-.05167-.01714-.07747-.02578.01286.0044.02572.00889.03863.01319Z" style="fill: #3f8aca; stroke-width: 0px;"/>
        <polygon points="10.6482 32.0122 10.64849 32.01206 10.64806 32.01225 10.6482 32.0122" style="fill: #3f8aca; stroke-width: 0px;"/>
        <path d="m11.33723,31.73813s.00005-.00001.00011-.00004c-.00792.00294-.01591.0057-.0238.00865.00786-.00294.01581-.00569.0237-.00861Z" style="fill: #3f8aca; stroke-width: 0px;"/>
        <polygon points="13.35444 31.19548 13.35797 31.19488 13.35917 31.19467 13.35444 31.19548" style="fill: #3f8aca; stroke-width: 0px;"/>
        <path d="m16.77942,31.35423c.05353.01214.10706.02418.16025.03733.0013.00032.0026.00058.00391.0009-.05449-.01352-.10935-.0258-.16416-.03823Z" style="fill: #3f8aca; stroke-width: 0px;"/>
        <polygon points="16.93967 31.39156 16.9444 31.39266 16.94358 31.39246 16.93967 31.39156" style="fill: #3f8aca; stroke-width: 0px;"/>
        <path d="m12.76012,31.3094c-.11732.02662-.23458.05324-.35002.08399.11546-.03071.2327-.05741.35002-.08399Z" style="fill: #3f8aca; stroke-width: 0px;"/>
        <path d="m22.811,33.7362c.03581.01452.07173.02879.10762.04309-.05866-.02348-.11727-.04712-.17574-.07104.02271.0093.04538.0187.06812.02795Z" style="fill: #3f8aca; stroke-width: 0px;"/>
        <path d="m24.03251,34.18861c.02968.00964.05935.01926.08905.02886.03703.01198.07394.02428.11108.03597.07882.02481.15783.04895.23713.07242-.1466-.04326-.29221-.08946-.43726-.13726Z" style="fill: #3f8aca; stroke-width: 0px;"/>
        <path d="m23.19241,33.88694c.03005.01158.06001.02335.09009.03479.04604.01751.09221.03455.13839.05171.00802.00299.01607.00598.0241.00898-.09285-.03436-.18544-.06955-.27781-.10526.00842.00324.01682.00654.02524.00978Z" style="fill: #3f8aca; stroke-width: 0px;"/>
        <path d="m18.03858,31.71785l.00183.00064c.00468.00159.00938.00306.01403.00465-.00529-.00181-.0106-.00348-.01586-.00529Z" style="fill: #3f8aca; stroke-width: 0px;"/>
        <path d="m23.65159,34.05753c.03475.01241.06945.02505.10425.03725.04296.01504.08613.02949.12919.04417.02333.00796.04668.01591.07.02388-.11944-.04005-.23833-.08177-.3569-.12447.01785.00635.03565.01279.05345.01917Z" style="fill: #3f8aca; stroke-width: 0px;"/>
        <path d="m26.22612,34.70238c.00672.00093.01336.00205.02011.0029-.00662-.00085-.01315-.00197-.01974-.00284-.00013-.00001-.00024-.00004-.00037-.00005Z" style="fill: #3f8aca; stroke-width: 0px;"/>
        <path d="m26.24623,34.70528c.00571.00072.01148.00133.01722.00205.00029.00003.00056.00005.00085.00009-.006-.00076-.01206-.00137-.01807-.00214Z" style="fill: #3f8aca; stroke-width: 0px;"/>
        <path d="m26.98803,34.7724c.01573.00076.03132.00193.04708.00259-.01597-.00066-.03177-.00185-.04771-.00263l.00064.00004Z" style="fill: #3f8aca; stroke-width: 0px;"/>
        <path d="m10.59947,32.03338c.01631-.00693.03241-.01429.04872-.02119-.00005.00001-.00008.00004-.00013.00005-.01626.00688-.03233.01421-.04859.02113Z" style="fill: #3f8aca; stroke-width: 0px;"/>
        <polygon points="11.658 31.62426 11.66071 31.62333 11.66565 31.6216 11.658 31.62426" style="fill: #3f8aca; stroke-width: 0px;"/>
        <polygon points="5.33759 34.14892 5.33759 34.14894 5.33767 34.1492 5.33759 34.14892" style="fill: #3f8aca; stroke-width: 0px;"/>
        <path d="m16.69016,31.33391c.00005.00001.00013.00003.00021.00005.02975.00648.05935.01354.08905.02027-.02975-.00675-.0594-.01384-.08926-.02032Z" style="fill: #3f8aca; stroke-width: 0px;"/>
        <polygon points="16.68997 31.33387 16.69037 31.33396 16.69016 31.33391 16.68997 31.33387" style="fill: #3f8aca; stroke-width: 0px;"/>
        <polygon points="16.68838 31.33351 16.68997 31.33387 16.6884 31.33351 16.68838 31.33351" style="fill: #3f8aca; stroke-width: 0px;"/>
        <polygon points="16.6884 31.33351 16.68997 31.33387 16.69016 31.33391 16.6884 31.33351" style="fill: #3f8aca; stroke-width: 0px;"/>
        <path d="m16.48326,31.29075c.06849.01379.13695.0278.20512.04276h.00003c-.06822-.01481-.13663-.02902-.20515-.04276Z" style="fill: #3f8aca; stroke-width: 0px;"/>
        <path d="m24.49501,34.33296c.00584.00166.01172.00328.01756.0049.02152.0059.04298.01193.06456.01773.00624.00169.01249.00341.01873.00509-.03363-.00923-.06729-.01825-.10085-.02772Z" style="fill: #3f8aca; stroke-width: 0px;"/>
        <path d="m11.33734,31.73809c.10712-.03968.21503-.07768.32337-.11477-.0009.00031-.00181.00062-.00271.00093-.10741.03679-.21442.07449-.32066.11384Z" style="fill: #3f8aca; stroke-width: 0px;"/>
        <path d="m13.45242,31.17936c.02837-.00495.05667-.01006.08547-.01401-.00043.00005-.00085.00013-.00128.0002-.02835.00393-.05624.00897-.08419.01381Z" style="fill: #3f8aca; stroke-width: 0px;"/>
        <polygon points="13.53661 31.16554 13.53788 31.16534 13.53844 31.16525 13.53661 31.16554" style="fill: #3f8aca; stroke-width: 0px;"/>
        <polygon points="24.59739 34.36111 24.59745 34.36113 24.60409 34.36294 24.59739 34.36111" style="fill: #3f8aca; stroke-width: 0px;"/>
        <polygon points="24.59641 34.36084 24.59745 34.36113 24.59739 34.36111 24.59641 34.36084" style="fill: #3f8aca; stroke-width: 0px;"/>
        <polygon points="24.59585 34.36068 24.59641 34.36084 24.59739 34.36111 24.59585 34.36068" style="fill: #3f8aca; stroke-width: 0px;"/>
        <path d="m24.57712,34.35559c.00643.00174.01286.00348.01929.00525l-.00056-.00016c-.00624-.00167-.01249-.0034-.01873-.00509Z" style="fill: #3f8aca; stroke-width: 0px;"/>
        <path d="m24.47274,34.32678c.00643.00189.01291.00361.01939.00539-.00019-.00005-.00035-.00011-.00053-.00016-.0063-.00178-.01262-.0034-.01886-.00523Z" style="fill: #3f8aca; stroke-width: 0px;"/>
        <polygon points="24.49161 34.33202 24.49214 34.33217 24.49501 34.33296 24.49161 34.33202" style="fill: #3f8aca; stroke-width: 0px;"/>
        <path d="m24.49214,34.33217c.00683.00186.01363.0038.02043.00569-.00584-.00162-.01172-.00324-.01756-.0049-.00096-.00027-.00191-.00052-.00287-.00078Z" style="fill: #3f8aca; stroke-width: 0px;"/>
        <path d="m19.11224,27.82123c-.14176.04862-.29197.08986-.44733.12469.15536-.03484.3056-.07607.44733-.12469Z" style="fill: #3f8aca; stroke-width: 0px;"/>
        <path d="m17.79879,31.63855c.0789.02542.15765.05142.23618.07815.0012.00041.00242.00076.00361.00116-.07975-.02715-.15972-.05349-.23979-.0793Z" style="fill: #3f8aca; stroke-width: 0px;"/>
        <path d="m17.64082,31.58909c.00005.00001.00011.00004.00016.00005.02572.00796.05149.01548.07712.02358-.02569-.0081-.05151-.01583-.07728-.02363Z" style="fill: #3f8aca; stroke-width: 0px;"/>
        <polygon points="17.64077 31.58908 17.64098 31.58915 17.64082 31.58909 17.64077 31.58908" style="fill: #3f8aca; stroke-width: 0px;"/>
        <path d="m17.60953,31.57953c.01041.0032.02083.00634.03124.00955,0,0,.00003,0,.00005.00001-.01044-.00316-.02088-.00636-.0313-.00956Z" style="fill: #3f8aca; stroke-width: 0px;"/>
        <path d="m17.48161,31.54041c.01812.00537.0361.01113.05422.01658.00011.00003.00021.00005.00032.00009-.01822-.00549-.03632-.01128-.05454-.01667Z" style="fill: #3f8aca; stroke-width: 0px;"/>
        <path d="m17.53583,31.55699c.0246.00739.04915.01501.0737.02254-.02444-.00752-.04888-.01508-.07338-.02245-.00011-.00004-.00021-.00007-.00032-.00009Z" style="fill: #3f8aca; stroke-width: 0px;"/>
        <path d="m20.96469,32.93042c.12619.05705.25238.11412.37879.17097l.00303.00135c-.12741-.0573-.25462-.11482-.38182-.17232Z" style="fill: #3f8aca; stroke-width: 0px;"/>
        <path d="m21.43131,33.14076c.00133.00061.00271.00122.00404.00183.17473.07841.34994.15577.52536.23263.00029.00012.00056.00025.00085.00037-.17707-.07759-.35392-.15568-.53025-.23484Z" style="fill: #3f8aca; stroke-width: 0px;"/>
        <path d="m21.37432,33.11523c.02035.00911.04067.01822.06102.02736-.00133-.00061-.00271-.00122-.00404-.00183-.019-.00851-.03799-.01703-.05699-.02553Z" style="fill: #3f8aca; stroke-width: 0px;"/>
        <path d="m21.34985,33.10426c.00816.00367.01631.00731.02447.01097-.00927-.00417-.01854-.00832-.02782-.01249l.00335.00151Z" style="fill: #3f8aca; stroke-width: 0px;"/>
        <polygon points="21.34348 33.10139 21.34985 33.10426 21.34651 33.10275 21.34348 33.10139" style="fill: #3f8aca; stroke-width: 0px;"/>
        <path d="m21.9607,33.37523c.04439.01945.08847.03956.13291.05886-.04415-.01918-.08796-.03916-.13206-.05849-.00029-.00012-.00056-.00025-.00085-.00037Z" style="fill: #3f8aca; stroke-width: 0px;"/>
        <path d="m19.81831,32.42049c.00446.00194.00893.00399.01339.00592.11777.05125.23541.10348.35305.15549-.1221-.054-.24417-.10826-.36643-.16142Z" style="fill: #3f8aca; stroke-width: 0px;"/>
        <path d="m19.81547,32.41926c.00542.00236.01081.00478.01623.00715-.00446-.00194-.00893-.00399-.01339-.00592-.00093-.00041-.00189-.0008-.00284-.00122Z" style="fill: #3f8aca; stroke-width: 0px;"/>
        <path d="m19.33057,32.21094c.05839.02434.11642.05032.1747.07506.00024.00011.00048.00019.00072.00029-.05855-.02481-.11679-.05093-.17542-.07536Z" style="fill: #3f8aca; stroke-width: 0px;"/>
        <polygon points="19.50527 32.28601 19.50671 32.28662 19.50599 32.2863 19.50527 32.28601" style="fill: #3f8aca; stroke-width: 0px;"/>
        <path d="m19.63678,32.34249c.05959.02556.11918.05093.17869.07678-.00043-.00019-.00088-.0004-.00133-.00058-.05906-.02566-.11822-.05082-.17736-.07619Z" style="fill: #3f8aca; stroke-width: 0px;"/>
        <path d="m19.50671,32.28662c.04341.01838.08671.03727.13007.05587-.0436-.0187-.08714-.03767-.13079-.05619l.00072.00032Z" style="fill: #3f8aca; stroke-width: 0px;"/>
        <polygon points="19.81414 32.41868 19.81547 32.41926 19.81831 32.42049 19.81414 32.41868" style="fill: #3f8aca; stroke-width: 0px;"/>
        <path d="m18.47953,31.87521c.01198.00444.02394.00895.03589.01344-.03071-.01142-.06132-.02319-.09205-.03448.01876.00689.03741.01408.05616.02104Z" style="fill: #3f8aca; stroke-width: 0px;"/>
        <path d="m18.55658,31.90406c.00005.00003.00013.00005.00021.00008.04091.01538.08196.03034.12282.04601-.04091-.01569-.08201-.03072-.12303-.04609Z" style="fill: #3f8aca; stroke-width: 0px;"/>
        <polygon points="18.55639 31.90399 18.55679 31.90414 18.55658 31.90406 18.55639 31.90399" style="fill: #3f8aca; stroke-width: 0px;"/>
        <path d="m18.51542,31.88865c.01366.00513.02731.0102.04097.01534.00005.00001.00013.00005.00019.00007-.01373-.00513-.02742-.01031-.04115-.01541Z" style="fill: #3f8aca; stroke-width: 0px;"/>
        <polygon points="18.03496 31.71669 18.04041 31.71849 18.03858 31.71785 18.03496 31.71669" style="fill: #3f8aca; stroke-width: 0px;"/>
        <path d="m17.11475,31.43693c.01092.0029.02168.00638.03257.0093.00484.00128.00967.00252.01448.00381-.01573-.00422-.0313-.00894-.04705-.01311Z" style="fill: #3f8aca; stroke-width: 0px;"/>
        <path d="m18.05444,31.72314c.00497.0017.00991.00361.0149.00533.01443.00494.02882.00992.04325.01492-.01939-.00672-.03873-.0136-.05815-.02024Z" style="fill: #3f8aca; stroke-width: 0px;"/>
        <path d="m18.04041,31.71849c.00964.00329.01929.00667.02893.00998-.00499-.00171-.00994-.00363-.0149-.00533-.00465-.00159-.00935-.00306-.01403-.00465Z" style="fill: #3f8aca; stroke-width: 0px;"/>
        <path d="m16.9453,31.39291c.06761.01682.13475.03533.20201.05332-.01089-.00292-.02165-.0064-.03257-.0093-.0564-.0149-.1128-.02991-.16944-.04402Z" style="fill: #3f8aca; stroke-width: 0px;"/>
        <polygon points="24.47006 34.32596 24.47274 34.32678 24.46977 34.32586 24.47006 34.32596" style="fill: #3f8aca; stroke-width: 0px;"/>
        <path d="m24.23263,34.25344c.0789.02484.15805.04903.23743.07251-.00011-.00003-.00021-.00007-.00029-.00009-.0793-.02347-.15831-.04761-.23713-.07242Z" style="fill: #3f8aca; stroke-width: 0px;"/>
        <path d="m5.26798,33.90594c.02362.07577.04229.15738.06642.23257-.0241-.07518-.04277-.1568-.06639-.23257h-.00003Z" style="fill: #3f8aca; stroke-width: 0px;"/>
        <polygon points="5.33748 34.1486 5.33759 34.14894 5.33759 34.14892 5.33748 34.1486" style="fill: #3f8aca; stroke-width: 0px;"/>
        <polygon points="5.33735 34.14816 5.33748 34.1486 5.33759 34.14892 5.33735 34.14816" style="fill: #3f8aca; stroke-width: 0px;"/>
        <polygon points="5.3344 34.1385 5.33748 34.1486 5.33735 34.14816 5.3344 34.1385" style="fill: #3f8aca; stroke-width: 0px;"/>
        <path d="m14.8688,31.09695c.01801.00054.0361.00073.05409.00137h.00032c-.01809-.00062-.03629-.00082-.05441-.00137Z" style="fill: #3f8aca; stroke-width: 0px;"/>
        <polygon points="14.92289 31.09831 14.92326 31.09833 14.92321 31.09831 14.92289 31.09831" style="fill: #3f8aca; stroke-width: 0px;"/>
        <path d="m15.65267,31.15562c.00375.00043.00757.00066.01134.00112-.11705-.01408-.23573-.02245-.35411-.03171.11458.00897.22938.01731.34276.03059Z" style="fill: #3f8aca; stroke-width: 0px;"/>
        <polygon points="15.30561 31.1247 15.30587 31.12472 15.30991 31.12503 15.30561 31.1247" style="fill: #3f8aca; stroke-width: 0px;"/>
        <polygon points="15.29838 31.12412 15.30587 31.12472 15.30561 31.1247 15.29838 31.12412" style="fill: #3f8aca; stroke-width: 0px;"/>
        <path d="m4.94355,32.69771c.09551.41817.20363.82061.32443,1.20823h.00003c-.12077-.38762-.22895-.79005-.32446-1.20823Z" style="fill: #3f8aca; stroke-width: 0px;"/>
        <path d="m14.93941,31.09926c.05667.00214.11299.00549.16904.00975h.00005c-.05608-.00426-.1124-.00761-.1691-.00975Z" style="fill: #3f8aca; stroke-width: 0px;"/>
        <path d="m14.92342,31.09834c.00537.00016.01063.00072.01599.00092-.00534-.0002-.0106-.00076-.01597-.00092h-.00003Z" style="fill: #3f8aca; stroke-width: 0px;"/>
        <polygon points="14.92331 31.09833 14.92342 31.09834 14.92334 31.09833 14.92331 31.09833" style="fill: #3f8aca; stroke-width: 0px;"/>
        <polygon points="14.92334 31.09833 14.92342 31.09834 14.92344 31.09834 14.92334 31.09833" style="fill: #3f8aca; stroke-width: 0px;"/>
        <polygon points="15.10846 31.10901 15.10853 31.10902 15.10851 31.10901 15.10846 31.10901" style="fill: #3f8aca; stroke-width: 0px;"/>
        <path d="m16.15718,31.22921c.00282.00048.00566.00088.0085.00135-.08246-.01408-.16511-.02744-.24805-.03977.0801.01194.15991.02487.23955.03842Z" style="fill: #3f8aca; stroke-width: 0px;"/>
        <path d="m15.83992,31.18035c.02556.00337.05122.00652.07667.01031.00035.00005.00069.00008.00104.00013-.0258-.00384-.05186-.00681-.07771-.01044Z" style="fill: #3f8aca; stroke-width: 0px;"/>
        <path d="m15.67451,31.15814c.01156.00137.02298.00321.03454.00464.01751.0024.03501.00477.05255.00705-.02906-.00377-.05792-.00824-.08709-.01169Z" style="fill: #3f8aca; stroke-width: 0px;"/>
        <path d="m15.70905,31.16278c.04376.00538.0873.01146.13087.01757-.02614-.00345-.05218-.00712-.07832-.01052-.01753-.00228-.03504-.00465-.05255-.00705Z" style="fill: #3f8aca; stroke-width: 0px;"/>
        <polygon points="15.67183 31.15778 15.67369 31.15804 15.67451 31.15814 15.67183 31.15778" style="fill: #3f8aca; stroke-width: 0px;"/>
        <polygon points="15.66721 31.15716 15.67132 31.15772 15.67183 31.15778 15.66721 31.15716" style="fill: #3f8aca; stroke-width: 0px;"/>
        <polygon points="15.67132 31.15772 15.67369 31.15804 15.67183 31.15778 15.67132 31.15772" style="fill: #3f8aca; stroke-width: 0px;"/>
        <path d="m16.34798,31.26329c.00072.00015.00141.00029.00213.00044.0398.00756.0793.01614.11899.02407-.04041-.00806-.0806-.0168-.12112-.02451Z" style="fill: #3f8aca; stroke-width: 0px;"/>
        <path d="m2.4119,32.83899c-.15871-.10077-.31415-.20669-.46667-.31685-.0005-.00032-.00098-.00065-.00146-.001.15297.11054.30892.21676.46813.31784Z" style="fill: #3f8aca; stroke-width: 0px;"/>
        <path d="m6.02269,33.97499l-.00003-.00005c-.12625-.00776-.25273-.00846-.37879-.02147-.12537-.01294-.25066-.02938-.37587-.04753.12521.01817.25047.03459.37587.04755.12606.01302.25254.01372.37881.02149Z" style="fill: #3f8aca; stroke-width: 0px;"/>
        <polygon points="14.92326 31.09833 14.92331 31.09833 14.92321 31.09831 14.92326 31.09833" style="fill: #3f8aca; stroke-width: 0px;"/>
        <path d="m16.94488,31.39279c.00013.00004.00027.00008.00043.00012.05664.01411.11304.02912.16944.04402-.05653-.01496-.11307-.03002-.16987-.04414Z" style="fill: #3f8aca; stroke-width: 0px;"/>
        <path d="m25.35208,34.5493c.03416.00731.06817.01506.10244.02213.09163.01896.18374.03645.27624.05273-.09251-.0163-.18459-.03382-.27621-.05273-.03427-.00709-.0683-.01482-.10247-.02213Z" style="fill: #3f8aca; stroke-width: 0px;"/>
        <polygon points="26.13505 34.68905 26.13553 34.68912 26.13508 34.68905 26.13505 34.68905" style="fill: #3f8aca; stroke-width: 0px;"/>
        <path d="m24.98434,34.46336c.0093.00231.01854.00477.02782.00707-.00927-.0023-.01852-.00476-.02779-.00707h-.00003Z" style="fill: #3f8aca; stroke-width: 0px;"/>
        <path d="m24.61615,34.36621c.07606.02152.15255.04176.22908.06179.00003,0,.00005,0,.00005.00001-.07662-.01986-.15308-.04024-.22914-.06181Z" style="fill: #3f8aca; stroke-width: 0px;"/>
        <polygon points="24.60778 34.36395 24.61615 34.36621 24.60908 34.36429 24.60778 34.36395" style="fill: #3f8aca; stroke-width: 0px;"/>
        <polygon points="24.60497 34.36318 24.60778 34.36395 24.60595 34.36344 24.60497 34.36318" style="fill: #3f8aca; stroke-width: 0px;"/>
        <polygon points="24.60409 34.36294 24.60497 34.36318 24.60595 34.36344 24.60409 34.36294" style="fill: #3f8aca; stroke-width: 0px;"/>
        <polygon points="24.59745 34.36113 24.60497 34.36318 24.60409 34.36294 24.59745 34.36113" style="fill: #3f8aca; stroke-width: 0px;"/>
        <polygon points="24.60595 34.36344 24.60778 34.36395 24.60908 34.36429 24.60595 34.36344" style="fill: #3f8aca; stroke-width: 0px;"/>
        <path d="m15.10851,31.10901s.00003.00001.00003.00001c.00569.00043.01137.00089.01706.00133-.00569-.00045-.01137-.0009-.01708-.00134Z" style="fill: #3f8aca; stroke-width: 0px;"/>
        <polygon points="15.29519 31.12387 15.29697 31.124 15.29838 31.12412 15.297 31.124 15.29519 31.12387" style="fill: #3f8aca; stroke-width: 0px;"/>
        <polygon points="15.297 31.124 15.29838 31.12412 15.30561 31.1247 15.297 31.124" style="fill: #3f8aca; stroke-width: 0px;"/>
        <polygon points="15.66402 31.15673 15.67132 31.15772 15.66721 31.15716 15.66402 31.15673" style="fill: #3f8aca; stroke-width: 0px;"/>
        <path d="m26.13672,34.6893c.00688.00105.01379.00214.0207.0032.02279.00345.04562.0068.06854.00986-.02986-.00401-.05956-.00853-.08924-.01306Z" style="fill: #3f8aca; stroke-width: 0px;"/>
        <polygon points="26.22596 34.70236 26.22612 34.70238 26.22649 34.70243 26.22596 34.70236" style="fill: #3f8aca; stroke-width: 0px;"/>
        <path d="m26.15742,34.6925c.02285.00345.04575.00672.0687.00988-.00005,0-.00011-.00001-.00016-.00003-.02293-.00306-.04575-.0064-.06854-.00986Z" style="fill: #3f8aca; stroke-width: 0px;"/>
        <polygon points="26.13508 34.68905 26.13553 34.68912 26.13672 34.6893 26.13508 34.68905" style="fill: #3f8aca; stroke-width: 0px;"/>
        <path d="m26.13553,34.68912c.00731.00112.01459.00226.02189.00337-.00691-.00106-.01381-.00215-.0207-.0032-.0004-.00007-.0008-.00012-.0012-.00017Z" style="fill: #3f8aca; stroke-width: 0px;"/>
        <path d="m26.00947,34.6697c.00021.00003.00043.00007.00066.00011.04166.00632.08326.01286.12492.01923h.00003c-.0419-.00643-.08371-.01299-.12561-.01934Z" style="fill: #3f8aca; stroke-width: 0px;"/>
        <polygon points="26.00934 34.66969 26.01013 34.66981 26.00947 34.6697 26.00934 34.66969" style="fill: #3f8aca; stroke-width: 0px;"/>
        <path d="m24.98437,34.46336c.00927.00231.01852.00477.02779.00707.05733.01419.11464.02841.17221.04179-.06692-.01553-.13344-.03227-.19999-.04886Z" style="fill: #3f8aca; stroke-width: 0px;"/>
        <path d="m24.8497,34.42913c.04479.01169.08969.02302.13464.03423h.00003c-.04495-.0112-.08982-.02262-.13467-.03423Z" style="fill: #3f8aca; stroke-width: 0px;"/>
        <polygon points="24.84524 34.428 24.8497 34.42913 24.84529 34.42801 24.84524 34.428" style="fill: #3f8aca; stroke-width: 0px;"/>
        <path d="m26.43956,34.72812c.0594.00656.11894.01265.17869.0182.0221.00205.04447.00343.06666.00533-.1411-.01197-.28129-.02677-.4206-.04423.05829.00731.11668.01428.17526.02071Z" style="fill: #3f8aca; stroke-width: 0px;"/>
        <path d="m26.26345,34.70732c.05855.00736.11727.01432.17611.0208-.05858-.00643-.11697-.0134-.17526-.02071-.00029-.00004-.00056-.00007-.00085-.00009Z" style="fill: #3f8aca; stroke-width: 0px;"/>
        <path d="m26.81327,34.76193c.01121.00078.02229.00194.0335.00268.0467.0031.09367.00543.14062.00774-.05826-.00282-.11628-.00638-.17412-.01043Z" style="fill: #3f8aca; stroke-width: 0px;"/>
        <path d="m26.84677,34.76461c.04692.00312.09405.0055.14126.00778l-.00064-.00004c-.04694-.00231-.09391-.00465-.14062-.00774Z" style="fill: #3f8aca; stroke-width: 0px;"/>
        <path d="m15.27649,31.12238c.00189.00015.00377.00029.00569.00045.00348.00027.00696.00056.01047.00082-.00539-.00043-.01079-.00085-.01615-.00128Z" style="fill: #3f8aca; stroke-width: 0px;"/>
        <polygon points="15.28217 31.12284 15.29347 31.12373 15.29264 31.12366 15.28217 31.12284" style="fill: #3f8aca; stroke-width: 0px;"/>
        <polygon points="15.29347 31.12373 15.29519 31.12387 15.29466 31.12382 15.29347 31.12373" style="fill: #3f8aca; stroke-width: 0px;"/>
        <polygon points="15.29466 31.12382 15.29519 31.12387 15.297 31.124 15.29466 31.12382" style="fill: #3f8aca; stroke-width: 0px;"/>
        <polygon points="15.29264 31.12366 15.29347 31.12373 15.29466 31.12382 15.29264 31.12366" style="fill: #3f8aca; stroke-width: 0px;"/>
        <path d="m15.10853,31.10902c.05606.00417.11198.00887.16795.01336-.05034-.00392-.10058-.00812-.1509-.01203-.00569-.00044-.01137-.0009-.01706-.00133Z" style="fill: #3f8aca; stroke-width: 0px;"/>
        <polygon points="13.35917 31.19467 13.36108 31.19435 13.36183 31.19422 13.35917 31.19467" style="fill: #3f8aca; stroke-width: 0px;"/>
        <polygon points="13.35797 31.19488 13.36108 31.19435 13.35917 31.19467 13.35797 31.19488" style="fill: #3f8aca; stroke-width: 0px;"/>
        <path d="m13.36108,31.19435c.01198-.00191.02391-.00393.03587-.0059-.01169.00191-.02338.00389-.03512.00576-.00024.00005-.00048.00009-.00074.00013Z" style="fill: #3f8aca; stroke-width: 0px;"/>
        <polygon points="13.42136 31.18444 13.42367 31.18407 13.42819 31.18333 13.42136 31.18444" style="fill: #3f8aca; stroke-width: 0px;"/>
        <path d="m13.42367,31.18407c.00956-.00165.01921-.00306.02875-.00472-.00805.00139-.01618.00258-.02423.00397-.00149.00027-.00303.00048-.00452.00074Z" style="fill: #3f8aca; stroke-width: 0px;"/>
        <path d="m13.42819,31.18333c.00805-.00139.01618-.00258.02423-.00397.02795-.00485.05584-.00988.08419-.01381-.03653.00503-.07239.01156-.10842.01779Z" style="fill: #3f8aca; stroke-width: 0px;"/>
        <path d="m13.39695,31.18846c.00893-.00146.01785-.00284.02673-.00438-.00077.00013-.00154.00024-.00231.00037-.0081.00139-.01629.00267-.02441.00401Z" style="fill: #3f8aca; stroke-width: 0px;"/>
        <path d="m13.36183,31.19422c.01174-.00187.02343-.00385.03512-.00576.00813-.00134.01631-.00262.02441-.00401-.01977.00343-.03966.00659-.05954.00978Z" style="fill: #3f8aca; stroke-width: 0px;"/>
        <path d="m79.70106,36.27989c.00635-.00037.01257-.00035.01892-.0008-.0063.00048-.01249.00037-.01878.0008h-.00013Z" style="fill: #f9b860; stroke-width: 0px;"/>
        <polygon points="79.70003 36.27994 79.70106 36.27989 79.70027 36.27993 79.70003 36.27994" style="fill: #f9b860; stroke-width: 0px;"/>
        <polygon points="79.70027 36.27993 79.70106 36.27989 79.7012 36.27989 79.70027 36.27993" style="fill: #f9b860; stroke-width: 0px;"/>
        <path d="m78.35325,36.24922c.02046.00234.04128.00331.06179.00537-.02062-.00206-.0415-.00304-.06206-.00539.00008.00001.00019.00001.00027.00003Z" style="fill: #f9b860; stroke-width: 0px;"/>
        <path d="m82.96229,35.32686c.01413-.0068.02835-.0134.04245-.02026l.00021-.00011c-.01416.00689-.02845.01354-.04267.02036Z" style="fill: #f9b860; stroke-width: 0px;"/>
        <polygon points="82.83482 35.3877 82.83378 35.3882 82.83445 35.38788 82.83482 35.3877" style="fill: #f9b860; stroke-width: 0px;"/>
        <polygon points="82.83363 35.38827 82.83355 35.38831 82.83373 35.38823 82.83363 35.38827" style="fill: #f9b860; stroke-width: 0px;"/>
        <polygon points="83.23895 35.19052 83.23893 35.19055 83.24602 35.18695 83.23895 35.19052" style="fill: #f9b860; stroke-width: 0px;"/>
        <path d="m83.05955,35.27968c.01509-.0074.03007-.01501.04516-.02244.00489-.00243.0098-.00489.01472-.00732-.01998.00988-.03988.01995-.05988.02975Z" style="fill: #f9b860; stroke-width: 0px;"/>
        <polygon points="89.92128 32.34079 89.92162 32.34075 89.92077 32.34081 89.92085 32.34081 89.92088 32.34081 89.92104 32.3408 89.92128 32.34079" style="fill: #f9b860; stroke-width: 0px;"/>
        <polygon points="89.92046 32.34084 89.92046 32.34084 89.92024 32.34087 89.92046 32.34084" style="fill: #f9b860; stroke-width: 0px;"/>
        <polygon points="89.92077 32.34081 89.92077 32.34081 89.92054 32.34084 89.92077 32.34081" style="fill: #f9b860; stroke-width: 0px;"/>
        <polygon points="89.92054 32.34084 89.92051 32.34084 89.92085 32.34081 89.92077 32.34081 89.92054 32.34084" style="fill: #f9b860; stroke-width: 0px;"/>
        <polygon points="89.91549 32.34126 89.91764 32.34108 89.91761 32.34108 89.91549 32.34126" style="fill: #f9b860; stroke-width: 0px;"/>
        <path d="m89.91761,32.34108c-.00452.0004-.00901.00074-.01352.00113.0038-.00033.0076-.00064.0114-.00094.00072-.00005.00141-.00013.00213-.00019h0Z" style="fill: #f9b860; stroke-width: 0px;"/>
        <polygon points="89.92024 32.34087 89.92046 32.34084 89.91783 32.34105 89.91907 32.34096 89.92024 32.34087" style="fill: #f9b860; stroke-width: 0px;"/>
        <path d="m89.06429,32.46755c.01012-.00227.02027-.00458.03047-.00668.00003,0,.00003-.00001.00005-.00001,0,0,0-.00001.00003-.00001-.01023.00211-.02035.00452-.03055.00671Z" style="fill: #f9b860; stroke-width: 0px;"/>
        <path d="m89.24061,32.43289c.00805-.00154.0161-.00306.02415-.00464-.01304.00251-.02614.00497-.03919.00751.00502-.00096.01004-.00191.01504-.00287Z" style="fill: #f9b860; stroke-width: 0px;"/>
        <path d="m83.72536,34.93651c.1314-.07043.26272-.141.39335-.21336.17159-.09503.34268-.1914.51359-.28814.33006-.18684.6596-.37494.99094-.55811-.63362.35018-1.26062.71807-1.89787,1.05961Z" style="fill: #f9b860; stroke-width: 0px;"/>
        <polygon points="88.70346 32.55202 88.70357 32.55199 88.70354 32.55199 88.70346 32.55202" style="fill: #f9b860; stroke-width: 0px;"/>
        <polygon points="89.69578 32.36338 89.69671 32.36326 89.69668 32.36326 89.69578 32.36338" style="fill: #f9b860; stroke-width: 0px;"/>
        <polygon points="89.69668 32.36326 89.69671 32.36326 89.69679 32.36325 89.69668 32.36326" style="fill: #f9b860; stroke-width: 0px;"/>
        <polygon points="88.70354 32.55199 88.70357 32.55199 88.71239 32.54981 88.70354 32.55199" style="fill: #f9b860; stroke-width: 0px;"/>
        <path d="m89.09484,32.46084s.00005,0,.00008-.00001c.00321-.00066.00648-.00124.0097-.00186.00709-.00139.01421-.00276.02136-.0041-.01039.00197-.0208.00385-.03114.00598Z" style="fill: #f9b860; stroke-width: 0px;"/>
        <polygon points="89.09482 32.46085 89.09492 32.46083 89.09484 32.46084 89.09482 32.46085" style="fill: #f9b860; stroke-width: 0px;"/>
        <path d="m79.46526,36.28938c.00481-.00009.00954-.00003.01435-.00012.07255-.00137.14551-.00436.21891-.00927-.07827.00527-.15592.00794-.23326.00939Z" style="fill: #f9b860; stroke-width: 0px;"/>
        <polygon points="79.69851 36.27999 79.70003 36.27994 79.70027 36.27993 79.69851 36.27999" style="fill: #f9b860; stroke-width: 0px;"/>
        <path d="m79.4796,36.28926c.07309-.00138.14649-.00433.22042-.00932-.0005.00003-.00101.00003-.00151.00005-.0734.00491-.14636.0079-.21891.00927Z" style="fill: #f9b860; stroke-width: 0px;"/>
        <path d="m81.01992,36.06055c.03029-.0077.06092-.01461.09104-.02277.01326-.00359.02617-.00802.0394-.01168-.0433.01196-.08687.02318-.13044.03444Z" style="fill: #f9b860; stroke-width: 0px;"/>
        <path d="m78.70912,36.27829c.02465.00138.04917.00339.07388.00452.06979.00317.13985.00526.21006.00664-.09508-.00186-.18966-.00592-.28395-.01116Z" style="fill: #f9b860; stroke-width: 0px;"/>
        <path d="m90.00329,32.33396c-.00428.00035-.00855.00072-.01283.00106.00476-.0004.00951-.0008.01427-.00117.0025-.00021.00499-.00045.00754-.00064-.003.00025-.006.0005-.00898.00074Z" style="fill: #f9b860; stroke-width: 0px;"/>
        <polygon points="90.22167 32.32235 90.22225 32.32234 90.23336 32.32179 90.22167 32.32235" style="fill: #f9b860; stroke-width: 0px;"/>
        <path d="m90.10783,32.32795c.03815-.00202.07635-.00425.11442-.00562-.00019.00001-.0004.00001-.00058.00001-.03788.00138-.07587.00367-.11384.00561Z" style="fill: #f9b860; stroke-width: 0px;"/>
        <path d="m82.83495,35.38764c.05672-.0267.11333-.05361.16979-.08104-.01411.00685-.02832.01346-.04245.02026-.0424.02039-.08483.04074-.12733.06078Z" style="fill: #f9b860; stroke-width: 0px;"/>
        <polygon points="82.83445 35.38788 82.83495 35.38764 82.83482 35.3877 82.83445 35.38788" style="fill: #f9b860; stroke-width: 0px;"/>
        <polygon points="83.27564 35.17192 83.27575 35.17187 83.27575 35.17187 83.27564 35.17192" style="fill: #f9b860; stroke-width: 0px;"/>
        <path d="m83.18452,35.21759c.01129-.00561.02258-.01118.03385-.01682.00425-.00213.00847-.00422.0127-.00632-.01549.00778-.031.01546-.04654.02314Z" style="fill: #f9b860; stroke-width: 0px;"/>
        <path d="m83.48499,35.06433c-.06945.03621-.1391.07193-.20887.10734.00032-.00016.00064-.00031.00093-.00046.06947-.03525.13881-.07083.20794-.10688Z" style="fill: #f9b860; stroke-width: 0px;"/>
        <polygon points="83.2758 35.17183 83.27575 35.17186 83.27575 35.17187 83.2758 35.17183" style="fill: #f9b860; stroke-width: 0px;"/>
        <polygon points="83.27575 35.17186 83.27564 35.17192 83.27575 35.17187 83.27575 35.17186" style="fill: #f9b860; stroke-width: 0px;"/>
        <path d="m89.92263,32.34067c.0101-.00089.02027-.00162.03039-.00252.00438-.00039.00882-.00073.0132-.0011-.01451.00128-.02909.00234-.0436.00363Z" style="fill: #f9b860; stroke-width: 0px;"/>
        <path d="m89.96692,32.33699c-.00098.00008-.00194.00016-.0029.00024.01352-.00122.0271-.0023.0407-.00337-.00476.00037-.00951.00077-.01427.00117-.00784.00065-.0157.0013-.02354.00197Z" style="fill: #f9b860; stroke-width: 0px;"/>
        <path d="m90.00473,32.33385c.00547-.00045.01092-.00098.01642-.00137-.00298.00025-.00592.00049-.00887.00073-.00255.00019-.00505.00043-.00754.00064Z" style="fill: #f9b860; stroke-width: 0px;"/>
        <path d="m82.83309,35.38852c-.00566.00268-.01137.00535-.017.00805.00563-.00268.01126-.00534.0169-.008l.00011-.00005Z" style="fill: #f9b860; stroke-width: 0px;"/>
        <polygon points="82.83349 35.38833 82.83309 35.38852 82.83299 35.38857 82.83349 35.38833" style="fill: #f9b860; stroke-width: 0px;"/>
        <polygon points="82.83378 35.3882 82.83373 35.38823 82.83434 35.38794 82.83445 35.38788 82.83378 35.3882" style="fill: #f9b860; stroke-width: 0px;"/>
        <polygon points="82.83378 35.3882 82.83363 35.38827 82.83373 35.38823 82.83378 35.3882" style="fill: #f9b860; stroke-width: 0px;"/>
        <polygon points="82.83355 35.38831 82.83309 35.38852 82.83349 35.38833 82.83355 35.38831" style="fill: #f9b860; stroke-width: 0px;"/>
        <polygon points="82.83434 35.38794 82.83495 35.38764 82.83445 35.38788 82.83434 35.38794" style="fill: #f9b860; stroke-width: 0px;"/>
        <path d="m83.24602,35.18695c.00146-.00076.00295-.0015.00444-.00224.0084-.00426.01679-.00851.02519-.01278-.00988.00502-.01974.01002-.02962.01502Z" style="fill: #f9b860; stroke-width: 0px;"/>
        <polygon points="83.23893 35.19055 83.25046 35.1847 83.24602 35.18695 83.23893 35.19055" style="fill: #f9b860; stroke-width: 0px;"/>
        <path d="m89.51351,32.38754c.01772-.00236.03549-.00465.05319-.00707-.01528.00209-.03058.00409-.04591.0061-.00242.00032-.00486.00064-.00728.00097Z" style="fill: #f9b860; stroke-width: 0px;"/>
        <path d="m89.6622,32.36783c.01087-.00138.02165-.00302.03254-.0043.00035-.00005.00069-.00011.00104-.00015-.01124.00132-.0224.00294-.03358.00445Z" style="fill: #f9b860; stroke-width: 0px;"/>
        <path d="m88.32024,32.6607c.12667-.03887.25432-.07524.38309-.10863-.00016.00003-.00027.00007-.00043.00011-.12864.03334-.25616.06968-.38267.10853Z" style="fill: #f9b860; stroke-width: 0px;"/>
        <path d="m90.00329,32.33396c-.01004.00078-.02006.00167-.0301.0025.00576-.0005.01153-.00093.01727-.00143.00428-.00035.00855-.00072.01283-.00106Z" style="fill: #f9b860; stroke-width: 0px;"/>
        <path d="m89.99046,32.33502c-.00574.0005-.0115.00093-.01727.00143-.0021.00019-.00417.00035-.00627.00053.00784-.00066.0157-.00132.02354-.00197Z" style="fill: #f9b860; stroke-width: 0px;"/>
        <path d="m89.96623,32.33704c-.00438.00037-.00882.00072-.0132.0011l.011-.00092c.00096-.00008.00191-.00016.0029-.00024-.00024.00001-.00045.00003-.00069.00005Z" style="fill: #f9b860; stroke-width: 0px;"/>
        <polygon points="89.97319 32.33646 89.96623 32.33704 89.96692 32.33699 89.97319 32.33646" style="fill: #f9b860; stroke-width: 0px;"/>
        <path d="m90.03042,32.33178c.02585-.00169.05162-.00251.07742-.00383-.02181.00114-.04354.00183-.06538.00321-.00404.00025-.00802.00037-.01203.00061Z" style="fill: #f9b860; stroke-width: 0px;"/>
        <path d="m90.04245,32.33117c.02184-.00138.04357-.00207.06538-.00321.03796-.00194.07595-.00422.11384-.00561-.05967.00218-.11939.00507-.17922.00882Z" style="fill: #f9b860; stroke-width: 0px;"/>
        <polygon points="90.02627 32.33206 90.02864 32.33186 90.03042 32.33178 90.02861 32.33186 90.02627 32.33206" style="fill: #f9b860; stroke-width: 0px;"/>
        <path d="m90.02173,32.33243c.00228-.00017.00457-.00041.00688-.00057-.0085.00056-.01687.00145-.02532.0021.00298-.00024.00598-.00049.00898-.00074.00316-.00024.00627-.00056.00946-.00078Z" style="fill: #f9b860; stroke-width: 0px;"/>
        <polygon points="90.01227 32.33322 90.02114 32.33248 90.02173 32.33243 90.01227 32.33322" style="fill: #f9b860; stroke-width: 0px;"/>
        <polygon points="90.02114 32.33248 90.02627 32.33206 90.02173 32.33243 90.02114 32.33248" style="fill: #f9b860; stroke-width: 0px;"/>
        <polygon points="90.02173 32.33243 90.02627 32.33206 90.02861 32.33186 90.02173 32.33243" style="fill: #f9b860; stroke-width: 0px;"/>
        <path d="m90.02861,32.33186c.00061-.00004.0012-.00005.00181-.00008.00401-.00024.008-.00036.01203-.00061-.00462.00029-.00922.00039-.01384.00069Z" style="fill: #f9b860; stroke-width: 0px;"/>
        <polygon points="83.27508 35.17221 83.27575 35.17187 83.27564 35.17192 83.27508 35.17221" style="fill: #f9b860; stroke-width: 0px;"/>
        <path d="m83.25046,35.1847c.00821-.00417.01642-.00833.02463-.01249.00019-.00011.00035-.00019.00056-.00029-.0084.00426-.01679.00851-.02519.01278Z" style="fill: #f9b860; stroke-width: 0px;"/>
        <path d="m88.71247,32.5498c.0077-.0019.01544-.00373.02314-.0057-.00058.00013-.00114.00027-.00173.00043-.00715.00175-.01427.00351-.02141.00527Z" style="fill: #f9b860; stroke-width: 0px;"/>
        <path d="m88.73561,32.5441c.04511-.01152.09038-.02261.13573-.03343-.01459.00349-.02909.00716-.04365.01075-.03068.00754-.06148.01488-.09208.02269Z" style="fill: #f9b860; stroke-width: 0px;"/>
        <path d="m89.73489,32.35937c.01328-.00129.02654-.00267.03977-.00405-.0098.00104-.01963.00205-.02949.003-.00343.00035-.00685.00072-.01028.00105Z" style="fill: #f9b860; stroke-width: 0px;"/>
        <path d="m83.56822,35.02102c.01126-.00587.02258-.01166.03382-.01761-.00576.00304-.01156.00599-.01732.00901-.0055.00286-.011.00571-.0165.00861Z" style="fill: #f9b860; stroke-width: 0px;"/>
        <path d="m82.83482,35.3877c.00005-.00001.00008-.00003.00013-.00005.04251-.02004.08493-.04039.12733-.06078-.04243.0204-.08491.04078-.12747.06084Z" style="fill: #f9b860; stroke-width: 0px;"/>
        <path d="m83.14406,35.2377c.00638-.00319.01275-.00635.01915-.00952-.00523.00259-.01047.00519-.01567.00778-.00117.00057-.00234.00116-.00348.00174Z" style="fill: #f9b860; stroke-width: 0px;"/>
        <path d="m83.14754,35.23596c.00521-.00259.01044-.00519.01567-.00778.00709-.00352.01419-.00707.02131-.01059-.01233.00611-.02465.01225-.03698.01837Z" style="fill: #f9b860; stroke-width: 0px;"/>
        <path d="m83.16321,35.22818c.01838-.00913.03677-.01821.05515-.0274-.01126.00563-.02256.01121-.03385.01682-.00712.00352-.01421.00707-.02131.01059Z" style="fill: #f9b860; stroke-width: 0px;"/>
        <polygon points="83.23749 35.19126 83.23845 35.19078 83.23106 35.19445 83.23749 35.19126" style="fill: #f9b860; stroke-width: 0px;"/>
        <path d="m83.21836,35.20077c.00638-.00319.01275-.00632.01913-.00951-.00213.00108-.00428.00213-.00643.00319-.00422.0021-.00845.0042-.0127.00632Z" style="fill: #f9b860; stroke-width: 0px;"/>
        <path d="m83.10471,35.25724c.01312-.00647.02619-.01303.03935-.01954-.00821.00408-.01642.00816-.02463.01222-.00491.00243-.00983.00489-.01472.00732Z" style="fill: #f9b860; stroke-width: 0px;"/>
        <path d="m83.11943,35.24992c.00821-.00406.01642-.00814.02463-.01222.00114-.00058.00231-.00117.00348-.00174-.00938.00465-.01873.00932-.02811.01396Z" style="fill: #f9b860; stroke-width: 0px;"/>
        <path d="m89.92184,32.34073c.00045-.00003.0009-.00007.00138-.00011.00991-.00088.01987-.00167.02981-.00248-.01012.0009-.0203.00163-.03039.00252-.00027.00001-.00053.00004-.0008.00007Z" style="fill: #f9b860; stroke-width: 0px;"/>
        <polygon points="89.92128 32.34079 89.92123 32.34079 89.92322 32.34063 89.92184 32.34073 89.92128 32.34079" style="fill: #f9b860; stroke-width: 0px;"/>
        <polygon points="89.92263 32.34067 89.92162 32.34075 89.92184 32.34073 89.92263 32.34067" style="fill: #f9b860; stroke-width: 0px;"/>
        <polygon points="89.92184 32.34073 89.92162 32.34075 89.92128 32.34079 89.92184 32.34073" style="fill: #f9b860; stroke-width: 0px;"/>
        <polygon points="89.92093 32.34081 89.92123 32.34079 89.92104 32.3408 89.92093 32.34081" style="fill: #f9b860; stroke-width: 0px;"/>
        <polygon points="89.92104 32.3408 89.92123 32.34079 89.92128 32.34079 89.92104 32.3408" style="fill: #f9b860; stroke-width: 0px;"/>
        <polygon points="89.92077 32.34081 89.92051 32.34084 89.92054 32.34084 89.92077 32.34081" style="fill: #f9b860; stroke-width: 0px;"/>
        <polygon points="89.92024 32.34087 89.91921 32.34095 89.92048 32.34084 89.92046 32.34084 89.92024 32.34087" style="fill: #f9b860; stroke-width: 0px;"/>
        <polygon points="89.91907 32.34096 89.91921 32.34095 89.92024 32.34087 89.91907 32.34096" style="fill: #f9b860; stroke-width: 0px;"/>
        <polygon points="89.91783 32.34105 89.91777 32.34107 89.91907 32.34096 89.91783 32.34105" style="fill: #f9b860; stroke-width: 0px;"/>
        <polygon points="89.91777 32.34107 89.91921 32.34095 89.91907 32.34096 89.91777 32.34107" style="fill: #f9b860; stroke-width: 0px;"/>
        <polygon points="89.92088 32.34081 89.92093 32.34081 89.92104 32.3408 89.92088 32.34081" style="fill: #f9b860; stroke-width: 0px;"/>
        <polygon points="89.91769 32.34108 89.91777 32.34107 89.91783 32.34105 89.91769 32.34108" style="fill: #f9b860; stroke-width: 0px;"/>
        <polygon points="89.91764 32.34108 89.91777 32.34107 89.91767 32.34108 89.91764 32.34108" style="fill: #f9b860; stroke-width: 0px;"/>
        <polygon points="89.91767 32.34108 89.91777 32.34107 89.91772 32.34108 89.91767 32.34108" style="fill: #f9b860; stroke-width: 0px;"/>
        <polygon points="89.78135 32.35463 89.77917 32.35485 89.78475 32.35428 89.78499 32.35426 89.78135 32.35463" style="fill: #f9b860; stroke-width: 0px;"/>
        <polygon points="89.78597 32.35415 89.78135 32.35463 89.78499 32.35426 89.78597 32.35415" style="fill: #f9b860; stroke-width: 0px;"/>
        <polygon points="89.77917 32.35485 89.78135 32.35463 89.77745 32.35503 89.77782 32.355 89.77917 32.35485" style="fill: #f9b860; stroke-width: 0px;"/>
        <polygon points="89.9022 32.34237 89.89894 32.34265 89.90223 32.34237 89.9022 32.34237" style="fill: #f9b860; stroke-width: 0px;"/>
        <polygon points="89.90345 32.34226 89.9022 32.34237 89.90223 32.34237 89.90345 32.34226" style="fill: #f9b860; stroke-width: 0px;"/>
        <path d="m83.48499,35.06433c.02774-.01448.05547-.02886.08323-.0433.0055-.0029.011-.00575.0165-.00861-.03321.0174-.0665.03456-.09973.05191Z" style="fill: #f9b860; stroke-width: 0px;"/>
        <path d="m91.83236,32.44502c.05523.00984.1103.02058.16535.03143.09585.0189.19173.03774.28703.05952-.25815-.05903-.51837-.10787-.7805-.14426.1098.01525.21904.03386.32813.05331Z" style="fill: #f9b860; stroke-width: 0px;"/>
        <path d="m91.03947,32.34243c.03834.00313.07675.00582.11506.00944-.01501-.00142-.02991-.00379-.04495-.00511-.0233-.00206-.04681-.0025-.07011-.00433Z" style="fill: #f9b860; stroke-width: 0px;"/>
        <path d="m89.03892,32.47312c.00627-.00135.01254-.00272.01878-.00412.00221-.00048.00438-.00098.00659-.00145-.00845.00189-.01692.00372-.02537.00557Z" style="fill: #f9b860; stroke-width: 0px;"/>
        <path d="m89.06429,32.46755c-.00221.00046-.00438.00097-.00659.00145.01235-.00276.02468-.00558.03709-.00813h-.00003c-.0102.0021-.02035.00441-.03047.00668Z" style="fill: #f9b860; stroke-width: 0px;"/>
        <path d="m89.15509,32.44929c.02845-.00563.05701-.01095.08552-.01639-.00499.00096-.01002.00191-.01504.00287-.02348.00456-.04705.0089-.07048.01352Z" style="fill: #f9b860; stroke-width: 0px;"/>
        <path d="m89.1633,32.4477c-.00274.00054-.00547.00102-.00821.00158.02343-.00462.047-.00897.07048-.01352-.02072.00404-.04155.00786-.06227.01194Z" style="fill: #f9b860; stroke-width: 0px;"/>
        <path d="m88.82769,32.52141c.01456-.00359.02906-.00725.04365-.01075.00909-.00217.01804-.00456.02712-.00668-.0237.00553-.04718.01164-.07077.01743Z" style="fill: #f9b860; stroke-width: 0px;"/>
        <path d="m88.74169,32.54259c-.00202.00053-.00406.00098-.00608.00151.0306-.00781.0614-.01514.09208-.02269-.02867.00707-.05741.01392-.086.02117Z" style="fill: #f9b860; stroke-width: 0px;"/>
        <polygon points="89.78805 32.35394 89.78597 32.35415 89.78768 32.35399 89.78805 32.35394" style="fill: #f9b860; stroke-width: 0px;"/>
        <polygon points="89.78475 32.35428 89.78736 32.35402 89.78499 32.35426 89.78475 32.35428" style="fill: #f9b860; stroke-width: 0px;"/>
        <polygon points="89.78597 32.35415 89.78499 32.35426 89.78736 32.35402 89.78768 32.35399 89.78597 32.35415" style="fill: #f9b860; stroke-width: 0px;"/>
        <polygon points="89.77806 32.35497 89.78475 32.35428 89.77917 32.35485 89.77806 32.35497" style="fill: #f9b860; stroke-width: 0px;"/>
        <polygon points="89.77782 32.355 89.77806 32.35497 89.77917 32.35485 89.77782 32.355" style="fill: #f9b860; stroke-width: 0px;"/>
        <polygon points="89.77745 32.35503 89.77723 32.35505 89.77726 32.35505 89.77782 32.355 89.77745 32.35503" style="fill: #f9b860; stroke-width: 0px;"/>
        <polygon points="89.77745 32.35503 89.77721 32.35505 89.77723 32.35505 89.77745 32.35503" style="fill: #f9b860; stroke-width: 0px;"/>
        <polygon points="89.77726 32.35505 89.77806 32.35497 89.77782 32.355 89.77726 32.35505" style="fill: #f9b860; stroke-width: 0px;"/>
        <polygon points="89.78967 32.35378 89.78956 32.35378 89.79073 32.35367 89.79123 32.35362 89.78967 32.35378" style="fill: #f9b860; stroke-width: 0px;"/>
        <polygon points="89.79073 32.35367 89.79166 32.35358 89.79123 32.35362 89.79073 32.35367" style="fill: #f9b860; stroke-width: 0px;"/>
        <polygon points="89.7919 32.35355 89.79251 32.35349 89.78967 32.35378 89.79123 32.35362 89.7919 32.35355" style="fill: #f9b860; stroke-width: 0px;"/>
        <polygon points="89.78967 32.35378 89.78935 32.3538 89.78956 32.35378 89.78967 32.35378" style="fill: #f9b860; stroke-width: 0px;"/>
        <polygon points="89.79123 32.35362 89.79166 32.35358 89.7919 32.35355 89.79123 32.35362" style="fill: #f9b860; stroke-width: 0px;"/>
        <polygon points="89.79756 32.35298 89.79251 32.35349 89.7919 32.35355 89.79756 32.35298" style="fill: #f9b860; stroke-width: 0px;"/>
        <path d="m89.89894,32.34265c-.03568.00307-.07104.00705-.10643.01084.00167-.00019.00337-.00033.00505-.0005.03374-.00363.0674-.00741.10138-.01033Z" style="fill: #f9b860; stroke-width: 0px;"/>
        <polygon points="89.7919 32.35355 89.79166 32.35358 89.79934 32.35279 89.79756 32.35298 89.7919 32.35355" style="fill: #f9b860; stroke-width: 0px;"/>
        <path d="m89.79756,32.35298c.00058-.00007.00117-.00012.00178-.00019.03313-.00357.0662-.00725.0996-.01015-.03398.00292-.06764.00671-.10138.01033Z" style="fill: #f9b860; stroke-width: 0px;"/>
        <polygon points="89.78927 32.3538 89.789 32.35384 89.79073 32.35367 89.78956 32.35378 89.78927 32.3538" style="fill: #f9b860; stroke-width: 0px;"/>
        <polygon points="89.78956 32.35378 89.78935 32.3538 89.78927 32.3538 89.78956 32.35378" style="fill: #f9b860; stroke-width: 0px;"/>
        <polygon points="89.78805 32.35394 89.78768 32.35399 89.789 32.35384 89.78927 32.3538 89.78805 32.35394" style="fill: #f9b860; stroke-width: 0px;"/>
        <polygon points="89.78736 32.35402 89.789 32.35384 89.78768 32.35399 89.78736 32.35402" style="fill: #f9b860; stroke-width: 0px;"/>
        <polygon points="89.78935 32.3538 89.78805 32.35394 89.78927 32.3538 89.78935 32.3538" style="fill: #f9b860; stroke-width: 0px;"/>
        <polygon points="89.7771 32.35507 89.77466 32.35532 89.77726 32.35505 89.77723 32.35505 89.7771 32.35507" style="fill: #f9b860; stroke-width: 0px;"/>
        <polygon points="89.77723 32.35505 89.77721 32.35505 89.7771 32.35507 89.77723 32.35505" style="fill: #f9b860; stroke-width: 0px;"/>
        <polygon points="89.77721 32.35505 89.77612 32.35516 89.7771 32.35507 89.77721 32.35505" style="fill: #f9b860; stroke-width: 0px;"/>
        <path d="m86.6981,33.31395c.26288-.12775.5286-.24811.7983-.35795-.26971.10984-.53543.23019-.7983.35795Z" style="fill: #f9b860; stroke-width: 0px;"/>
        <polygon points="88.7029 32.55218 88.70333 32.55207 88.70346 32.55202 88.7029 32.55218" style="fill: #f9b860; stroke-width: 0px;"/>
        <polygon points="88.70333 32.55207 88.70357 32.55199 88.70346 32.55202 88.70333 32.55207" style="fill: #f9b860; stroke-width: 0px;"/>
        <path d="m83.60204,35.00341c.17298-.0915.34508-.18521.51667-.28025-.13063.07235-.26195.14293-.39335.21336-.04118.02208-.08204.04506-.12332.06689Z" style="fill: #f9b860; stroke-width: 0px;"/>
        <path d="m83.60201,35.00341c-.00576.00304-.0115.00603-.01729.00901.00576-.00302.01156-.00596.01732-.00901.04128-.02184.08214-.04482.12332-.06689-.04118.02208-.08204.04506-.12335.06689Z" style="fill: #f9b860; stroke-width: 0px;"/>
        <path d="m83.60201,35.00341c-.03889.02059-.07803.04058-.11703.06092.03323-.01735.06652-.03451.09973-.05191.00579-.00298.01153-.00596.01729-.00901Z" style="fill: #f9b860; stroke-width: 0px;"/>
        <path d="m88.5477,32.59434c-.01243.00348-.02497.00664-.03738.01016-.06363.01808-.12699.03683-.19008.0562.12651-.03884.25403-.07518.38267-.10853-.05196.01348-.10361.02775-.1552.04216Z" style="fill: #f9b860; stroke-width: 0px;"/>
        <polygon points="89.69474 32.36353 89.69671 32.36326 89.69578 32.36338 89.69474 32.36353" style="fill: #f9b860; stroke-width: 0px;"/>
        <path d="m89.57116,32.37987c-.00149.00021-.00298.0004-.00446.00061.02797-.00384.05606-.00747.08408-.01113-.02654.00344-.05313.00691-.07962.01052Z" style="fill: #f9b860; stroke-width: 0px;"/>
        <polygon points="89.65078 32.36935 89.65662 32.36858 89.6622 32.36783 89.65078 32.36935" style="fill: #f9b860; stroke-width: 0px;"/>
        <path d="m89.65662,32.36858c.01273-.00166.02534-.00355.03812-.00505-.01089.00129-.02168.00292-.03254.0043-.00186.00027-.00372.0005-.00558.00074Z" style="fill: #f9b860; stroke-width: 0px;"/>
        <path d="m89.56669,32.38048c.02994-.00412.05993-.00801.08993-.0119-.00194.00025-.00391.00052-.00584.00077-.02803.00367-.05611.00729-.08408.01113Z" style="fill: #f9b860; stroke-width: 0px;"/>
        <path d="m89.69679,32.36325c.01262-.00147.02537-.00264.0381-.00388.00343-.00033.00685-.0007.01028-.00105-.01615.00157-.03236.00306-.04838.00493Z" style="fill: #f9b860; stroke-width: 0px;"/>
        <path d="m89.74517,32.35832c.00986-.00096.01969-.00197.02949-.003.00048-.00005.00098-.00011.00146-.00016-.01031.00109-.02062.00213-.03095.00316Z" style="fill: #f9b860; stroke-width: 0px;"/>
        <polygon points="89.77612 32.35516 89.77466 32.35532 89.7771 32.35507 89.77612 32.35516" style="fill: #f9b860; stroke-width: 0px;"/>
        <path d="m88.71239,32.54981s.00005,0,.00008-.00001c.00715-.00177.01427-.00352.02141-.00527-.00717.00178-.01432.00353-.02149.00529Z" style="fill: #f9b860; stroke-width: 0px;"/>
        <polygon points="88.70357 32.55199 88.71247 32.5498 88.71239 32.54981 88.70357 32.55199" style="fill: #f9b860; stroke-width: 0px;"/>
        <polygon points="88.73388 32.54453 88.73561 32.5441 88.74169 32.54259 88.73388 32.54453" style="fill: #f9b860; stroke-width: 0px;"/>
        <path d="m89.10462,32.45897c.01679-.00331.03369-.00638.05048-.00968-.0097.00191-.01939.00377-.02912.00558-.00715.00134-.01427.00271-.02136.0041Z" style="fill: #f9b860; stroke-width: 0px;"/>
        <path d="m89.12598,32.45486c.00972-.00181.01942-.00367.02912-.00558.00274-.00056.00547-.00104.00821-.00158-.01243.00243-.02487.00482-.03733.00716Z" style="fill: #f9b860; stroke-width: 0px;"/>
        <polygon points="89.09479 32.46087 89.09482 32.46085 89.09476 32.46087 89.09479 32.46087" style="fill: #f9b860; stroke-width: 0px;"/>
        <polygon points="89.50928 32.3881 89.51351 32.38754 89.52079 32.38657 89.50928 32.3881" style="fill: #f9b860; stroke-width: 0px;"/>
        <path d="m89.52079,32.38657c.01533-.00201.03063-.00401.04591-.0061.00149-.00021.00298-.0004.00446-.00061-.01676.00228-.03355.00449-.05037.00671Z" style="fill: #f9b860; stroke-width: 0px;"/>
        <path d="m81.15038,36.02611c.11618-.03208.23174-.06577.34614-.10253.12741-.04094.25374-.08465.37913-.13084-.23796.08764-.47969.16559-.7253.23338h.00003Z" style="fill: #f9b860; stroke-width: 0px;"/>
        <path d="m81.11096,36.03778c.01326-.00359.02619-.00802.03943-.01168h-.00003c-.01323.00365-.02614.00809-.0394.01168Z" style="fill: #f9b860; stroke-width: 0px;"/>
        <polygon points="78.99306 36.28945 78.99309 36.28946 78.99739 36.2896 78.99744 36.2896 78.99306 36.28945" style="fill: #f9b860; stroke-width: 0px;"/>
        <path d="m78.783,36.28281c.0704.0032.14104.00534.21184.00672-.00058-.00001-.00117-.00005-.00175-.00007-.07024-.00139-.1403-.00348-.21009-.00665Z" style="fill: #f9b860; stroke-width: 0px;"/>
        <path d="m79.0034,36.28976c.07261.00134.14543.00185.21843.00161-.07314.00023-.14609-.00027-.21886-.00162.00016,0,.00029.00001.00043.00001Z" style="fill: #f9b860; stroke-width: 0px;"/>
        <polygon points="78.99484 36.28953 78.99739 36.2896 78.99309 36.28946 78.99484 36.28953" style="fill: #f9b860; stroke-width: 0px;"/>
        <path d="m78.99306,36.28945c-.07022-.00138-.14027-.00347-.21006-.00664.06979.00317.13985.00526.21009.00665h-.00003Z" style="fill: #f9b860; stroke-width: 0px;"/>
        <g>
          <path d="m63.56202,34.40669l-.00061.00236h.03815c-.0165-.00142-.02867-.00213-.03754-.00236Z" style="fill: #fff; stroke-width: 0px;"/>
          <polygon points="82.83355 35.38831 82.83349 35.38833 82.83299 35.38857 82.83277 35.38868 82.83368 35.38825 82.83355 35.38831" style="fill: #fff; stroke-width: 0px;"/>
          <path d="m6.02301,33.97496h-.00003c-.00011-.00001-.00021-.00001-.00032-.00003l.00003.00005c-.12627-.00777-.25276-.00847-.37881-.02149-.12539-.01296-.25066-.02938-.37587-.04755.02362.07577.04229.15738.06639.23257.00101.00317.00191.00648.00295.00966.00008.00025.00016.00052.00024.00076.00003.00011.00005.00019.00008.00028.00011.00036.00021.00074.00032.0011.2323-.04957.45966-.11001.68476-.17525.00005,0,.00008-.00007.00016-.00007h.00003c.00106.00007.0021.00005.00313.00012-.00101-.00007-.00205-.00009-.00306-.00015Z" style="fill: #fff; stroke-width: 0px;"/>
          <path d="m10.6254,30.1451c.0085.00011.017.00011.0255.00011,1.51287,0,3.86981-.9543,5.09895-1.50249.48646-.21696.79663-.37043.80736-.37577l.01041-.00489c.02399-.01041.14197-.06121.3286-.13771-.64884.00862-1.13472-.03257-1.13472-.03257,0,0,.60856-.74255,1.0326-3.42555.42395-2.68297-1.08637-4.35891-1.08637-4.35891,0,0,3.56416,3.52388,4.39902,5.88285.11671.32975.11301.60293.02426.83103.70598-.18451,1.41447-.32175,2.01795-.34508,1.74206-.06866,3.69931.61352,4.88958,1.17914.02038.00967.0402.01926.06009.02888.2951.14234.54063.2764.71882.38769.86209.53845,2.64333,1.24137,2.9857,1.37454.08597-.95404.1302-1.97444.1302-3.03931,0-5.19369-1.08801-8.62762-3.41504-10.73615,0,0-.22784-.22268-.41967-.41479-.02064-.02067-.04062-.04075-.06009-.06039-.02263-.02282-.04455-.04499-.06464-.06551l-.30637-.27203c-2.18591-1.68531-5.05395-2.3039-9.45214-2.3039-7.70796,0-11.95146,3.5804-12.7046,11.30402-.08087.82961-.13379,1.69242-.13379,2.61867,0,.66987.01668,1.31234.04758,1.93326,2.66677,1.29777,4.04327,1.51938,6.2008,1.53487Z" style="fill: #fff; stroke-width: 0px;"/>
          <path d="m28.01836,37.52223c.00935-.01089.01865-.02194.02797-.03289.0263-.03087.05284-.06134.07888-.09269.67809-.81732,1.23514-1.79465,1.65715-2.90596.00056-.00147.00112-.00296.00167-.00445.01416-.03733.02859-.07439.04245-.11203.47172-1.28131.87856-4.29903.87856-4.29903-.0865-.03316-2.13139-.81783-3.11819-1.43418-.12869-.08036-.29399-.17306-.48822-.2721-.01966-.01004-.03982-.02016-.06009-.03031-1.11057-.55652-3.10807-1.29385-4.87279-1.22762-.77237.02986-1.74729.26391-2.6572.54134,0,.00001-.00003.00001-.00003.00001-.00624.00331-.01331.00603-.01963.0093-.11626.0602-.24224.11352-.37666.15961-.14173.04862-.29197.08985-.44733.12469-.0474.01063-.09532.0206-.14354.03009-.96833.33845-1.70649.65349-1.77553.68316-.22274.11073-3.90265,1.9212-6.09525,1.9213-.00956,0-.01892,0-.02837-.00011-2.30663-.01658-3.74538-.26003-6.68567-1.72524l.00654-.01315c-.64257-.28894-1.28137-.58537-1.92457-.86225,0,0-2.94527-1.34066-1.72035-.72959.77705.38763,1.25246,2.46603,1.4969,3.9359-.0004.03852-.00484.08325-.00473.12093-.00021.00282-.00043.00604-.00066.00887l.00101.00186c.00167.41109.03409.77279.10943,1.0598.00638.02436.01307.04815.02008.07141.00741.02465.01522.04868.02338.07208l.00003.00003c.00768.02204.01544.04407.0233.06603.01108.03107.02234.06207.03374.09297.2082.56401.47012,1.10407.78699,1.62196.09601.00889.19232.01611.28883.02196-.09652-.00584-.19282-.01307-.28883-.02194.57804.94477,1.3391,1.81568,2.29111,2.62302.0284.02412.05048.05037.07925.07437.35716.29781.74087.58686,1.15193.86751.02635.01801.056.03501.0826.05293,1.0789.72753,2.34018,1.39927,3.80502,2.02015,1.36146.57707,2.63536.95331,3.83629,1.15483-.11859-.01676-.07014-.15223-.00361-.12741l.00361.12741.35435.05181c.83497.11667,2.30357.27156,3.06846.21647-.48697,0,1.1675-.05741,0,0,3.96684,0,7.21733-.82961,9.21095-2.47392l.30637-.25706c.02014-.02132.04203-.04445.06464-.0683.0195-.02059.03945-.04166.06009-.06341.1924-.20294.41967-.44183.41967-.44183.17151-.16892.3383-.34832.50004-.53633ZM1.94377,32.52115c.00048.00035.00096.00068.00146.001-.00048-.00036-.00098-.00068-.00146-.00102.00117.00085.00242.00161.00361.00246,0,.00004.00011.00011.00011.00011-.00074-.00054-.00151-.00105-.00226-.00154.15252.11016.30796.21608.46667.31685-.15921-.10109-.31516-.2073-.46813-.31784Zm9.9385-.97209c.00005-.00001.00008-.00003.00013-.00004-.00784.0025-.01578.00478-.02362.00733.00781-.00252.0157-.00481.02348-.00729Zm-.54494.18904c.10624-.03935.21325-.07704.32066-.11384.00255-.00088.0051-.00175.00765-.00266.00154-.00053.00311-.00109.00468-.00162-.00321.00109-.0064.00224-.00962.00335-.10834.03709-.21625.07509-.32337.11477-.00005.00003-.00008.00003-.00011.00004-.00789.00292-.01583.00567-.0237.00861.00789-.00295.01589-.00571.0238-.00865Zm-4.66761,2.02632c-.03549.01257-.0703.02667-.10595.03892-.02359.0081-.0475.01557-.07115.02354.0594-.02002.11809-.0416.17709-.06246Zm-.64679.21057c-.00005.00003-.00013.00003-.00019.00007-.2251.06526-.45246.1257-.68476.17525-.21001.04482-.42307.08307-.63986.1132.21678-.03013.42982-.06838.63986-.1132-.00013-.00045-.00027-.00092-.0004-.00135-.00003-.00012-.00008-.00024-.00011-.00035-.00109-.00329-.00202-.00677-.00308-.0101-.02412-.07518-.0428-.1568-.06642-.23257-.1208-.38762-.22893-.79005-.32443-1.20823.09551.41817.20369.82061.32446,1.20823.12521.01815.2505.03459.37587.04753.12606.013.25254.01371.37879.02147h0c.00011-.00001.00021.00003.00032.00003.00035-.00011.00069-.00021.00106-.00032.12866-.03733.25594-.07768.38261-.11931-.0373.01226-.07433.02509-.11182.03699-.09011.02864-.18071.05622-.27183.08264.00614.00037.01227.00045.01841.00069-.00513-.0002-.01025-.00025-.01536-.00054.22648.01387.45325.02222.68016.02414-.22797-.00193-.45575-.01025-.6833-.02426Zm.08384.00296h-.00011c-.00085-.00004-.0017-.00004-.00255-.00009.00088.00005.00175.00005.00266.00009Zm.98719-.36932c-.02495.00972-.0505.01815-.07553.02774.0513-.01966.10257-.03945.15366-.05964-.02619.01036-.05191.02169-.07813.03191Zm3.55452-1.59657c-.00011.00004-.00019.00009-.00029.00013-.01631.00689-.03241.01425-.04872.02119-.13823.05879-.27613.1183-.41317.17968-.00396.00177-.00792.00352-.01188.00527.00396-.00175.00789-.00348.01185-.00529.00032-.00013.00061-.00025.00093-.0004.13671-.06122.27433-.12061.41226-.17927.01626-.00692.03233-.01425.04859-.02113.00016-.00007.00029-.00012.00043-.00019.03876-.01638.07752-.0326.11639-.04874.00013-.00005.00024-.00009.00037-.00015.12755-.05297.256-.10413.38498-.15403.00027-.00009.0005-.0002.00077-.00031-.12935.05005-.25818.10135-.38609.15449-.03887.01611-.07765.03236-.11642.04874Zm.25228,1.62555c-.03661.00316-.07327.00812-.10988.0114.03661-.00328.07324-.00824.10985-.0114.38992-.03345.77963-.05725,1.1687-.06359-.38907.00634-.77875.03017-1.16867.06359Zm1.3036-2.18543c-.01461.0042-.02914.00855-.04373.01279.00013-.00004.00027-.00008.00037-.00012.01448-.0042.02888-.0085.04336-.01269.06841-.01977.13653-.04037.20557-.05875-.06902.01838-.13714.03899-.20557.05877Zm.20573-.05879c.11543-.03075.2327-.05737.35002-.08399-.11732.02658-.23456.05328-.35002.08399Zm1.12778-.22805c-.0288.00396-.05709.00906-.08547.01401-.00954.00166-.01918.00307-.02875.00472-.00887.00154-.0178.00292-.02673.00438-.01196.00197-.02388.00399-.03587.0059-.00104.00016-.00207.00037-.00311.00053-.0012.00019-.00236.00041-.00353.0006.00159-.00025.00316-.00053.00473-.00081.0009-.00015.00178-.00031.00266-.00045.01987-.00319.03977-.00635.05954-.00978.00226-.00039.00457-.00072.00683-.00112.03602-.00623.07189-.01275.10842-.01779.00061-.00009.00122-.0002.00183-.00029.00154-.00021.00308-.00052.00462-.00073-.00175.00024-.00345.00053-.00518.00082Zm2.61929.06387c-.07965-.01355-.15945-.02647-.23955-.03842-.00035-.00005-.00069-.00008-.00104-.00013-.02545-.00379-.05111-.00693-.07667-.01031-.04357-.00611-.08711-.01219-.13087-.01757-.01156-.00142-.02298-.00327-.03454-.00464-.00027-.00003-.00056-.00008-.00082-.00011-.00077-.00009-.00157-.00023-.00236-.00032-.00244-.00029-.00486-.00069-.00731-.00098-.00377-.00045-.0076-.00069-.01134-.00112-.11339-.01328-.22818-.02163-.34276-.03059-.00135-.00011-.00268-.0002-.00404-.00031l-.00749-.0006c-.00048-.00004-.00093-.00007-.00141-.00012-.00058-.00004-.00117-.00008-.00178-.00013-.00056-.00005-.00114-.00009-.00173-.00015-.00377-.00028-.00754-.0006-.01129-.00089-.00191-.00016-.0038-.00031-.00569-.00045-.05598-.00449-.1119-.00919-.16795-.01336,0-.00001-.00005-.00001-.00005-.00001-.05608-.00426-.1124-.00761-.16907-.00975-.00537-.0002-.01063-.00076-.01599-.00092-.00003-.00001-.00008-.00001-.00008-.00001h-.00008c-.00011-.00001-.00027-.00001-.00037-.00001-.01799-.00064-.03608-.00082-.05409-.00137.01812.00054.03632.00074.05441.00137.00003,0,.00005.00001.00011.00001h.00003s.00008.00001.00011.00001c.00537.00016.01063.00072.01597.00092.05669.00214.11301.00549.1691.00975.00571.00044.0114.00089.01708.00134.05032.00392.10056.00812.1509.01203.00537.00043.01076.00085.01615.00128.00066.00005.00133.00011.00202.00016.00077.00005.00154.00013.00234.00019.00287.00021.00574.00046.00861.00069.00143.00011.00287.00021.0043.00033.11838.00926.23705.01763.35411.03171.00106.00013.00213.00028.00319.00043.00157.00019.00311.00041.00462.00062.0009.00012.00178.00025.00268.00036.02917.00345.05802.00792.08709.01169.02614.0034.05218.00707.07832.01052.02585.00363.05191.0066.07771.01044.08294.01233.16559.02569.24805.03977-.00284-.00048-.00569-.00088-.0085-.00135Zm.1908.03409c.04051.0077.08071.01644.12112.02451-.03969-.00793-.0792-.01651-.11899-.02407-.00072-.00015-.00141-.00029-.00213-.00044Zm.59169.12826c-.05319-.01315-.10672-.02519-.16025-.03733-.0297-.00673-.0593-.01379-.08905-.02027-.00013-.00003-.00027-.00007-.0004-.00009-.00053-.00012-.00104-.00024-.00159-.00036-.06817-.01496-.13663-.02897-.20512-.04276.06852.01373.13692.02795.20515.04276l.00175.0004c.02986.00648.05951.01358.08926.02032.05481.01243.10967.02471.16416.03823.00027.00008.00056.00013.00082.0002-.00157-.00039-.00313-.0007-.00473-.0011Zm5.1592,2.04483c-.00175-.00076-.00351-.00153-.00526-.0023-.04445-.0193-.08852-.03941-.13291-.05886-.17542-.07686-.35063-.15422-.52536-.23263-.02035-.00914-.04067-.01825-.06102-.02736-.00816-.00367-.01631-.00731-.02447-.01097l-.00638-.00287c-.50434-.22673-1.00714-.45547-1.51178-.67498-.00542-.00236-.01081-.00478-.01623-.00715-.05951-.02585-.1191-.05122-.17869-.07678-.04336-.0186-.08666-.03749-.13007-.05587-.00048-.0002-.00096-.00041-.00143-.00061-.31466-.13334-.63037-.26227-.94848-.38187-.00013-.00005-.00027-.00011-.0004-.00015-.01366-.00514-.02731-.01021-.04097-.01534-.01196-.00449-.02391-.00901-.03589-.01344-.13629-.05057-.27297-.09968-.41019-.14674-.00964-.00331-.01929-.00668-.02893-.00998-.00181-.00061-.00364-.00117-.00545-.00179-.13076-.04451-.26219-.08673-.39398-.12755-.00005-.00001-.00013-.00004-.00021-.00007-.01041-.00321-.02083-.00635-.03124-.00955-.02455-.00753-.0491-.01516-.0737-.02254-.12898-.03884-.25841-.07598-.38851-.11076-.06727-.01799-.1344-.0365-.20201-.05332-.00016-.00004-.00029-.00008-.00043-.00012.0568.01412.11333.02918.16987.04414.01575.00417.03132.00889.04705.01311.0776.02084.15499.04237.23219.06469.02925.00846.05845.01702.08762.02568.01822.00539.03632.01118.05454.01667.02449.00737.04894.01493.07338.02245.01041.0032.02085.0064.0313.00956.02577.0078.05159.01553.07728.02363.02691.0085.0538.01715.08068.02582.08007.02581.16004.05215.23979.0793.00526.00181.01057.00348.01586.00529.01942.00664.03876.01352.05815.02024.08284.02865.16556.05781.24808.08778.02091.0076.04179.01533.0627.02301.03074.01129.06134.02306.09205.03448.01373.0051.02742.01028.04115.01541.04102.01537.08212.03041.12303.04609.01687.00646.03366.01303.0505.01953.08916.03443.17816.06931.267.10491.01196.00478.02386.00967.03579.01447.09359.03768.18708.07585.28041.11466.00576.00239.0115.00482.01727.00723.05863.02443.11687.05054.17542.07536.04365.01852.08719.03749.13079.05619.05914.02537.1183.05053.17736.07619.00138.00061.00279.00121.00417.00181.12226.05316.24433.10742.36643.16142.06897.0305.13801.06044.20695.09115.19107.08513.38203.17104.57299.25737.1272.0575.2544.11502.38182.17232.00927.00417.01854.00832.02782.01249.019.0085.03799.01702.05699.02553.17632.07916.35318.15725.53025.23484.07702.03373.15385.06788.23105.10113-.03124-.01344-.06251-.02679-.09373-.04034Zm3.35564,1.13505c-.03427-.00707-.06828-.01482-.10244-.02213-.045-.00959-.09011-.01884-.13488-.0291-.06862-.01577-.13679-.03288-.20504-.04977-.00927-.0023-.01852-.00476-.02782-.00707-.04495-.01121-.08985-.02254-.13464-.03423-.00149-.00039-.00298-.00074-.00446-.00113-.07654-.02003-.15302-.04028-.22908-.06179-.00279-.00078-.00558-.00153-.00837-.00226-.00093-.00027-.00186-.00052-.00282-.00077-.0025-.00068-.00502-.00135-.00752-.00205-.00035-.00011-.00069-.0002-.00104-.00029-.00643-.00177-.01286-.00351-.01929-.00525-.02157-.0058-.04304-.01184-.06456-.01773-.0068-.00189-.0136-.00383-.02043-.00569-.00648-.00178-.01296-.00351-.01939-.00539-.0009-.00027-.00178-.00056-.00268-.00082-.07938-.02348-.15852-.04767-.23743-.07251-.03714-.01169-.07404-.02399-.11108-.03597-.0297-.0096-.05938-.01922-.08905-.02886-.01294-.00421-.02593-.0083-.03884-.01259-.01291-.0043-.02577-.00879-.03863-.01319-.02333-.00797-.04668-.01593-.07-.02388-.04306-.01468-.08624-.02913-.12919-.04417-.0348-.01219-.0695-.02484-.10425-.03725-.0178-.00638-.0356-.01282-.05345-.01917-.02646-.00943-.05292-.0188-.07933-.02844-.02465-.00902-.04923-.01828-.07383-.0275-.00802-.003-.01607-.00599-.0241-.00898-.04617-.01716-.09235-.0342-.13839-.05171-.03007-.01144-.06004-.02321-.09009-.03479-.00842-.00324-.01682-.00654-.02524-.00978-.04025-.01551-.0805-.03099-.12064-.04678-.02697-.01063-.0538-.02148-.08071-.0322-.01575-.00627-.03148-.01262-.04721-.01889-.03589-.01431-.07181-.02857-.10762-.04309-.02274-.00925-.0454-.01865-.06812-.02795l-.00135-.00056c-.05568-.02277-.11134-.04559-.16689-.06873-.01761-.00733-.03517-.01478-.05276-.02216-.06145-.02573-.12284-.05157-.18413-.07768-.01103-.00468-.022-.00943-.033-.01413-.02423-.01036-.0484-.02087-.07263-.03127.16973.0729.33989.14468.51077.21453.05847.02392.11708.04755.17574.07104.08268.03308.16551.06575.24856.09787.09237.03571.18496.07089.27781.10526.05098.01886.10204.03753.15316.05594.11857.04269.23745.08442.3569.12447.0258.00865.05162.01726.07747.02578.14505.04779.29067.09399.43726.13726.00098.00029.00199.00062.00298.00092.00624.00183.01257.00345.01886.00523.00114.00032.00226.00062.0034.00094.03355.00947.06721.01849.10085.02772.0005.00015.00104.00029.00154.00043l.00669.00183c.00061.00016.00125.00035.00186.0005.00104.00028.0021.00056.00313.00085.00236.00064.0047.00125.00707.00191.07606.02157.15252.04195.22914.06181.00146.00039.00295.00073.00441.00112.04484.01161.08972.02303.13467.03423.06655.01659.13307.03333.19999.04886.01097.00255.02184.00545.03281.00797.04479.01025.0899.01953.13491.02912.03416.00731.0682.01504.10247.02213.09163.01892.18371.03644.27621.05273-.09251-.01629-.18461-.03378-.27624-.05273Zm1.16373.17489c-.05975-.00555-.11928-.01164-.17869-.0182-.05885-.00648-.11756-.01344-.17611-.0208-.00574-.00072-.0115-.00133-.01722-.00205-.00675-.00085-.01339-.00197-.02011-.0029-.02295-.00316-.04585-.00643-.0687-.00988-.00731-.00112-.01459-.00226-.02189-.00337l-.00048-.00008c-.04166-.00638-.08326-.01291-.12492-.01923-.00027-.00005-.00053-.00008-.0008-.00012.00005.00001.00008.00001.00013.00001.0419.00635.08371.01291.12561.01934.00056.00008.00109.00016.00165.00025.02968.00453.05938.00905.08924.01306.00019.00003.00037.00005.00053.00008.00659.00088.01312.00199.01974.00284.006.00077.01206.00138.01807.00214.13932.01747.27951.03227.4206.04423-.02218-.0019-.04455-.00328-.06666-.00533Zm.41686.02867c-.01575-.00066-.03135-.00183-.04708-.00259-.04721-.00228-.09434-.00466-.14126-.00778-.01121-.00074-.02229-.0019-.0335-.00268.05784.00405.11586.00761.17412.01043.01594.00078.03175.00197.04771.00263.00098.00003.00197.00016.00295.00024.00016,0,.00032.00003.0005.00003v.00003c-.00117-.00003-.00228-.00027-.00345-.00029Z" style="fill: #fff; stroke-width: 0px;"/>
          <path d="m52.09333,39.18884l-.0008-.00133-3.01471-5.89999s-.11777-.32287-.2722-.73814c-.00003-.00001-.00003-.00004-.00003-.00005-.20552-.55268-.47592-1.26892-.62039-1.60661l-.06825-.13359h0c.00205-.00126.00404-.00263.00608-.00389-.00194-.00385-.00388-.00781-.00569-.01126.12465-.15629.45052-.50758.68824-.76045v-14.78774c0-.33378.07702-.65088.20786-.94235.0187-.04164.03847-.08276.0593-.12332-.06055-.07441-.12271-.14763-.18695-.21927-.89006-.64374-2.25546-1.18791-3.60545-1.18791h-15.6724c-1.22207,0-2.29377.89979-2.48043,2.0727l.28687.2254c2.77229,2.17897,4.06341,5.84471,4.06341,11.53602,0,1.16484-.0513,2.27998-.15286,3.31405-.17624,1.79672-.49922,3.31485-.98754,4.6413-.44845,1.21777-1.05186,2.2885-1.79325,3.18195-.35063.42265-.72811.80598-1.12231,1.13931l-.29245.24732c.19197,1.22094,1.26064,2.11464,2.47857,2.11464h5.30883c1.34566,0,2.47283-1.091,2.47283-2.509v-6.72713h1.38184l3.63645,7.74521c.43644.94575,1.27276,1.49092,2.29077,1.49092h6.21813c.15751,0,.30772-.02511.44927-.06897.0013-.0233.00247-.0466.00465-.06983.04354-.03325.08358-.06968.12098-.10827.08871-.09147.16107-.19641.21856-.30964.42302-.33425.67301-.94059.38307-1.50009Zm-10.82971-17.48334c-.43739,2.65229-3.77205,4.94165-3.77205,4.94165,0,0-1.58617-4.15472-.20079-6.61498,1.38537-2.46031,1.53476-3.41894,1.53476-3.41894,0,0,2.87542,2.44001,2.43808,5.09227Z" style="fill: #fff; stroke-width: 0px;"/>
          <path d="m48.80562,30.03351c.15472-.16459.2722-.28758.2722-.28758,1.64971-1.47906,2.58515-3.56577,2.58515-5.80908v-4.50947c0-1.91234-.87617-3.72852-2.35703-4.93793-.07324-.10634-.15159-.20903-.2332-.30932-.02083.04056-.04059.08167-.0593.12331-.13081.29145-.20783.60855-.20783.94234v14.78773Z" style="fill: #fff; stroke-width: 0px;"/>
          <path d="m65.36973,39.71836v-3.74548c0-.4299-.21269-.79931-.52844-1.03233-.15098-.18494-.35849-.3264-.62323-.39345-.06286-.01591-.12439-.03677-.18581-.05749-.08921-.0301-.18456-.05246-.28857-.06296-.06987-.00999-.11413-.015-.14378-.01756h-4.39456V15.24578c0-1.34566-1.12688-2.47284-2.47254-2.47284h-5.41855c-.80795,0-1.54276.41133-2.00534,1.02874l.00707.00508c1.81055,1.30254,2.89139,3.40363,2.89139,5.6206v4.50947c0,2.60483-1.17919,5.01241-3.23511,6.60522l-.16668.12925v.88722l3.77128,7.38043c.39037.75392.13408,1.69391-.56446,2.21119.27977.06186.56927.09551.8657.09551h9.92437c-.01095-.00664-.02229-.01265-.03305-.0195.08268.00906.1658.0149.24888.0195h.55992c.01403-.00159.03167-.00372.05045-.00602.05026-.00615.10709-.01328.1144-.01328.1514,0,.28586-.02529.40942-.06456.03501-.01113.07069-.02003.1068-.02693.4464-.0852.74315-.37268.8911-.73128.13522-.19835.21933-.43224.21933-.68524Z" style="fill: #fff; stroke-width: 0px;"/>
          <path d="m94.74935,38.82152c-.10555-.20765-.71967-1.94183-1.28068-3.56483-.17611-.61645-.36535-1.18565-.56909-1.66273-.00088-.0027-.00194-.00575-.00284-.00845l-.00162-.00133c-.19032-.44385-.393-.80837-.6104-1.04822-.09529-.02178-.19117-.04062-.28703-.05952-.05505-.01085-.11012-.02159-.16535-.03143-.10908-.01945-.21833-.03806-.32813-.05331.26213.03638.52235.08523.7805.14426-.87378-.96407-1.93454-1.72649-3.20007-2.299-.46949-.0501-.97107-.15005-1.477-.32693-1.9382-.67756-4.76107-.74652-4.78934-.74706-1.655-.11186-3.08296.00757-4.30054.25214l.39375.86015c.05125.11208.00197.24457-.11009.29593-.11219.05133-.24465.00205-.29601-.11012l-.43423-.94856c-.05874.01385-.11724.02784-.17492.04225-.11766.0294-.2327.06007-.34595.09164-2.84166.79238-4.29358,2.23291-4.57264,2.53423v1.83204l.01509.04349c.76095.02359,1.41601.08507,1.98414.17744,1.29406.21034,2.12603.5846,2.66661,1.05847.32823.28777.55301.61082.70665.95687h.00005c.80468,1.8129-.25557,4.2263,2.39223,5.14224,3.7479,1.29646,10.9267.39859,14.08344-.40955l2.02879-.66725s-1.32701.03828-2.10533-1.49286Zm-5.25535-6.43139s-.00005.00001-.00008.00001c-.04277.00632-.08517.01366-.12765.02075-.00122.0002-.00244.00039-.00367.00058.04373-.00731.08738-.01482.1314-.02135Zm-1.9976.56587c-.26971.10984-.53543.2302-.7983.35795.26288-.12776.5286-.24811.7983-.35795Zm-9.14315,3.29321c-.00008-.00001-.00019-.00001-.00027-.00003.02056.00235.04144.00333.06206.00539-.02051-.00206-.04134-.00303-.06179-.00537Zm.64159.04031c-.0708-.00138-.14144-.00352-.21184-.00672-.02471-.00113-.04923-.00313-.07388-.00452.09429.00523.18886.0093.28395.01116.00146.00003.00292.00012.00438.00015h-.00005c-.00085-.00003-.0017-.00005-.00255-.00007Zm.00855.00023c-.00013,0-.00027-.00001-.00043-.00001.07277.00135.14572.00185.21886.00162-.07301.00024-.14582-.00027-.21843-.00161Zm.47621-.00049c-.00481.00009-.00954.00003-.01435.00012.07734-.00145.15499-.00412.23326-.00939.00037-.00003.00072-.00003.00109-.00003-.07378.00498-.14705.00792-.22.0093Zm2.01692-.36569c-.1144.03677-.22996.07045-.34614.10253-.01323.00365-.02617.00809-.03943.01168-.03013.00816-.06076.01506-.09104.02277.04357-.01126.08714-.02249.13044-.03444.24561-.06778.48734-.14573.7253-.23338-.12539.04619-.25172.0899-.37913.13084Zm1.28014-.50833c-.07502.03492-.15026.06929-.22584.10279-.08895.03941-.17829.07781-.26806.11507-.05388.02236-.10823.04345-.16243.06497.1445-.05738.28817-.11697.43049-.18004.07542-.03343.15055-.06772.22542-.1026.01331-.00619.02657-.01254.03985-.01886.00563-.0027.01134-.00537.017-.00805.00016-.00007.00029-.00013.00045-.00021l.00008-.00004c.00005-.00001.00011-.00004.00016-.00007-.00005.00003-.00008.00003-.00011.00005h.00003c-.00032.00013-.00061.00028-.00093.00043-.0187.00882-.03735.01783-.05611.02657Zm.46083-.22398c-.00638.00319-.01275.00632-.01913.00951-.01838.00919-.03677.01828-.05515.0274-.0064.00317-.01278.00634-.01915.00952-.01315.00651-.02622.01307-.03935.01954-.01509.00743-.03007.01504-.04516.02244-.00053.00027-.00106.00053-.00162.0008-.00367.00181-.00736.00361-.01103.00542-.01381.0068-.0276.01363-.04144.02036-.00016.00008-.00032.00016-.0005.00024l-.00021.00011c-.05645.02743-.11307.05434-.16979.08104-.00021.00009-.00043.00019-.00061.00029.00016-.00008.00029-.00016.00048-.00024.04256-.02006.08504-.04043.12747-.06084.01421-.00683.02851-.01347.04267-.02036.01825-.00886.0364-.01789.05459-.02682.02-.0098.0399-.01987.05988-.02975.00938-.00464.01873-.00931.02811-.01396.01233-.00612.02465-.01226.03698-.01837.01554-.00768.03106-.01536.04654-.02314.00247-.00122.00494-.00243.00739-.00367l-.00096.00048Zm2.38574-1.31436c-.33134.18318-.66087.37127-.99094.55811-.1709.09674-.34199.19311-.51359.28814-.17159.09504-.34369.18876-.51667.28025-.01124.00595-.02256.01174-.03382.01761-.02776.01444-.0555.02882-.08323.0433-.03552.01853-.07099.03719-.10659.0555-.03416.01756-.06844.0347-.10265.05204-.00024.00012-.00045.00023-.00066.00035-.00821.00416-.01642.00832-.02463.01249-.00385.00194-.00768.00389-.01153.00584,0-.00001.00003-.00003.00003-.00003.00236-.00118.0047-.00239.00707-.00357.00988-.00501.01974-.01.02962-.01502.00005-.00003.00008-.00005.00011-.00007l.00005-.00003c.00011-.00007.00021-.00009.00032-.00016.06976-.03541.13942-.07113.20887-.10734.039-.02034.07813-.04033.11703-.06092.04131-.02184.08217-.04482.12335-.06689.63726-.34154,1.26426-.70944,1.89787-1.05961.01185-.00654.02359-.01328.03541-.01981-.01182.00651-.02354.01324-.03533.01977l-.00008.00004Zm3.11237-1.3328c-.0077.00197-.01544.0038-.02314.0057-.00298.00073-.00595.00142-.0089.00219l-.00024.00008c-.12877.03339-.25642.06976-.38309.10863.0631-.01937.12646-.03812.19008-.0562.01241-.00352.02495-.00668.03738-.01016.05159-.01441.10324-.02868.1552-.04216.00021-.00005.00037-.00011.00056-.00016.00003,0,.00005-.00003.00008-.00003.00295-.00074.0059-.00145.00885-.00218.00717-.00175.01432-.00351.02149-.00529.0026-.00064.00521-.00128.00781-.00194.02859-.00725.05733-.01411.086-.02117.02359-.00579.04708-.0119.07077-.01743-.00909.00213-.01804.00452-.02712.00668-.04535.01083-.09062.02192-.13573.03343Zm.50501-.11121c-.02851.00545-.05707.01076-.08552.01639-.01679.00331-.03369.00638-.05048.00968-.00321.00062-.00648.0012-.0097.00186-.00005.00001-.00008.00001-.00011.00003,0,.00001-.00003.00001-.00003.00001-.01241.00255-.02473.00537-.03709.00813-.00624.00139-.01251.00276-.01878.00412-.02019.00444-.04041.00877-.06057.01331-.01304.00295-.02619.00566-.03924.00862.03318-.00756.06652-.01468.09981-.02193.00845-.00185.01692-.00368.02537-.00557.0102-.00219.02032-.0046.03055-.00671.01033-.00213.02075-.00401.03114-.00598.01246-.00234.02489-.00473.03733-.00716.02072-.00408.04155-.0079.06227-.01194.01304-.00254.02614-.00499.03919-.00751-.00805.00158-.0161.0031-.02415.00464Zm.55105-.07931c-.00032.00004-.00064.00007-.00093.00009-.00035.00004-.00072.00008-.00106.00011-.00021.00003-.00045.00005-.00066.00007-.00053.00005-.00112.00012-.00165.00017-.00085.00009-.00173.00019-.0026.00027-.00223.00023-.00446.00045-.00669.00069l-.0008.00008c-.00085.00008-.00173.00017-.0026.00027-.01323.00138-.02649.00276-.03977.00405-.01273.00124-.02548.0024-.0381.00388-.00003,0-.00005.00001-.00005.00001-.00066.00008-.00133.00019-.00199.00027-.01278.0015-.0254.00339-.03812.00505-.02999.00389-.05999.00778-.08993.0119-.01769.00242-.03547.0047-.05319.00707l-.00422.00056c.00383-.00052.00768-.00104.0115-.00153.01682-.00222.03361-.00442.05037-.00671.02649-.00361.05308-.00708.07962-.01052.0038-.0005.0076-.00101.01142-.00151.01118-.00151.02234-.00313.03358-.00445.00032-.00004.00061-.00009.0009-.00012.00003,0,.00008,0,.00011-.00001.01602-.00187.03223-.00336.04838-.00493.01033-.00104.02064-.00207.03095-.00316.00037-.00003.00072-.00007.00109-.00011.00008,0,.00016-.00003.00024-.00003.0013-.00013.00263-.00025.00391-.0004l.00462-.00048c.00069-.00005.00138-.00013.00207-.00021.00043-.00004.00088-.00008.0013-.00013.00011-.00001.00021-.00003.00032-.00003.00096-.00011.00189-.00019.00284-.00029.03539-.00379.07075-.00777.10643-.01084.00109-.00011.00218-.00019.00327-.00028.00043-.00004.00082-.00007.00125-.00011-.0004.00004-.0008.00007-.00122.00011-.00112.00009-.00221.00017-.00329.00028-.03339.0029-.06647.00658-.0996.01015-.00255.00027-.00513.0005-.00768.00078Zm.12383-.01231c-.0038.00031-.0076.00061-.0114.00094.00452-.00039.00901-.00073.01352-.00113h.00003c-.00072.00005-.00143.00012-.00215.00019Zm.00372-.00032c-.00048.00005-.00096.00008-.00143.00012h-.00003s.00003-.00001.00008-.00001c.00088-.00007.00175-.00013.00263-.00021h.00003c-.00043.00005-.00085.00005-.00128.00011Zm.30305-.01861c-.03807.00137-.07627.0036-.11442.00562-.0258.00132-.05157.00214-.07742.00383-.00058.00003-.0012.00004-.00178.00008-.0008.00005-.00159.00013-.00236.0002-.00173.00015-.00343.00031-.00513.00043-.0055.00039-.01095.00092-.01642.00137-.0136.00108-.02718.00215-.0407.00337l-.011.00092c-.00994.00081-.0199.00161-.02981.00248l-.00199.00016c-.00011,0-.00019.00001-.00029.00003h-.00008c-.00011,0-.00019.00001-.00029.00003.00008-.00001.00013-.00003.00021-.00003.00029-.00003.00058-.00005.00085-.00007.00035-.00003.00069-.00005.00101-.00008.01451-.00129.02909-.00235.0436-.00363.00231-.0002.00465-.00037.00696-.00058.01004-.00082.02006-.00171.0301-.0025.00845-.00065.01682-.00154.02532-.0021.00462-.00031.00922-.0004.01384-.00069.05983-.00375.11955-.00664.17922-.00882.00388-.00013.00781-.00043.01169-.00056.07518-.0026.15026-.0041.22518-.00421-.07861.00012-.15738.0019-.23628.00476Zm.81722.0201c.0233.00183.04681.00227.07011.00433.01504.00133.02994.00369.04495.00511-.03831-.00363-.07672-.00631-.11506-.00944Z" style="fill: #fff; stroke-width: 0px;"/>
          <path d="m72.59226,31.95908c.08621-.10443,1.54794-1.82434,4.76761-2.72872.1128-.03168.22901-.06173.34611-.09131.0577-.01456.11594-.02877.17468-.04279l-.08873-.19388-1.16168-2.53785-.51667-1.12877-2.79843,1.07485-1.47464.5664c.10605-1.58233,1.33376-3.1638,3.20073-3.98389l-.10435-.22796c-.05135-.11208-.00205-.24463.11009-.2959.11211-.05135.24463-.00205.29593.11004l.11187.24452c1.98376-.7111,4.02783-.36371,5.19547.76937l-2.37424.91196-1.74477.67017.5167,1.12878,1.18264,2.58356.09596.20962c1.2697-.25964,2.76679-.38668,4.51124-.26904.10587.00207,2.78111.06794,4.77175.72333l-4.099-14.82395c-.29114-1.091-1.27276-1.85474-2.43667-1.85474h-9.96369c-1.12685,0-2.10905.76374-2.39956,1.85474l-5.07833,19.5092h.48224c.99232,0,1.79963.82352,1.79963,1.83605v3.74522c0,.64459-.3391,1.20969-.84841,1.52753h4.69936c1.19983,0,2.21792-.79986,2.47256-1.96382l.47929-4.69313-.17452-.50246v-2.06678l.04984-.06036Z" style="fill: #fff; stroke-width: 0px;"/>
        </g>
      </g>
      <g>
        <path d="m15.83605,8.15587V.13765h2.40444c1.42987,0,1.81122.69913,1.81122,2.75397,0,2.09725-.38135,2.84922-1.81122,2.84922h-.74146v2.41502h-1.66298Zm2.10783-4.06735c.3072,0,.42368-.27538.42368-1.2393,0-.84737-.13765-1.03801-.46602-1.03801h-.40252v2.2773h.44485Z" style="fill: #fff; stroke-width: 0px;"/>
        <path d="m26.83049,8.15587c-.08474-.26479-.11649-.42368-.32836-2.2773-.07415-.74146-.16947-.84737-.38128-.84737h-.25421v3.12467h-1.66298V.13765h2.42561c1.44052,0,1.81122.61439,1.81122,2.16081,0,1.65233-.23297,1.76888-.68848,2.03368v.06357c.08474.07415.18006.13765.25421.32829.11649.25428.23304.73088.34953,1.66298.15889,1.30287.16947,1.48292.24363,1.7159v.05299h-1.76888Zm-.49784-4.61817c.3072,0,.42368-.21181.42368-.95327,0-.63549-.13765-.79438-.46602-.79438h-.42368v1.74765h.46602Z" style="fill: #fff; stroke-width: 0px;"/>
        <path d="m34.64742,8.29359c-1.02742,0-1.50402-.15889-1.77947-.65672-.27538-.48725-.39186-.9745-.39186-3.49536s.11649-2.98701.39186-3.48485c.27544-.48718.75204-.65666,1.77947-.65666,1.01684,0,1.49351.16947,1.76888.65666.27544.49784.39193.96392.39193,3.48485s-.11649,3.00811-.39193,3.49536c-.27538.49784-.75204.65672-1.76888.65672Zm.50842-4.19449c0-1.76888-.03175-2.05484-.09532-2.25613-.05292-.13765-.14831-.20122-.4131-.20122s-.3707.06357-.4131.20122c-.07409.20129-.1059.48725-.1059,2.25613,0,1.7159.03182,2.00193.1059,2.21373.0424.13772.14831.19071.4131.19071s.36018-.05299.4131-.19071c.06357-.21181.09532-.49784.09532-2.21373Z" style="fill: #fff; stroke-width: 0px;"/>
        <path d="m43.67169,5.05237h-.77321v-1.60999h2.26665c.01058.27544.02124.83678.02124,1.57824,0,1.7583-.12714,2.19257-.37076,2.61625-.27538.49784-.75204.65672-1.76888.65672-1.02742,0-1.50402-.15889-1.77947-.65672-.27538-.48725-.39186-.9745-.39186-3.55893,0-2.47853.11649-2.95519.39186-3.44245.27544-.4766.77328-.63549,1.77947-.63549,1.16514,0,1.71597.27538,1.94894.9956.09539.3072.13772.69913.13772,1.17573,0,.20129,0,.27544-.01058.4131h-1.54642c.01058-.04233.01058-.09532.01058-.13765,0-.34953-.03182-.49784-.06357-.60381-.03175-.13765-.18006-.20122-.48725-.20122-.28596,0-.40252.06357-.45543.20122-.06357.21188-.09532.47667-.09532,2.2138,0,1.83238.02117,2.04426.08474,2.2349.0635.16947.23297.23304.50842.23304.27538,0,.39186-.06357.4766-.20129.09532-.14824.11656-.25421.11656-.8897v-.38135Z" style="fill: #fff; stroke-width: 0px;"/>
        <path d="m51.98624,8.15587c-.08467-.26479-.11656-.42368-.32836-2.2773-.07409-.74146-.16947-.84737-.38128-.84737h-.25421v3.12467h-1.66298V.13765h2.42561c1.44045,0,1.81129.61439,1.81129,2.16081,0,1.65233-.23311,1.76888-.68848,2.03368v.06357c.08467.07415.18006.13765.25414.32829.11656.25428.23297.73088.34953,1.66298.15889,1.30287.16947,1.48292.24369,1.7159v.05299h-1.76895Zm-.49784-4.61817c.3072,0,.42375-.21181.42375-.95327,0-.63549-.13772-.79438-.46608-.79438h-.42368v1.74765h.46602Z" style="fill: #fff; stroke-width: 0px;"/>
        <path d="m60.36437,8.15587l-.13772-1.85362h-.80503l-.127,1.85362h-1.67356l.85795-8.01822h2.79624l.80503,8.01822h-1.7159Zm-.48725-6.34465h-.11656l-.26473,2.87046h.65672l-.27544-2.87046Z" style="fill: #fff; stroke-width: 0px;"/>
        <path d="m70.96681,8.15587V3.34706h-.0635l-1.21806,4.80881h-.73081l-1.22878-4.80881h-.0635v4.80881h-1.51467V.13765h2.35145l.74139,3.48485h.07422l.8262-3.48485h2.34074l.01058,8.01822h-1.52526Z" style="fill: #fff; stroke-width: 0px;"/>
        <path d="m79.30274,8.15587l-.13772-1.85362h-.80503l-.127,1.85362h-1.67356l.85795-8.01822h2.79624l.80503,8.01822h-1.7159Zm-.48725-6.34465h-.11656l-.26473,2.87046h.65672l-.27544-2.87046Z" style="fill: #fff; stroke-width: 0px;"/>
      </g>
    </g>
  </g>
</svg>