<?xml version="1.0" encoding="UTF-8"?>
<svg id="Camada_2" data-name="Camada 2" xmlns="http://www.w3.org/2000/svg" width="470.71635" height="203.56904" viewBox="0 0 470.71635 203.56904">
  <g id="Camada_1-2" data-name="Camada 1">
    <g>
      <path d="m127.55737,167.89845c-.03216-.00408-.06388-.00951-.09597-.01381.0321.0043.06382.00973.09599.01382.02781.00353.05582.00645.08364.00994-.02782-.0035-.05583-.00642-.08366-.00995Z" style="fill: none; stroke-width: 0px;"/>
      <path d="m122.39664,166.96022c.05337.01239.10616.02651.15957.03875.21758.04991.43683.09488.65549.1415-.21863-.04669-.43783-.09169-.65552-.14151-.0534-.01226-.10619-.02633-.15954-.03873Z" style="fill: none; stroke-width: 0px;"/>
      <path d="m308.32656,199.73771c.43748.00016.10498.05741.52825-.0398.01369.00032.0657-.00495.1371-.01305h-2.72128c.69183.03825,1.38222.05254,2.05593.05285Z" style="fill: none; stroke-width: 0px;"/>
      <path d="m82.35024,151.79905c-.26613-.06616-.53406-.12599-.80173-.18672.26768.06072.53561.12057.80175.18673.00016,0,.00049.00016.00065.00016.00019.00006.00041.00013.00063.00019-.00024-.00007-.00046-.00013-.00066-.00021-.00016,0-.00049-.00016-.00065-.00016Z" style="fill: none; stroke-width: 0px;"/>
      <path d="m131.3913,168.23726c-.07658-.00322-.15237-.0089-.2288-.0126.07643.00369.15222.00939.22882.01261.00484.00013.00958.00081.01438.00111-.00483-.0003-.00955-.00099-.0144-.00112Z" style="fill: none; stroke-width: 0px;"/>
      <path d="m131.40812,135.93027v-.00016c-1.02235-.49424-2.05171-.97607-3.09064-1.4389,1.03892.46283,2.06826.94467,3.09061,1.4389v32.30845h.00003v-32.30829Z" style="fill: none; stroke-width: 0px;"/>
      <path d="m123.52643,132.55481c-.74523-.26732-1.49766-.5192-2.25795-.75392.7603.23474,1.51272.48661,2.25795.75392Z" style="fill: none; stroke-width: 0px;"/>
      <path d="m437.02636,156.40641c.17139-.01514.3423-.0315.51517-.04284.6989-.04584,1.39538-.06839,2.08938-.06936-.694.00097-1.39051.02351-2.08944.06935-.17284.01134-.34378.02761-.51511.04285Z" style="fill: none; stroke-width: 0px;"/>
      <path d="m109.21436,129.90697c1.3658.00241,2.7494.07463,4.15339.22614,1.08304.11687,2.14589.27947,3.19125.48126-1.04535-.20179-2.10819-.36439-3.19123-.48126-1.40399-.15153-2.7876-.22374-4.1534-.22614Z" style="fill: none; stroke-width: 0px;"/>
      <path d="m233.89484,148.93408h.00001c.01403-.00871.02769-.01797.0417-.02671h-.00003c-.01401.00874-.02766.018-.04169.02671Z" style="fill: none; stroke-width: 0px;"/>
      <path d="m233.87922,148.94411c-.00992.00616-.01955.01274-.02948.01889h.00001c.00992-.00613.01954-.01273.02946-.01887-.00001,0,.00001-.00001,0-.00001Z" style="fill: none; stroke-width: 0px;"/>
      <path d="m188.69315,79.97061s-.72601,4.65897-7.45896,16.61615c-6.73295,11.95693.97587,32.14892.97587,32.14892,0,0,16.20651-11.12636,18.33227-24.01647,2.12553-12.8901-11.84919-24.7486-11.84919-24.7486Z" style="fill: none; stroke-width: 0px;"/>
      <path d="m402.58005,171.21479c-.00349.00167-.007.00337-.01051.00504.28034-.13196.56027-.26504.83925-.4006-.00115.00058-.00236.00111-.00351.00168-.27432.13327-.54955.2641-.82522.39389Z" style="fill: none; stroke-width: 0px;"/>
      <path d="m404.7191,170.16777c.16734-.08487.3351-.16873.50208-.2546-.16607.08541-.33291.1688-.4994.25321-.00092.00046-.0018.00093-.00269.00139Z" style="fill: none; stroke-width: 0px;"/>
      <path d="m403.67158,170.6901c-.0026.00127-.0052.00258-.0078.00387.2939-.1441.58723-.28961.87977-.4372-.00083.00043-.00165.00081-.00248.00124-.28914.14583-.57905.28966-.86949.43209Z" style="fill: none; stroke-width: 0px;"/>
      <path d="m401.1992,171.84847c-.86459.38313-1.7368.74644-2.61837,1.08542.88157-.33897,1.75381-.70225,2.61837-1.08539.36729-.16279.73298-.32985,1.09762-.49957-.00071.00032-.00139.00061-.00207.00093-.36398.16939-.72897.33613-1.09555.49861Z" style="fill: none; stroke-width: 0px;"/>
      <path d="m233.93656,148.90737c-.01401.00874-.02767.018-.0417.02673l3.03303,3.14539.26862.52568v-4.31191l-1.32281,1.02555-1.93713-.41144Z" style="fill: none; stroke-width: 0px;"/>
      <path d="m233.87922,148.94413c-.00992.00614-.01954.01274-.02946.01889l.33143.64859c-.12023-.28108-.22238-.50775-.30197-.66748Z" style="fill: none; stroke-width: 0px;"/>
      <path d="m306.27063,199.68486h2.72128c.06811-.00774.15383-.01806.24518-.02922-4.07087-.3329-6.93846-3.70392-6.93846-7.39402,0-.70596.17731-1.23773.35463-1.76636l6.25681-24.03628h-21.17054v-93.13418c0-6.53996-5.47662-12.01803-12.01657-12.01803h-26.33423c-3.92665,0-7.49781,1.99908-9.74596,4.99971l.03432.02469c8.79926,6.3304,14.0522,16.54172,14.0522,27.31632v21.91611c0,12.65951-5.73095,24.3604-15.72265,32.10158l-.81014.62809v4.31191l18.32855,35.8691c1.89713,3.66411.65154,8.23242-2.74336,10.7464,1.35972.30069,2.76676.46418,4.20741.46418h48.23257c-.05306-.03228-.10826-.06145-.16059-.09475.40184.04404.80587.07242,1.20955.09475Z" style="fill: #00a099; stroke-width: 0px;"/>
      <path d="m251.08344,115.56359v-21.91611c0-9.29407-4.25816-18.12076-11.45511-23.99852-.35608-.51682-.73682-1.01591-1.13344-1.50327-.80945,1.57708-1.2983,3.3251-1.2983,5.17909v71.86874c.752-.79991,1.32295-1.39765,1.32295-1.39765,8.01765-7.18824,12.5639-17.32979,12.5639-28.23228Z" style="fill: #063; stroke-width: 0px;"/>
      <path d="m250.25106,198.48399c.43108-.44454.78279-.95458,1.06219-1.50485,2.05592-1.62443,3.27098-4.5713,1.8618-7.29045l-.00387-.00647-14.65164-28.67412s-.57239-1.56907-1.32295-3.58739v22.64686c0,8.42488,5.50562,15.6554,13.05447,18.41642Z" style="fill: #063; stroke-width: 0px;"/>
      <path d="m302.29863,192.26162c0,3.6901,2.86759,7.06112,6.93846,7.39402.24425-.02986.52048-.06456.55595-.06456.73591,0,1.38924-.12289,1.98982-.31374.17022-.05409.34353-.09736.51899-.13084,2.16956-.41407,3.61177-1.81128,4.33077-3.55406.65726-.96394,1.066-2.10066,1.066-3.33025v-18.20312c0-2.08935-1.0337-3.88464-2.56818-5.01716-.73388-.89883-1.74235-1.58631-3.02901-1.91214-.30536-.07734-.60444-.17874-.90291-.27945-.43358-.14628-.89697-.25491-1.40257-.30601-.33957-.04854-.55454-.07288-.69865-.08531h-.18723l-6.25681,24.03628c-.17732.52864-.35463,1.0604-.35463,1.76636Z" style="fill: #ed7151; stroke-width: 0px;"/>
      <path d="m353.67647,165.13996s.00001.00001.00003.00001c.00317-.0104.00923-.01847.01255-.02871-.02527-.00043-.04755-.00198-.07277-.00244.02001.0105.04026.02073.06026.03098-.00001.00006-.00006.00009-.00007.00015Z" style="fill: #f3bc72; stroke-width: 0px;"/>
      <path d="m233.93653,148.90737l-.08482-.01802.04313.04473c.01403-.00871.02767-.01797.04169-.02671Z" style="fill: #93c01f; stroke-width: 0px;"/>
      <path d="m250.25105,198.484c-7.54887-2.76108-13.05454-9.99153-13.05454-18.41627v-22.64726c-.99887-2.68608-2.31303-6.167-3.01503-7.80821l-.33176-.64922s.00003-.00001.00004-.00003h-.00001c.00992-.00616.01955-.01274.02948-.0189-.00932-.01871-.01881-.03792-.02751-.05476.60578-.75955,2.18947-2.46681,3.3448-3.69574v-71.86882c0-1.85392.48894-3.60203,1.29836-5.17915-.29428-.36162-.59637-.71748-.90858-1.06566-4.35939-3.46532-10.96162-5.77326-17.5225-5.77326h-76.16838c-5.93915,0-11.14776,4.37299-12.05488,10.07334l1.39414,1.09544c13.47341,10.58986,19.74827,28.40541,19.74827,56.06538,0,5.66119-.24934,11.08078-.74286,16.10634-.85654,8.73207-2.42622,16.11021-4.79947,22.55688-2.17947,5.91829-5.11212,11.12212-8.71528,15.46427-1.70404,2.05414-3.53857,3.9171-5.45448,5.53716l-1.4213,1.20197c.93299,5.93376,6.12677,10.27721,12.04586,10.27721h25.80107c6.54003,0,12.01805-5.30227,12.01805-12.19378v-32.69405h6.71577l17.67326,37.6419c2.12111,4.59639,6.18562,7.24593,11.13323,7.24593h30.22024c.76549,0,1.39929-.37827,2.20611-.67455.21154-.16157.40605-.33866.58791-.52618Zm-51.77226-93.83395c-1.72419,10.45504-14.86912,19.47952-14.86912,19.47952,0,0-6.25255-16.37752-.79152-26.07566,5.46103-9.69835,6.04989-13.47719,6.04989-13.47719,0,0,11.33475,9.61831,9.61075,20.07334Z" style="fill: #93c01f; stroke-width: 0px;"/>
      <polygon points="233.84976 148.96301 233.84971 148.96304 234.18147 149.61227 234.18119 149.6116 233.84976 148.96301" style="fill: #93c01f; stroke-width: 0px;"/>
      <path d="m237.19659,73.32479c0-1.85399.48885-3.60201,1.2983-5.17909-.00001-.00001-.00001-.00003-.00003-.00004-.80942,1.57712-1.29836,3.32523-1.29836,5.17915v71.86882l.00009-.00009v-71.86874Z" style="fill: #93c01f; stroke-width: 0px;"/>
      <path d="m237.19659,180.06757v-22.64686c-.00003-.00007-.00006-.00015-.00009-.00024v22.64726c0,8.42474,5.50568,15.65519,13.05454,18.41627h.00001c-7.54885-2.76103-13.05447-9.99155-13.05447-18.41643Z" style="fill: #93c01f; stroke-width: 0px;"/>
      <path d="m404.72179,170.16638c.16649-.08441.33332-.1678.4994-.25321.17307-.089.34543-.17967.51809-.26971-.33835.17644-.67764.35044-1.01749.52292Z" style="fill: none; stroke-width: 0px;"/>
      <path d="m403.67158,170.6901c.29044-.14243.58035-.28626.86949-.43209-.28908.14593-.57911.28955-.86949.43209Z" style="fill: none; stroke-width: 0px;"/>
      <path d="m402.58005,171.21479c.27567-.12979.5509-.26061.82522-.39389-.27429.13336-.5496.26402-.82522.39389Z" style="fill: none; stroke-width: 0px;"/>
      <path d="m401.1992,171.84847c.36658-.16248.73157-.32922,1.09555-.49861-.36392.16947-.72894.33613-1.09555.49861Z" style="fill: none; stroke-width: 0px;"/>
      <path d="m308.9102,166.45882h.18534c-.08023-.0069-.13936-.01028-.18235-.01152l-.003.01152Z" style="fill: #f29100; stroke-width: 0px;"/>
      <path d="m353.67647,165.13996c.00001-.00006.00006-.00009.00007-.00015-.02001-.01025-.04026-.02048-.06026-.03098-.00013,0-.00024-.00001-.00037-.00001.02019.01038.04037.02075.06056.03114Z" style="fill: #f29100; stroke-width: 0px;"/>
      <path d="m436.93634,156.4139c.02998-.00255.06007-.00484.09002-.00749.17133-.01524.34227-.03151.51511-.04285-.20302.01333-.40356.03314-.60513.05034Z" style="fill: #f9b860; stroke-width: 0px;"/>
      <path d="m402.29474,171.34985c.00068-.00032.00136-.00061.00207-.00093.09114-.04243.18172-.08628.27272-.12909.00351-.00167.00703-.00337.01051-.00504-.09516.04482-.18997.09069-.2853.13506Z" style="fill: #f9b860; stroke-width: 0px;"/>
      <path d="m404.54107,170.25801c.00083-.00043.00165-.00081.00248-.00124.05857-.02953.11702-.05933.17555-.089.00089-.00046.00177-.00093.00269-.00139-.06022.03055-.12044.06122-.18072.09163Z" style="fill: #f9b860; stroke-width: 0px;"/>
      <path d="m403.40527,170.82091c.00115-.00058.00236-.00111.00351-.00168.08518-.04136.17-.08358.255-.12526.0026-.00128.0052-.0026.0078-.00387-.08878.04353-.17738.08761-.26631.13081Z" style="fill: #f9b860; stroke-width: 0px;"/>
      <path d="m417.99492,141.55463c.37213.07071.74096.14422,1.10795.21923-.09191-.01878-.18134-.03965-.27361-.05817-.27603-.05542-.55539-.10807-.83435-.16107Z" style="fill: #f9b860; stroke-width: 0px;"/>
      <path d="m460.48435,187.9035c-.51289-1.00916-3.49752-9.43731-6.22413-17.32511-.85591-2.99597-1.77558-5.76229-2.76566-8.08096-.00437-.01308-.00954-.02794-.01388-.04102l-.00792-.00645c-.92487-2.15718-1.90996-3.92872-2.96643-5.09435,0,0,0-.00001-.00003-.00001.00003.00001.00003.00003.00003.00004-2.5093-.57384-5.05847-.9494-7.64299-1.0392-.41-.01425-.82067-.0228-1.23244-.02222-.694.00097-1.39048.02352-2.08938.06936-.17286.01134-.34378.0277-.51517.04284-.03001.00267-.06019.00489-.09023.0075-.20689.01768-.41165.04088-.61703.06245-.13013.01366-.26126.02466-.3908.03984-.2045.02398-.40701.05307-.61006.08075-.12499.01703-.25092.03151-.37535.04991-.20792.03075-.41398.06638-.62046.10083-.11805.0197-.23701.03695-.35459.05781-.21167.03757-.42154.07982-.63177.12108-.11087.02177-.22263.04122-.33312.06397-.23072.04752-.45976.09953-.68889.15128-.08846.01997-.17768.03791-.26593.05848-.25488.05945-.50817.12311-.76119.18747-.06161.01567-.12384.02974-.18533.04569-.25358.06574-.50566.13546-.75747.2058-.0604.01686-.12136.03225-.18167.04938-.31147.08846-.62167.18026-.93069.27519-2.71137.83303-5.32141,1.93113-7.8767,3.17283-1.7036.82788-3.38293,1.7198-5.05168,2.63972-3.33726,1.84008-6.63259,3.79257-9.99537,5.57104-.36129.19109-.72383.37904-1.08686.56575-.16699.08587-.33474.16973-.50208.2546-.05851.02968-.11702.05944-.17555.089-.29254.14758-.58587.2931-.87977.4372-.085.0417-.16985.08386-.255.12526-.27898.13556-.55891.26864-.83925.4006-.09097.04284-.18161.08665-.27272.12909-.36463.16972-.73033.33678-1.09762.49957-.86456.38313-1.7368.74642-2.61837,1.08539-.22041.08475-.44139.16798-.66296.24961-2.43753.89799-4.94922,1.6036-7.57113,2.02359-.95331.15268-1.92133.26754-2.90553.34019-.81657.06013-1.61819.05718-2.42105.05964-1.42964.00442-2.84555-.04662-4.23594-.20616,3.9107,8.81071-1.24204,20.53992,11.62623,24.99139,18.21493,6.30085,53.10411,1.93722,68.44598-1.99037l9.85993-3.24287s-6.44924.18604-10.232-7.25541Z" style="fill: #f29100; stroke-width: 0px;"/>
      <path d="m436.93613,156.41391c.03004-.00261.06022-.00483.09023-.0075-.02995.00264-.06004.00493-.09002.00749-.00006,0-.00015.00001-.00021.00001Z" style="fill: #f29100; stroke-width: 0px;"/>
      <path d="m403.66378,170.69397c-.085.04167-.16982.08389-.255.12526.08515-.04139.17-.08355.255-.12526Z" style="fill: #f29100; stroke-width: 0px;"/>
      <path d="m404.7191,170.16777c-.05854.02967-.11699.05947-.17555.089.05854-.02956.11704-.05932.17555-.089Z" style="fill: #f29100; stroke-width: 0px;"/>
      <path d="m402.56953,171.21983c-.091.04281-.18158.08667-.27272.12909.09111-.04244.18175-.08626.27272-.12909Z" style="fill: #f29100; stroke-width: 0px;"/>
      <path d="m435.9283,156.51621c-.2045.02398-.40701.05306-.61006.08075.20305-.02767.40557-.05677.61006-.08075Z" style="fill: #f29100; stroke-width: 0px;"/>
      <path d="m433.00295,156.99056c-.23075.04752-.45976.09955-.68889.15128.22913-.05174.45817-.10375.68889-.15128Z" style="fill: #f29100; stroke-width: 0px;"/>
      <path d="m433.96784,156.80551c-.21167.03757-.42154.07982-.63177.12108.21023-.04126.4201-.08351.63177-.12108Z" style="fill: #f29100; stroke-width: 0px;"/>
      <path d="m431.10162,157.43347c-.25358.06576-.50563.13546-.75747.2058.25181-.07034.50389-.14005.75747-.2058Z" style="fill: #f29100; stroke-width: 0px;"/>
      <path d="m434.94289,156.64687c-.20789.03075-.41398.06638-.62046.10083.20647-.03445.41254-.07009.62046-.10083Z" style="fill: #f29100; stroke-width: 0px;"/>
      <path d="m430.16248,157.68865c-.31147.08846-.6217.18025-.93069.27519.30902-.09492.61922-.18673.93069-.27519Z" style="fill: #f29100; stroke-width: 0px;"/>
      <path d="m432.04813,157.20031c-.25488.05947-.50817.12313-.76119.18747.25302-.06436.50631-.12802.76119-.18747Z" style="fill: #f29100; stroke-width: 0px;"/>
      <path d="m436.3191,156.47636c.20538-.02157.41014-.04477.61703-.06245-.0083.00072-.01666.00136-.02496.00208-.1985.01712-.39496.03966-.59208.06037Z" style="fill: #f29100; stroke-width: 0px;"/>
      <path d="m436.91117,156.416c.0083-.00072.01666-.00136.02496-.00208.00006,0,.00015-.00001.00021-.00001-.00839.00071-.01678.00139-.02516.0021Z" style="fill: #f29100; stroke-width: 0px;"/>
      <path d="m433.9681,156.80546c.11158-.0198.22452-.03614.33651-.05487-.11199.01874-.22493.03507-.33651.05487Z" style="fill: #f29100; stroke-width: 0px;"/>
      <path d="m434.94333,156.64681c.11707-.01731.23563-.03086.35317-.04697-.11755.01611-.2361.02967-.35317.04697Z" style="fill: #f29100; stroke-width: 0px;"/>
      <path d="m431.10174,157.43342c.05166-.01339.1039-.02518.15565-.03837-.05174.01319-.10399.02497-.15565.03837Z" style="fill: #f29100; stroke-width: 0px;"/>
      <path d="m433.00372,156.99039c.09699-.01997.19513-.03695.29242-.05616-.09729.01921-.19546.03619-.29242.05616Z" style="fill: #f29100; stroke-width: 0px;"/>
      <path d="m432.04887,157.20012c.06554-.01528.13187-.02849.19756-.04343-.06568.01496-.13202.02815-.19756.04343Z" style="fill: #f29100; stroke-width: 0px;"/>
      <path d="m435.92877,156.51615c.12546-.01471.25252-.02531.37851-.03859-.12599.01328-.25305.02388-.37851.03859Z" style="fill: #f29100; stroke-width: 0px;"/>
      <path d="m405.22119,169.91317c.36304-.1867.72557-.37466,1.08686-.56575-.18908.09999-.37925.1972-.56877.29604-.17266.09004-.34502.18071-.51809.26971Z" style="fill: #f29100; stroke-width: 0px;"/>
      <path d="m448.50634,157.35563s0-.00003-.00003-.00004c-2.50927-.57382-5.0585-.94937-7.64296-1.03915,2.58452.0898,5.13369.46536,7.64299,1.0392Z" style="fill: #f29100; stroke-width: 0px;"/>
      <path d="m440.86334,156.31643c-.41-.01425-.82067-.0228-1.23244-.02222.41177-.00058.82244.00797,1.23244.02222Z" style="fill: #f29100; stroke-width: 0px;"/>
      <path d="m432.24643,157.15669c.02248-.00511.04516-.00978.06763-.01486.22913-.05173.45814-.10375.68889-.15128.00027-.00006.0005-.0001.00077-.00016-.25364.05225-.5056.10898-.75729.16629Z" style="fill: #f29100; stroke-width: 0px;"/>
      <path d="m433.29614,156.93423c.01329-.00263.02664-.00504.03993-.00765.21023-.04126.4201-.08351.63177-.12108l.00027-.00004c-.22514.03996-.44845.08463-.67197.12877Z" style="fill: #f29100; stroke-width: 0px;"/>
      <path d="m431.25738,157.39506c.00981-.00251.01973-.00478.02956-.00728.25302-.06434.50631-.128.76119-.18747.00024-.00006.00047-.00013.00074-.00019-.26504.06183-.52846.12784-.79149.19494Z" style="fill: #f29100; stroke-width: 0px;"/>
      <path d="m434.30462,156.75059c.00594-.001.01187-.0019.01781-.00289.20647-.03445.41257-.07009.62046-.10083.00015-.00001.00027-.00003.00044-.00006-.21404.03166-.42618.06821-.63871.10378Z" style="fill: #f29100; stroke-width: 0px;"/>
      <path d="m436.30728,156.47756c.00393-.00041.00786-.00078.01181-.0012.19711-.0207.39357-.04325.59208-.06037-.20246.01744-.40285.04037-.60389.06156Z" style="fill: #f29100; stroke-width: 0px;"/>
      <path d="m429.23174,157.96377c-2.71125.83312-5.32141,1.93109-7.87667,3.17279-1.70357.82795-3.3829,1.71986-5.05173,2.63971-3.33718,1.84018-6.63253,3.7926-9.99523,5.57108-.18911.10002-.37928.19725-.56883.29611.18952-.09884.37969-.19605.56877-.29604,3.36278-1.77847,6.65811-3.73096,9.99537-5.57104,1.66875-.91992,3.34807-1.81184,5.05168-2.63972,2.55528-1.2417,5.16532-2.3398,7.8767-3.17283.30899-.09494.61922-.18673.93069-.27519.06031-.01712.12127-.03252.18167-.04938.25184-.07034.50389-.14004.75747-.2058.00006-.00001.00006-.00003.00012-.00004-.62861.16299-1.25167.34043-1.87.53035Z" style="fill: #f29100; stroke-width: 0px;"/>
      <path d="m435.2965,156.59983c.00724-.00099.0145-.00189.02174-.00288.20305-.02769.40557-.05677.61006-.08075.00018-.00001.0003-.00003.00047-.00006-.21194.02485-.42187.05486-.63227.08369Z" style="fill: #f29100; stroke-width: 0px;"/>
      <path d="m432.04887,157.20012c-.00027.00006-.0005.00013-.00074.00019.08825-.02057.17747-.03851.26593-.05848-.02248.00508-.04516.00975-.06763.01486-.06568.01494-.13202.02815-.19756.04343Z" style="fill: #f29100; stroke-width: 0px;"/>
      <path d="m435.92877,156.51615c-.00018.00003-.0003.00004-.00047.00006.12954-.01518.26067-.02618.3908-.03984-.00396.00041-.00789.00078-.01181.0012-.12599.01328-.25305.02388-.37851.03859Z" style="fill: #f29100; stroke-width: 0px;"/>
      <path d="m431.10174,157.43342c-.00006.00001-.00006.00003-.00012.00004.06149-.01595.12372-.03002.18533-.04569-.00983.0025-.01976.00477-.02956.00728-.05174.01319-.10399.02497-.15565.03837Z" style="fill: #f29100; stroke-width: 0px;"/>
      <path d="m430.34415,157.63926c-.0604.01686-.12136.03227-.18167.04938.06031-.01713.12127-.03252.18167-.04938Z" style="fill: #f29100; stroke-width: 0px;"/>
      <path d="m433.9681,156.80546l-.00027.00004c.11758-.02087.23654-.03811.35459-.05781-.00594.00099-.01187.00189-.01781.00289-.11199.01874-.22493.03507-.33651.05487Z" style="fill: #f29100; stroke-width: 0px;"/>
      <path d="m433.00372,156.99039c-.00027.00006-.0005.0001-.00077.00016.11049-.02276.22225-.0422.33312-.06397-.01329.00261-.02664.00502-.03993.00765-.09729.01921-.19543.03619-.29242.05616Z" style="fill: #f29100; stroke-width: 0px;"/>
      <path d="m434.94333,156.64681c-.00018.00003-.0003.00004-.00044.00006.12443-.0184.25036-.03289.37535-.04991-.00724.00099-.0145.00189-.02174.00288-.11755.01611-.2361.02967-.35317.04697Z" style="fill: #f29100; stroke-width: 0px;"/>
      <path d="m387.4412,175.54728c.9842-.07265,1.95222-.18751,2.90553-.34019,2.62191-.41999,5.1336-1.1256,7.57113-2.02359-2.43759.89795-4.94925,1.60349-7.5711,2.0235-.95328.15277-1.92142.2676-2.9055.34027-.81668.06007-1.61831.05716-2.42108.05959-1.42949.00452-2.84561-.04666-4.23603-.20622,0,.00004.00006.00009.00006.00013,1.39039.15954,2.80653.21058,4.23594.20616.80286-.00247,1.60448.00049,2.42105-.05964Z" style="fill: #f29100; stroke-width: 0px;"/>
      <path d="m380.78422,175.40076c1.39039.15954,2.8063.21058,4.23594.20616-1.4294.00442-2.84555-.04662-4.23594-.20616Z" style="fill: #f29100; stroke-width: 0px;"/>
      <path d="m131.40809,168.23856c-.0008-.00003-.00159-.00013-.00239-.00018-.0048-.0003-.00954-.00097-.01438-.00111.00566.00016.01115.00128.01681.00145v-.00016h-.00003Z" style="fill: none; stroke-width: 0px;"/>
      <path d="m97.3323,131.51271h.00003c.87673-1.27758,1.12783-2.90488.38708-4.99794-4.05743-11.46465-21.37931-28.5908-21.37931-28.5908,0,0,7.34019,8.14506,5.27974,21.18439-2.06076,13.0395-5.01845,16.6483-5.01845,16.6483,0,0,3.91725.33445,8.40632.05152,4.82337-.30441,10.2911-1.33311,12.32459-4.29548Z" style="fill: none; stroke-width: 0px;"/>
      <path d="m131.70014,136.0729v-61.72586c-.10033-.10045-.19733-.19803-.29202-.29351v61.87674c.09757.04717.19457.09526.29202.14264Z" style="fill: #20529f; stroke-width: 0px;"/>
      <path d="m150.33708,128.5409c0-25.2415-5.28782-41.9305-16.59728-52.17799,0,0-1.10721-1.08223-2.03966-2.01587v61.4926c5.99884,2.90002,11.7715,6.192,17.92241,8.38007.47366-4.89319.71452-10.1659.71452-15.6788Z" style="fill: #20529f; stroke-width: 0px;"/>
      <path d="m149.60714,144.38886c.00548-.05583.01-.11322.01542-.16916-6.15092-2.18807-11.92357-5.48004-17.92241-8.38007v.23326c5.98343,2.90844,11.75116,6.18334,17.90499,8.33519.00063-.00647.00137-.01276.00201-.01923Z" style="fill: #20529f; stroke-width: 0px;"/>
      <path d="m131.70014,168.14805v-32.07515c-.09745-.04737-.19445-.09547-.29202-.14264v32.30845c.09788.00403.19503.01037.29202.01717v-.10784Z" style="fill: #3f8aca; stroke-width: 0px;"/>
      <path d="m144.75124,166.83392c.06882-.18144.13896-.36156.20628-.54447,2.29271-6.22747,3.81392-13.38517,4.6476-21.88136-6.15382-2.15184-11.92156-5.42675-17.90499-8.33519v32.07515c.4386.01819.86509.07387,1.30791.07883,4.06888.04591,7.96146-.49607,11.74319-1.39296Z" style="fill: #3f8aca; stroke-width: 0px;"/>
      <path d="m144.74306,166.85554c.00273-.00719.00545-.01443.00818-.02162-3.78173.89688-7.67431,1.43887-11.74319,1.39296-.44282-.00496-.86931-.06063-1.30791-.07883v.10784c.33762.02369.67194.05775,1.01604.06164,4.17084.04711,8.15612-.52455,12.02688-1.462Z" style="fill: #3f8aca; stroke-width: 0px;"/>
      <path d="m131.70014,179.36201v-11.10612c-.09699-.00681-.19414-.01314-.29202-.01717v11.21401c.09721.04426.19478.08786.29202.13208v-.22279Z" style="fill: #2f6eb4; stroke-width: 0px;"/>
      <path d="m136.68925,180.97857c3.29561-3.97219,6.00292-8.72201,8.05381-14.12304-3.87076.93745-7.85604,1.5091-12.02688,1.462-.3441-.00388-.67842-.03795-1.01604-.06164v11.10612c1.53108.69706,3.06621,1.38704,4.60584,2.06705.12785-.15002.25683-.29815.38327-.45049Z" style="fill: #2f6eb4; stroke-width: 0px;"/>
      <path d="m131.70014,179.36201v.22279c1.48599.67567,2.97551,1.34508,4.46983,2.00414.04554-.05294.09064-.10665.13601-.15988-1.53963-.68001-3.07476-1.37-4.60584-2.06705Z" style="fill: #2f6eb4; stroke-width: 0px;"/>
      <path d="m131.70014,179.5848c-.09724-.04421-.19481-.08782-.29202-.13208v7.19823c.09478-.10008.19178-.20244.29202-.30819v-6.75796Z" style="fill: #20529f; stroke-width: 0px;"/>
      <path d="m131.70014,186.34277c.93512-.98631,2.03966-2.14733,2.03966-2.14733.83362-.82092,1.64412-1.69281,2.43018-2.6065-1.49432-.65906-2.98384-1.32847-4.46983-2.00414v6.75796Z" style="fill: #20529f; stroke-width: 0px;"/>
      <path d="m85.00772,135.80819c-4.48908.28292-8.40632-.05152-8.40632-.05152,0,0,2.95769-3.6088,5.01845-16.6483,2.06045-13.03933-5.27974-21.18439-5.27974-21.18439,0,0,17.32187,17.12615,21.37931,28.5908.74075,2.09306.48965,3.72036-.38708,4.99794,3.12601-.80607,6.31133-1.36709,9.59368-1.54525.25249-.0137.50555-.02515.7592-.03426.50731-.01822,1.01699-.02713,1.52916-.02623,1.3658.00241,2.74941.07462,4.1534.22614,1.08304.11687,2.14588.27947,3.19123.48126,1.04535.20181,2.07321.44279,3.08624.71647.54534.14733,1.08632.30426,1.62325.47004.76029.23472,1.51272.48661,2.25795.75392.19979.07168.39925.14402.59804.2178.66827.248,1.33122.50736,1.98945.77644.65823.2691,1.31177.54794,1.96123.83492.08079.03571.16166.07128.24233.10722,1.03893.46283,2.06829.94466,3.09064,1.4389v-61.87657c-.11-.11092-.21646-.21864-.31417-.31838v-.45846c-10.62358-8.19068-26.05126-12.06062-47.42656-12.06062-37.46096,0-58.08449,17.40083-61.74466,54.93784,16.9876,3.69441,42.99116,12.12917,55.4438,22.96772,2.55009-1.11671,5.09062-2.24567,7.64119-3.31345Z" style="fill: #1d70b7; stroke-width: 0px;"/>
      <path d="m117.23138,165.52773c-.2072-.06701-.41487-.13273-.62146-.20151-.17645-.05874-.35201-.12015-.52803-.18014-.20932-.07134-.41903-.14163-.62778-.21467-.16928-.05925-.33777-.12074-.50669-.18106-.2152-.07683-.4307-.15284-.64534-.23134-.15898-.05815-.3173-.11823-.47598-.17725-.22428-.08342-.44876-.16625-.67247-.25132-.14621-.05563-.29187-.11279-.43785-.16908-.2365-.09119-.4731-.18206-.70902-.27494-.13096-.05155-.26148-.10436-.39225-.1564-.25101-.0999-.50203-.19971-.75243-.30131-.1127-.04575-.2251-.0924-.33768-.13846-.27062-.11069-.54114-.2216-.81112-.33405-.08556-.03565-.1709-.07186-.25639-.10768-.29859-.12505-.59704-.2506-.89494-.37751-.05347-.0228-.10683-.04587-.16028-.06871-.33387-.14264-.66743-.28606-1.00055-.43067-.00852-.00369-.01701-.00744-.02553-.01113-8.03695-3.49042-15.86577-7.50368-24.19739-9.70623,12.24958,3.23846,23.40911,10.40011,35.74695,14.04071-.38576-.11412-.77039-.23168-1.15394-.35242-.18044-.05681-.35986-.1166-.53984-.17481Z" style="fill: #3f8aca; stroke-width: 0px;"/>
      <path d="m84.83956,200.25556c5.67408-.27904-2.36663,0,0,0h0Z" style="fill: #20529f; stroke-width: 0px;"/>
      <path d="m131.40812,186.65096v-7.19823c-10.56144-4.80819-21.04681-9.5878-33.12802-8.84446-6.08186.37433-11.5231,2.13538-16.75731,4.34149-10.48182,4.41771-20.11921,10.65009-32.31022,11.31639-3.6508.19961-7.23458-.14162-10.73875-.80954-2.51924-.48027-4.98082-1.1687-7.40608-1.9353,5.24341,3.53582,11.3734,6.80049,18.49251,9.81793,6.61673,2.8046,12.80792,4.63314,18.64448,5.61258-.57635-.08154-.34094-.73991-.0176-.61931l.0176.61931,1.72213.25177c4.05792.56699,11.19535,1.31974,14.9127,1.05198-2.36663,0,5.67408-.27904,0,0,31.16667.47176,46.25439-13.27264,46.25439-13.27264.09794-.10359.20435-.21601.31417-.33197Z" style="fill: #20529f; stroke-width: 0px;"/>
      <path d="m76.07236,150.64699c-.55796-.06533-1.12287-.10607-1.68668-.15027.56448.04263,1.12836.08659,1.68668.15027Z" style="fill: #f29100; stroke-width: 0px;"/>
      <path d="m30.32625,143.96497c.34405.11898.68889.23558,1.03459.3497,1.22547.40458,2.4617.7773,3.71086,1.11113.63989.171,1.28315.33194,1.93017.48135.12227.02823.24469.05609.36723.08351.38923.0871.77994.1697,1.17195.2483.17715.03552.35459.07014.53234.10386.68307.12955,1.37042.24604,2.06265.3475.2479.03634.4964.07082.74552.10339,1.74389.22792,3.51828.36194,5.32918.3824.34134.00384.68148.00366,1.02044-.00041,1.01688-.01226,2.02321-.05962,3.01989-.1389.99667-.07927,1.98369-.19044,2.96193-.33024.65218-.09321,1.30044-.19914,1.94509-.31684,1.28929-.2354,2.5641-.5179,3.82653-.83977.3156-.08047.63044-.1634.94454-.24866,5.65373-1.53489,11.06791-3.82839,16.43735-6.17964h.00001c-12.45263-10.83855-38.45619-19.27331-55.4438-22.96772-.39306,4.03191-.65032,8.22516-.65032,12.72684,0,4.06018.1208,7.9214.35221,11.61854,1.90767.83647,3.82705,1.64363,5.76729,2.39125.53332.20549,1.06826.40638,1.60497.6021.44185.16112.88495.31865,1.32936.47233Z" style="fill: #1d70b7; stroke-width: 0px;"/>
      <path d="m78.52424,151.00466c-.78208-.13314-1.56765-.25401-2.36111-.34743.7926.09585,1.57956.21219,2.36111.34743Z" style="fill: #f29100; stroke-width: 0px;"/>
      <path d="m79.4619,151.17245c.21634.04163.43133.08788.64714.13132-.02298-.00461-.04581-.00975-.06879-.01434-.19293-.0385-.38495-.08024-.57836-.11699Z" style="fill: #f29100; stroke-width: 0px;"/>
      <path d="m81.10612,151.51158c.41602.09116.83135.1848,1.24415.28749-.26615-.06616-.53407-.12601-.80175-.18673-.14749-.03346-.2945-.06867-.4424-.10076Z" style="fill: #f29100; stroke-width: 0px;"/>
      <path d="m49.21257,186.26614c12.19102-.6663,21.8284-6.89868,32.31022-11.31639,5.23421-2.20611,10.67545-3.96716,16.75731-4.34149,12.08121-.74334,22.56657,4.03627,33.12802,8.84446v-11.21401c-.00566-.00016-.01115-.00128-.01681-.00145-.30637-.01286-.61129-.03023-.91528-.05042-.05451-.00362-.10836-.0092-.16279-.01304-.20863-.01462-.41627-.03235-.62393-.04997-.10782-.00924-.21643-.01596-.32399-.02595-.29028-.02692-.5797-.0565-.86838-.08837-.31399-.0345-.62721-.0714-.93955-.11106-.14466-.01831-.28809-.04037-.43163-.06214-.03627-.00549-.07246-.01118-.1087-.01675-.20247-.031-.40465-.06279-.60718-.09351l-.00377-.00058c-.90597-.13742-1.80594-.29326-2.6964-.47753-.16656-.03436-.33191-.07203-.49801-.10751-.21866-.04662-.43791-.09159-.65549-.1415-.3335-.07658-.66477-.15981-.99643-.24189-.04516-.01118-.09005-.02311-.13518-.03435-.22561-.05625-.45105-.11297-.67581-.17177-.3724-.09653-.744-.1955-1.11364-.30035-.03018-.00854-.0606-.01641-.09086-.02472-.03293-.00907-.06589-.018-.09887-.02689-.10471-.02823-.20907-.0575-.31364-.08624-.03402-.00935-.06803-.01871-.10195-.02834-.03051-.00865-.06127-.01652-.09167-.02549-.00434-.00128-.00867-.00269-.01301-.00397-12.33783-3.6406-23.49736-10.80225-35.74695-14.04071-.27492-.07267-.54968-.1459-.82571-.21455-.00028-.00009-.00062-.00019-.00095-.00028-.00022-.00006-.00044-.00013-.00063-.00019-.00016,0-.00049-.00016-.00065-.00016-.4128-.10269-.82813-.19633-1.24415-.28749-.33161-.07198-.66402-.14106-.99708-.2078-.21581-.04345-.4308-.0897-.64714-.13132-.00343-.00065-.00681-.00142-.01023-.00207-.2944-.05669-.59024-.10771-.8861-.15907-.01373-.00235-.02759-.00431-.04132-.00665-.78155-.13524-1.56851-.25157-2.36111-.34743-.0119-.0014-.02366-.00337-.03557-.00476-.0183-.0022-.03689-.00335-.0552-.00549-.55832-.06368-1.1222-.10764-1.68668-.15027-.01398-.00109-.02797-.0022-.04194-.00331-.02403-.00182-.04799-.00387-.072-.00573-.00921-.00071-.01843-.00148-.02764-.0022-.272-.0218-.5437-.04467-.81614-.06496-.00013-.00001-.00028-.00001-.00041-.00003-.29834-.02222-.59755-.04132-.89917-.05188-.00024-.00001-.00047-.00001-.00071-.00003h-.00013c-.00065-.00003-.00131-.00003-.00196-.00006-1.26574-.04098-2.54289-.04204-3.84347.03801-.97023.05975-1.92269.15777-2.8624.28374-.01059.00142-.02085.00351-.03141.00498-.28737.0398-.56817.09448-.85303.14004-.01082.00173-.02152.0038-.03235.00549-.62722.09867-1.25444.19702-1.86955.32169-.34285.06944-.67874.15472-1.01803.23174-.57071.12951-1.14109.25903-1.70258.40856-.33575.08931-.66647.18976-.99915.28552-.07099.02047-.14163.04164-.21257.06221-.45291.13132-.90461.26548-1.35219.40846-.0381.01217-.07669.02327-.11473.03559-.30716.09932-.61108.20525-.91598.30925-.02002.00685-.03992.01397-.05993.02082-.52202.17879-1.04213.36199-1.55848.55327-.03844.01424-.07726.02766-.11566.042-.26404.09866-.52711.20008-.78985.30183-.62868.2432-1.25478.49254-1.87651.75076-.18878.07833-.3774.15729-.5657.2369-.75223.31814-1.50136.64321-2.24632.97686-.01921.00855-.03844.01712-.05765.02567-6.66193,2.99145-13.08988,6.48285-20.17605,8.53716.02983.00185.05967.00224.0895.00335.10155.0038.20324.00555.30468.01075.00431.00022.00862.00021.01294.00044h-.00049c-.00415-.00022-.0083-.00024-.01245-.00044-.10151-.00517-.20311-.00698-.30468-.01075-.02488-.00093-.04978-.00121-.07463-.00263,1.10076.06741,2.20282.10801,3.30568.11733.02277.00016.04554-.00161.06831-.00145-.02277-.00016-.04554.00161-.06831.00145-1.10798-.00936-2.21499-.0499-3.32087-.11789-.00032.00016-.00065.00016-.00096.00032-1.09394.31717-2.19885.61092-3.32783.8517-2.04155.43571-4.14172.74366-6.3283.86332-.38309.02093-.7655.03608-1.14719.04565-.38169.00958-.76265.01359-1.14288.01224-.79431-.00281-1.58529-.02974-2.37289-.07732-.46911-.02835-.93711-.06354-1.40372-.10668,2.80928,4.59163,6.50803,8.82428,11.13488,12.74799.13807.11725.2453.24483.38514.36143,1.73585,1.44742,3.60058,2.85222,5.59837,4.21616.12806.08754.27228.17022.40146.25726,2.42526.76659,4.88684,1.45503,7.40608,1.9353,3.50418.66792,7.08795,1.00914,10.73875.80954Zm3.76529-23.5565c1.89509-.16262,3.78904-.27824,5.67992-.30909-1.89088.03085-3.78467.14664-5.67975.30909-.17796.01534-.35608.0394-.53404.05539.17796-.01599.35592-.04005.53388-.05539Z" style="fill: #2f6eb4; stroke-width: 0px;"/>
      <path d="m127.12576,167.83633c.14354.02177.28697.04383.43163.06214-.03216-.00409-.06388-.00952-.09599-.01382-.11225-.015-.22403-.03141-.33564-.04832Z" style="fill: #2f6eb4; stroke-width: 0px;"/>
      <path d="m121.55978,166.75708c.33166.08208.66293.1653.99643.24189-.05341-.01224-.10621-.02636-.15957-.03875-.27984-.06505-.5583-.1342-.83686-.20314Z" style="fill: #2f6eb4; stroke-width: 0px;"/>
      <path d="m127.55739,167.89847c.31234.03966.62555.07657.93955.11106-.286-.03156-.57127-.06536-.85591-.10113-.02782-.00349-.05583-.00641-.08364-.00994Z" style="fill: #2f6eb4; stroke-width: 0px;"/>
      <path d="m130.47603,168.18686c.304.02019.60891.03755.91528.05042-.0766-.00322-.15238-.00892-.22882-.01261-.22932-.01108-.45846-.02267-.68647-.0378Z" style="fill: #2f6eb4; stroke-width: 0px;"/>
      <path d="m18.46737,166.11022c.38167-.00957.76407-.02472,1.14716-.04565,2.18658-.11966,4.28675-.42763,6.3283-.86332-.00058-.00174,3.32861-.85218,3.32908-.85218h.00003c7.08618-2.05431,13.51283-5.54878,20.17605-8.53716.01923-.00855.03844-.01695.05765-.02568.00148-.00066.00297-.00127.00444-.00193.74269-.33293,1.48995-.65649,2.23984-.97403l.00204-.00089c.1883-.07961.37676-.15842.5657-.2369.00056-.00024.00112-.00044.00168-.00068.61981-.25776,1.24443-.50576,1.87111-.74861.00124-.00049.00248-.001.00372-.00149.26275-.10173.52565-.20315.78985-.30181.03823-.01428.07689-.02764.11517-.04182.00018-.00006.00034-.00012.00052-.00018.52071-.19287,1.04516-.3776,1.57161-.55783.01559-.00542.03116-.01091.04678-.01626.30488-.10417.60897-.20995.91596-.30925.03783-.01224.07621-.02329.11411-.0354.00022-.00007.00043-.00012.00065-.00019.44759-.14299.89925-.27717,1.35219-.40846.00063-.00018.00124-.00038.00188-.00056.07031-.02038.14033-.04138.21068-.06167.3325-.09608.66355-.19621.99913-.28551.56149-.14938,1.13187-.27922,1.70258-.40856.33929-.0772.67502-.16214,1.01803-.23174.61511-.12466,1.24233-.22318,1.86957-.32169.00577-.0009.01147-.00202.01725-.00294.00628-.001.01248-.00217.01875-.00317.28654-.04594.56901-.10111.85828-.14083.00749-.00124.01491-.00254.02249-.00356.93971-.12596,1.89218-.22399,2.86241-.28374.65064-.04005,1.29569-.06065,1.93624-.06567.55144-.00434,1.099.00476,1.64452.02101.088.00263.17647.0036.26433.00669.00016,0,.00032.00001.00049.00001h.00013c.30211.00973.60151.02924.89999.05192.0277.00211.05533.00436.08302.00651.24457.01903.48873.03944.73329.05846.03323.00266.06645.0053.09968.00793.59621.047,1.19421.08817,1.78382.15907.81955.0956,1.63056.22092,2.438.35883.29601.05055.59154.10319.8861.15907.19683.03736.39223.07988.58856.11905.02299.00459.04582.00973.06882.01434.33294.06701.66559.13516.99693.20777.14794.03212.29497.06731.44251.10079.26767.06072.53559.12056.80173.18672.00016,0,.00049.00016.00065.00016.00021.00007.00043.00013.00066.00021.00034.0001.00068.00019.00097.00028,8.64165,2.14904,16.72116,6.31439,25.02306,9.92078.00852.00369.01703.00744.02553.01113.33309.14464.66668.288,1.00055.43067.05346.02283.10681.04593.16028.06871.2979.12692.59634.25244.89494.37751.0855.03581.17084.07203.25639.10768.26996.11248.54051.22332.81112.33405.11258.04606.22498.09272.33768.13846.25039.10161.50142.20139.75243.30131.13078.05204.26131.10485.39225.1564.23591.09289.47252.18373.70902.27494.14597.05628.29164.11349.43785.16908.22371.08509.44818.1679.67247.25132.15869.05901.31699.11911.47598.17725.21463.0785.43014.15451.64534.23134.16892.06029.3374.12183.50669.18106.20875.07304.41844.14332.62778.21467.17604.06.35156.1214.52803.18014.20661.0688.41426.13451.62146.20151.17998.0582.3594.118.53984.17481.38787.12211.77683.24106,1.16698.35639.03125.00921.06279.01756.09423.0262.17009.04827.34099.09374.51156.14067.03042.00823.0609.01624.0912.02481.36961.10458.74134.20295,1.1134.30029.22502.05833.45037.11561.67607.17183.32352.08064.64679.162.97198.23749.05335.0124.10615.02648.15954.03873.21768.04982.43689.09482.65552.14151.16615.03543.33154.07299.49804.10751.89061.18394,1.79027.34043,2.6964.47753.2038.03089.40729.06283.61101.0941.14776.02262.29559.04513.44426.06505.03209.0043.06381.00973.09597.01381.02782.00353.05583.00645.08366.00995.67845.08509,1.36114.15714,2.04828.21544.20761.01779.41534.03523.62393.04997.28217.01977.56514.03711.84926.05084.07643.00369.15222.00938.2288.0126.00484.00013.00957.00083.0144.00112.0008.00004.00159.00015.00239.00018v-32.30845c-1.02235-.49423-2.05169-.97607-3.09061-1.4389-.08067-.03594-.16154-.07152-.24233-.10722-.64946-.28699-1.303-.56582-1.96123-.83492-.65823-.26909-1.32118-.52844-1.98945-.77644-.1988-.07378-.39826-.14612-.59804-.2178-.74523-.26732-1.49764-.51918-2.25795-.75392-.53693-.16578-1.07792-.32271-1.62325-.47004-1.01303-.27368-2.04088-.51467-3.08624-.71647-1.04535-.20179-2.10821-.36439-3.19125-.48126-1.40399-.15151-2.78759-.22374-4.15339-.22614-.51217-.0009-1.02184.008-1.52916.02623-.25364.00911-.50671.02056-.7592.03426-3.28235.17818-6.46767.7392-9.59369,1.54527-2.03347,2.96237-7.5012,3.99105-12.32457,4.29546-2.55057,1.06777-5.09113,2.19675-7.64122,3.31345-5.36944,2.35125-10.78363,4.64475-16.43736,6.17964-.3141.08527-.62893.1682-.94454.24866-1.26243.32187-2.53722.60436-3.82653.83977-.64465.11771-1.29291.22363-1.94509.31684-.97824.1398-1.96526.25097-2.96193.33024-.99668.07928-2.00301.12664-3.01989.1389-.33897.00408-.6791.00425-1.02044.00041h-.00003c-1.8109-.02045-3.58528-.15448-5.32915-.3824-.24912-.03256-.49762-.06704-.74552-.10339-.69223-.10147-1.37958-.21795-2.06265-.3475-.17775-.03371-.3552-.06834-.53234-.10386-.39201-.07859-.78272-.1612-1.17195-.2483-.12254-.02742-.24496-.05527-.36723-.08351-.64702-.14941-1.29028-.31035-1.93017-.48135-1.24916-.33383-2.48539-.70655-3.71086-1.11113-.3457-.11412-.69054-.23072-1.03459-.3497-.4444-.15368-.88751-.3112-1.32936-.47233-.53671-.19572-1.07165-.39662-1.60497-.6021-1.94026-.74762-3.85965-1.55478-5.76732-2.39125-3.95843-1.73553-7.86875-3.58862-11.81459-5.28717,0,0-14.31414-6.51563-8.36097-3.54584,3.77644,1.88394,6.08703,11.98497,7.27495,19.12862-.00193.18717-.02342.40453-.02293.58766-.00112.01373-.0021.0294-.00322.04312l.00484.00905c.00823,1.99794.16569,3.75577.53178,5.1507.03101.11837.06363.234.0977.34704.03602.11982.07397.23659.11353.35028l.00016.00016v-.00016s.00001.00001.00003.00001h0c.0003.00019.00059.0004.00089.00061.00573.00411.01183.00783.01765.01198,0,.00016.00049.00049.00049.00049-.00365-.00263-.00734-.00505-.01103-.00749.7413.53538,1.49677,1.05018,2.26805,1.53986-.77373-.49123-1.53164-1.00745-2.27515-1.54468-.0003-.00021-.00062-.0004-.00092-.00062.0373.10706.07509.21412.11321.32088.05393.15099.10869.30166.16406.45185,1.01191,2.74113,2.28476,5.36582,3.82473,7.8828.46661.04313.93463.07834,1.40375.10669.78762.04759,1.57858.07452,2.37289.07732.38023.00134.76119-.00266,1.14288-.01224Z" style="fill: #3f8aca; stroke-width: 0px;"/>
      <path d="m128.07515,134.38398c-.64946-.28699-1.303-.56582-1.96123-.83492.65823.2691,1.31177.54794,1.96123.83492Z" style="fill: #3f8aca; stroke-width: 0px;"/>
      <path d="m80.04026,151.28944c.02298.00459.04581.00973.06879.01434h.00003c-.02299-.00461-.04582-.00975-.06882-.01434Z" style="fill: #3f8aca; stroke-width: 0px;"/>
      <path d="m81.10601,151.51155s.00007.00001.00012.00003c.14789.03209.2949.06729.4424.10076-.14754-.03348-.29458-.06867-.44251-.10079Z" style="fill: #3f8aca; stroke-width: 0px;"/>
      <path d="m80.10907,151.30377h-.00003c.33306.06675.66547.13583.99708.2078-.00004-.00001-.00007-.00001-.00012-.00003-.33154-.07196-.66393-.14103-.99693-.20777Z" style="fill: #3f8aca; stroke-width: 0px;"/>
      <path d="m119.03243,166.08513c.03315.00911.06622.01852.09937.02763.10457.02874.20893.05801.31364.08624.03287.00886.0657.01793.09856.0268-.17058-.04693-.34148-.0924-.51156-.14067Z" style="fill: #3f8aca; stroke-width: 0px;"/>
      <path d="m80.10907,151.30377c.333.06675.66539.13581.99693.20777-.33135-.07261-.66399-.14076-.99693-.20777Z" style="fill: #3f8aca; stroke-width: 0px;"/>
      <path d="m119.54399,166.2258l.00031.00009c.03027.00833.06068.01616.09089.02472-.0303-.00856-.06078-.01658-.0912-.02481Z" style="fill: #3f8aca; stroke-width: 0px;"/>
      <path d="m119.44543,166.199c.03298.00889.06594.01782.09887.02689l-.00031-.00009c-.03286-.00888-.06568-.01794-.09856-.0268Z" style="fill: #3f8aca; stroke-width: 0px;"/>
      <path d="m118.9382,166.05894c.03039.00899.06115.01682.09165.02549.00086.00025.00173.00046.00258.00071-.03144-.00864-.06298-.01698-.09423-.0262Z" style="fill: #3f8aca; stroke-width: 0px;"/>
      <path d="m119.02984,166.08442c.03392.00963.06793.01899.10195.02834-.03315-.00911-.06622-.01852-.09937-.02763-.00086-.00025-.00173-.00046-.00258-.00071Z" style="fill: #3f8aca; stroke-width: 0px;"/>
      <path d="m97.3323,131.51271c-2.03349,2.96237-7.50121,3.99107-12.32459,4.29548h.00003c4.82337-.30441,10.2911-1.33309,12.32457-4.29546h.00001s-.00001-.00001-.00003-.00001Z" style="fill: #3f8aca; stroke-width: 0px;"/>
      <path d="m109.21436,129.90697c-.51217-.0009-1.02184.008-1.52916.02623.50731-.01822,1.01699-.02713,1.52916-.02623Z" style="fill: #3f8aca; stroke-width: 0px;"/>
      <path d="m97.33232,131.51272c3.12602-.80607,6.31135-1.36709,9.59369-1.54527-3.28235.17817-6.46767.73919-9.59368,1.54525h-.00001Z" style="fill: #3f8aca; stroke-width: 0px;"/>
      <path d="m77.36653,139.12163c2.55009-1.11669,5.09065-2.24567,7.64122-3.31345h-.00003c-2.55057,1.06777-5.0911,2.19674-7.64119,3.31345Z" style="fill: #3f8aca; stroke-width: 0px;"/>
      <path d="m107.40113,161.73162c.33312.14462.66668.28803,1.00055.43067-.33387-.14267-.66746-.28603-1.00055-.43067Z" style="fill: #3f8aca; stroke-width: 0px;"/>
      <path d="m112.00676,163.64641c.23592.09287.47252.18375.70902.27494-.2365-.0912-.47311-.18205-.70902-.27494Z" style="fill: #3f8aca; stroke-width: 0px;"/>
      <path d="m113.15362,164.09043c.22371.08507.44818.1679.67247.25132-.22428-.08342-.44876-.16623-.67247-.25132Z" style="fill: #3f8aca; stroke-width: 0px;"/>
      <path d="m114.30207,164.519c.21464.0785.43014.15451.64534.23134-.2152-.07683-.43071-.15284-.64534-.23134Z" style="fill: #3f8aca; stroke-width: 0px;"/>
      <path d="m116.60991,165.32622c.20659.06879.41426.1345.62146.20151-.2072-.067-.41485-.13271-.62146-.20151Z" style="fill: #3f8aca; stroke-width: 0px;"/>
      <path d="m115.4541,164.9314c.20875.07304.41846.14333.62778.21467-.20934-.07136-.41903-.14163-.62778-.21467Z" style="fill: #3f8aca; stroke-width: 0px;"/>
      <path d="m110.86208,163.1887c.25041.1016.50142.20141.75243.30131-.25101-.09991-.50204-.1997-.75243-.30131Z" style="fill: #3f8aca; stroke-width: 0px;"/>
      <path d="m82.35253,151.7997c.27603.06864.55077.14187.82568.21455,8.33161,2.20255,16.16044,6.21582,24.19739,9.70623-8.3019-3.6064-16.38141-7.77175-25.02306-9.92078Z" style="fill: #3f8aca; stroke-width: 0px;"/>
      <path d="m109.71329,162.71619c.26997.11245.54049.22335.81112.33405-.27061-.11072-.54116-.22157-.81112-.33405Z" style="fill: #3f8aca; stroke-width: 0px;"/>
      <path d="m117.77122,165.70254c.38355.12074.76817.2383,1.15394.35242.00436.00128.00868.00269.01304.00397-.39015-.11533-.7791-.23428-1.16698-.35639Z" style="fill: #3f8aca; stroke-width: 0px;"/>
      <path d="m108.56196,162.231c.2979.12691.59634.25246.89494.37751-.29859-.12506-.59704-.25058-.89494-.37751Z" style="fill: #3f8aca; stroke-width: 0px;"/>
      <path d="m114.94741,164.75034c.16892.06032.33742.12181.50669.18106-.16929-.05923-.33777-.12077-.50669-.18106Z" style="fill: #3f8aca; stroke-width: 0px;"/>
      <path d="m116.08188,165.14607c.17602.06.35158.1214.52803.18014-.17647-.05874-.35199-.12015-.52803-.18014Z" style="fill: #3f8aca; stroke-width: 0px;"/>
      <path d="m117.23138,165.52773c.17998.05821.3594.118.53984.17481-.18044-.05681-.35986-.11662-.53984-.17481Z" style="fill: #3f8aca; stroke-width: 0px;"/>
      <path d="m110.5244,163.05024c.11258.04606.22498.09271.33768.13846-.1127-.04573-.2251-.0924-.33768-.13846Z" style="fill: #3f8aca; stroke-width: 0px;"/>
      <path d="m113.82609,164.34175c.15867.05902.31699.1191.47598.17725-.15898-.05814-.31729-.11824-.47598-.17725Z" style="fill: #3f8aca; stroke-width: 0px;"/>
      <path d="m109.4569,162.60851c.08549.03583.17083.07203.25639.10768-.08555-.03565-.17089-.07187-.25639-.10768Z" style="fill: #3f8aca; stroke-width: 0px;"/>
      <path d="m107.3756,161.72049c.00852.00369.01701.00744.02553.01113-.00851-.00369-.01701-.00744-.02553-.01113Z" style="fill: #3f8aca; stroke-width: 0px;"/>
      <path d="m108.40168,162.16229c.05346.02284.10681.04591.16028.06871-.05347-.02279-.10683-.04588-.16028-.06871Z" style="fill: #3f8aca; stroke-width: 0px;"/>
      <path d="m111.61452,163.49001c.13076.05204.26129.10485.39225.1564-.13094-.05155-.26147-.10436-.39225-.1564Z" style="fill: #3f8aca; stroke-width: 0px;"/>
      <path d="m112.71578,163.92134c.14597.05629.29164.11346.43785.16908-.14621-.0556-.29187-.11281-.43785-.16908Z" style="fill: #3f8aca; stroke-width: 0px;"/>
      <path d="m74.34377,150.49341c.01398.00105.02792.00224.04191.00331.56381.0442,1.12871.08494,1.68668.15027.01834.0021.0369.00335.05523.00549-.58961-.0709-1.18761-.11207-1.78382-.15907Z" style="fill: #3f8aca; stroke-width: 0px;"/>
      <path d="m60.92916,145.30127c5.65373-1.53489,11.06793-3.82839,16.43736-6.17964h-.00001c-5.36944,2.35125-10.78362,4.64475-16.43735,6.17964Z" style="fill: #3f8aca; stroke-width: 0px;"/>
      <path d="m76.12759,150.65248c.01189.00143.02366.00332.03554.00476.79346.09342,1.57903.21429,2.36111.34743.01373.00238.02761.00425.04135.00665-.80744-.13791-1.61845-.26323-2.438-.35883Z" style="fill: #3f8aca; stroke-width: 0px;"/>
      <path d="m79.4517,151.17038c.00341.00065.00679.00142.0102.00207.19341.03674.38542.07849.57836.11699-.19633-.03918-.39173-.08169-.58856-.11905Z" style="fill: #3f8aca; stroke-width: 0px;"/>
      <path d="m118.92516,166.05496c.00434.00128.00867.00269.01301.00397.03041.00896.06117.01683.09167.02549-.03049-.00867-.06125-.01649-.09165-.02549-.00436-.00128-.00868-.00269-.01304-.00397Z" style="fill: #3f8aca; stroke-width: 0px;"/>
      <path d="m82.35156,151.79942c.00032.00009.00066.00019.00095.00028.27603.06865.55079.14188.82571.21455-.27491-.07268-.54965-.14591-.82568-.21455-.0003-.00009-.00063-.00018-.00097-.00028Z" style="fill: #3f8aca; stroke-width: 0px;"/>
      <path d="m123.70974,167.24797c-.1665-.03451-.33189-.07208-.49804-.10751.1661.03547.33145.07314.49801.10751.89046.18426,1.79043.3401,2.6964.47753l.00377.00058c-.00124-.00019-.0025-.00038-.00374-.00058-.90613-.1371-1.80579-.29359-2.6964-.47753Z" style="fill: #3f8aca; stroke-width: 0px;"/>
      <path d="m127.01705,167.81958c.03624.00557.07243.01125.1087.01675-.03624-.00549-.0724-.01118-.10861-.01673-.00003-.00001-.00006-.00001-.00009-.00001Z" style="fill: #3f8aca; stroke-width: 0px;"/>
      <path d="m121.42461,166.72273c.04513.01124.09002.02317.13518.03435-.04513-.01116-.09001-.02311-.13512-.03435h-.00006Z" style="fill: #3f8aca; stroke-width: 0px;"/>
      <path d="m119.63519,166.25061c-.03021-.00856-.06062-.01639-.09089-.02472.03026.00831.06068.01618.09086.02472.36964.10485.74124.20382,1.11364.30035-.00007-.00003-.00013-.00004-.00021-.00006-.37232-.09652-.74384-.19546-1.1134-.30029Z" style="fill: #3f8aca; stroke-width: 0px;"/>
      <path d="m74.27174,150.48768c.02401.00186.04798.00391.072.00573.01397.00111.02795.00222.04194.00331-.01398-.00106-.02792-.00226-.04191-.00331-.02404-.00182-.04801-.00387-.07203-.00573Z" style="fill: #3f8aca; stroke-width: 0px;"/>
      <path d="m76.07236,150.64699c.01831.00214.0369.00329.0552.00549.01192.00139.02367.00335.03557.00476-.01189-.00143-.02366-.00332-.03554-.00476-.01833-.00214-.03689-.0034-.05523-.00549Z" style="fill: #3f8aca; stroke-width: 0px;"/>
      <path d="m78.56559,151.01131c-.01373-.00239-.02761-.00427-.04135-.00665.01373.00233.02759.0043.04132.00665.29586.05136.59171.10238.8861.15907.00343.00065.00681.00142.01023.00207-.00341-.00065-.00679-.00142-.0102-.00207-.29456-.05588-.5901-.10852-.8861-.15907Z" style="fill: #3f8aca; stroke-width: 0px;"/>
      <path d="m127.01714,167.8196c.03621.00555.07237.01124.10861.01673.11161.01691.2234.03331.33564.04832-.14866-.01992-.2965-.04243-.44426-.06505Z" style="fill: #3f8aca; stroke-width: 0px;"/>
      <path d="m127.01705,167.81958c-.20244-.03107-.40465-.0628-.60718-.09351.20253.03072.40471.06251.60718.09351Z" style="fill: #3f8aca; stroke-width: 0px;"/>
      <path d="m126.40614,167.7255c.00124.00019.0025.00038.00374.00058.20253.0307.40474.06244.60718.09351.00003,0,.00006,0,.00009.00001-.20371-.03126-.40721-.0632-.61101-.0941Z" style="fill: #3f8aca; stroke-width: 0px;"/>
      <path d="m121.42466,166.72273c.04511.01124.08999.02318.13512.03435.27855.06893.55702.13809.83686.20314-.32519-.07549-.64846-.15684-.97198-.23749Z" style="fill: #3f8aca; stroke-width: 0px;"/>
      <path d="m119.63519,166.25061c.36956.10483.74108.20377,1.1134.30029-.37206-.09735-.74379-.19571-1.1134-.30029Z" style="fill: #3f8aca; stroke-width: 0px;"/>
      <path d="m121.42461,166.72273c-.22563-.0562-.45089-.11347-.67581-.17177.22476.0588.45019.11552.67581.17177Z" style="fill: #3f8aca; stroke-width: 0px;"/>
      <path d="m120.74859,166.5509c.00007.00001.00013.00003.00021.00006.22492.0583.45018.11557.67581.17177h.00006c-.2257-.05622-.45105-.1135-.67607-.17183Z" style="fill: #3f8aca; stroke-width: 0px;"/>
      <path d="m128.49693,168.00953c.28873.03172.57811.06145.86838.08837.10756.00998.21618.0167.32399.02595-.68715-.0583-1.36983-.13035-2.04828-.21544.28464.03577.56991.06957.85591.10113Z" style="fill: #3f8aca; stroke-width: 0px;"/>
      <path d="m130.31324,168.17382c.05443.00384.10829.00942.16279.01304.22801.01514.45715.02673.68647.0378-.28412-.01373-.56709-.03107-.84926-.05084Z" style="fill: #3f8aca; stroke-width: 0px;"/>
      <path d="m129.36532,168.0979c-.29028-.02692-.57966-.05665-.86838-.08837.28868.03187.57811.06145.86838.08837Z" style="fill: #3f8aca; stroke-width: 0px;"/>
      <path d="m130.31324,168.17382c-.20859-.01474-.41632-.03218-.62393-.04997.20766.01762.4153.03535.62393.04997Z" style="fill: #3f8aca; stroke-width: 0px;"/>
      <path d="m74.2441,150.48548c.00921.00072.01843.00149.02764.0022.02403.00186.04799.00391.07203.00573-.03323-.00263-.06645-.00527-.09968-.00793Z" style="fill: #3f8aca; stroke-width: 0px;"/>
      <path d="m73.42796,150.42052c.27244.02029.54414.04316.81614.06496-.24456-.01902-.48872-.03943-.73329-.05846-.02761-.00214-.05521-.00439-.08284-.0065Z" style="fill: #3f8aca; stroke-width: 0px;"/>
      <g>
        <path d="m378.14508,141.92105c.2816-.06733.57224-.12589.85706-.19006v-.00006c-.28483.06423-.57534.12279-.85706.19012Z" style="fill: none; stroke-width: 0px;"/>
        <path d="m397.48611,139.81286c-.81717.00013-1.62207.01194-2.41923.03112.79741-.01892,1.60206-.03099,2.41923-.03112Z" style="fill: none; stroke-width: 0px;"/>
        <polygon points="381.18096 141.27599 381.18444 141.27534 381.18096 141.27599 381.18096 141.27599" style="fill: none; stroke-width: 0px;"/>
        <path d="m407.32505,140.1696c-.03447-.00258-.06921-.00491-.10394-.00736.03473.00245.06946.00478.10394.00736.55093.04196,1.09657.08806,1.63821.13738.13957.01278.27786.0266.41678.03983-.13893-.01323-.27721-.02705-.41678-.03983-.54164-.04932-1.08728-.09542-1.63821-.13738Z" style="fill: none; stroke-width: 0px;"/>
        <path d="m405.12429,140.02435c-.46907-.02686-.94138-.05113-1.41704-.07282-.05552-.00245-.11078-.00516-.16604-.00788.05526.00271.11052.00542.16604.00788.47566.02169.94796.04596,1.41704.07282.16759.00955.3348.0195.50161.0297.41046.02518.81743.0532,1.22285.08238-.40529-.02918-.81239-.0572-1.22285-.08238-.16682-.0102-.33402-.02014-.50161-.0297Z" style="fill: none; stroke-width: 0px;"/>
        <path d="m410.63014,140.47315c-.41394-.04435-.83073-.08644-1.25009-.12634.41937.0399.83615.08199,1.25009.12634.15378.01653.30781.03286.46094.04997.26598.02976.52782.06294.79199.09425-.26417-.03131-.52601-.06449-.79199-.09425-.15313-.01711-.30716-.03344-.46094-.04997Z" style="fill: none; stroke-width: 0px;"/>
        <path d="m401.20165,139.86225c-.2275-.006-.45784-.00975-.68663-.01453.22879.00484.45913.00852.68663.01453.15106.00394.30303.00729.45345.01168.29141.00865.57818.02092.86739.03125-.28922-.01033-.57598-.0226-.86739-.03125-.15042-.00439-.30239-.00775-.45345-.01168Z" style="fill: none; stroke-width: 0px;"/>
        <path d="m389.19009,140.16922c-.24274.02137-.48224.04571-.72291.06895.2408-.02311.48005-.04777.72291-.06895Z" style="fill: none; stroke-width: 0px;"/>
        <path d="m369.76681,144.58701c-1.05926.42692-2.09063.88173-3.0945,1.3641,1.00387-.48237,2.03524-.93718,3.0945-1.3641Z" style="fill: none; stroke-width: 0px;"/>
        <path d="m391.58852,139.99317c-.36578.02227-.72963.04655-1.09115.07295.36165-.02621.72511-.05087,1.09115-.07295Z" style="fill: none; stroke-width: 0px;"/>
        <path d="m356.09225,152.8964c-.09245.08089-.18554.1612-.27734.24274.0918-.0816.18489-.16185.27734-.24274Z" style="fill: none; stroke-width: 0px;"/>
        <path d="m363.74257,147.48067c-1.69709.96049-3.30328,2.01322-4.83058,3.14711,1.5273-1.13389,3.13349-2.18663,4.83058-3.14711Z" style="fill: none; stroke-width: 0px;"/>
        <path d="m369.76681,144.58701c2.11852-.85384,4.34885-1.59638,6.69461-2.22568l1.68366-.44028-1.68366.44028c-2.34576.62924-4.57609,1.37185-6.69461,2.22568Z" style="fill: none; stroke-width: 0px;"/>
        <path d="m394.15882,139.87374c-.48095.01607-.96062.03338-1.43434.05642.47398-.02279.95313-.04054,1.43434-.05642Z" style="fill: none; stroke-width: 0px;"/>
        <path d="m422.44015,142.53189c-.14422-.03628-.29064-.07082-.43654-.10575.1459.03493.29232.06946.43654.10575.36397.09154.72266.1876,1.08121.28379.14603.03925.29335.07747.43938.11678-.14603-.03932-.29335-.07753-.43938-.11678-.35855-.09619-.71723-.19225-1.08121-.28379Z" style="fill: none; stroke-width: 0px;"/>
        <path d="m418.82919,141.71569c-.27501-.05533-.55352-.10775-.83176-.16055.37133.0705.73931.14383,1.10548.21872.09851.02014.19522.04177.29335.06236-.098-.02059-.19483-.04222-.29335-.06236-.09193-.01879-.18141-.03964-.27372-.05817Z" style="fill: none; stroke-width: 0px;"/>
        <path d="m420.66392,142.10981c.04209.00936.08496.01827.12692.02782.1122.0255.22234.05287.33376.07908-.11143-.02621-.22156-.05358-.33376-.07908-.04196-.00955-.08483-.01846-.12692-.02782Z" style="fill: none; stroke-width: 0px;"/>
        <path d="m414.85775,141.02034c.33247.05061.66404.102.99251.15571.0501.00826.10006.0164.15016.02453-.0501-.00813-.10006-.01633-.15016-.02453-.32847-.05378-.66004-.1051-.99251-.15571Z" style="fill: none; stroke-width: 0px;"/>
        <path d="m412.67764,140.71189l.00271.00039c.05629.00723.11104.01569.1672.02298-.05616-.00729-.11091-.01575-.1672-.02298l-.00271-.00039Z" style="fill: none; stroke-width: 0px;"/>
        <path d="m426.1247,143.59515c-.03551-.0111-.06766-.02505-.10161-.03764-.13092-.04842-.25552-.10278-.39393-.14467-.5193-.15733-1.04506-.30884-1.57624-.45584-.03047-.00846-.06159-.01627-.09219-.02453-.14603-.03932-.29335-.07753-.43938-.11678-.35855-.09619-.71723-.19225-1.08121-.28379-.14422-.03628-.29064-.07082-.43654-.10575-.07075-.01691-.14099-.03409-.21149-.05119-.22143-.05358-.44467-.10575-.66752-.15823-.11143-.02621-.22156-.05358-.33376-.07908-.04196-.00955-.08483-.01846-.12692-.02782-.19199-.04287-.38476-.08489-.57779-.12692-.22892-.04984-.45952-.09819-.68986-.14667-.09813-.02059-.19483-.04222-.29335-.06236-.36617-.07489-.73415-.14822-1.10548-.21872-.00077-.00013-.00168-.00039-.00258-.00052-.09103-.0173-.18089-.03551-.2723-.05255-.48999-.09141-.98502-.1787-1.48418-.26262-.07889-.0133-.15855-.02608-.23796-.03886-.0501-.00813-.10006-.01627-.15016-.02453-.32847-.05371-.66004-.1051-.99251-.15571-.06185-.00936-.12266-.01963-.18463-.02892-.14732-.02208-.29438-.04442-.44248-.06585-.45733-.06637-.91865-.12963-1.38308-.19032-.05616-.00729-.11091-.01575-.1672-.02298l-.00271-.00039c-.0009-.00013-.00181-.00026-.00271-.00032-.26146-.03351-.52782-.06294-.79186-.09419-.26417-.03131-.52601-.06449-.79199-.09425-.15313-.01711-.30716-.03344-.46094-.04997-.41394-.04435-.83073-.08644-1.25009-.12634-.13893-.01323-.27721-.02705-.41678-.03983-.54164-.04932-1.08728-.09542-1.63821-.13738-.03447-.00258-.06921-.00491-.10394-.00736-.06933-.00491-.13867-.00975-.20775-.01478-.05449-.004-.11001-.00717-.16462-.01104-.40542-.02918-.81239-.0572-1.22285-.08238-.16682-.0102-.33402-.02014-.50161-.0297-.46907-.02686-.94138-.05113-1.41704-.07282-.05552-.00245-.11078-.00516-.16604-.00788-.05035-.00252-.10058-.00504-.15145-.00723-.28664-.01233-.57818-.02085-.86727-.03125-.28922-.01033-.57598-.0226-.86739-.03125-.15042-.00439-.30239-.00775-.45345-.01168-.2275-.006-.45784-.00968-.68663-.01453-.22905-.00491-.45642-.01085-.68676-.01459-.17185-.00278-.34345-.00575-.5162-.00788-.59909-.00749-1.20141-.01252-1.81045-.01252-.00529,0-.01033.00013-.01549.00013-.81717.00013-1.62181.0122-2.41923.03112-.30536.00736-.60555.01963-.90807.02976-.48121.01588-.96036.03363-1.43434.05642-.38128.01853-.75932.04009-1.13595.06301-.36604.02208-.7295.04674-1.09115.07295-.43822.03209-.8754.06501-1.30729.1031-.24287.02117-.48212.04584-.72291.06895-2.53207.24506-4.95969.59025-7.28273,1.03718-.00116.00026-.00232.00045-.00349.00065l2.33117,5.09255c.24906.54474.00955,1.18863-.53505,1.43821-.54525.24945-1.18902.00994-1.4386-.53518l-2.53633-5.54058c-.28483.06417-.57547.12272-.85706.19006l-1.68366.44028c-2.34576.62931-4.57609,1.37185-6.69461,2.22568-1.05926.42692-2.09063.88173-3.0945,1.3641-1.00387.48231-1.98024.99225-2.92975,1.52956-1.69709.96049-3.30328,2.01322-4.83058,3.14711-.97275.72227-1.91413,1.47695-2.81974,2.26861-.09245.08089-.18554.16114-.27734.24274-.75584.67159-1.48973,1.36597-2.19896,2.08605v9.48607h0c.02556.00052.04777.00219.07334.00271,4.15711.08664,7.67808.40077,10.70053.89218,6.28919,1.02227,10.33255,2.84117,12.95978,5.1442,1.59522,1.39857,2.68766,2.96861,3.43433,4.6504h.00026v-.00013c1.39044.15952,2.80644.21078,4.236.20626.80284-.00245,1.60438.00045,2.42103-.05965.98411-.07263,1.95222-.18747,2.90547-.34022,2.62194-.42001,5.13361-1.12556,7.57117-2.02349.22156-.08167.44248-.16488.66301-.24964.8816-.33899,1.75377-.70232,2.61832-1.0854.36656-.16249.73169-.32911,1.09554-.49864.09529-.04435.19019-.09025.28534-.13505.27553-.12989.55093-.26055.82517-.39387.08896-.04319.17753-.08728.26636-.13086.29038-.14248.58037-.28612.86946-.43202.0603-.03047.12046-.06107.18076-.09167.33983-.1725.67914-.34648,1.01743-.52292.18954-.0989.37973-.19613.56888-.29606,3.36267-1.77856,6.65794-3.73091,9.99517-5.57112,1.66881-.91988,3.34821-1.81181,5.05175-2.63969,2.55531-1.2417,5.16537-2.33969,7.87666-3.17281.61833-.18993,1.24144-.3674,1.86997-.53034.05165-.01343.10394-.02518.15571-.03835.26301-.06714.5264-.13312.79147-.19496.06546-.0153.13183-.02847.19755-.04345.25165-.05726.50368-.11407.75726-.1663.09697-.01995.19522-.03693.29245-.0561.2235-.04416.44687-.08883.67204-.12886.11156-.01975.2244-.03609.33647-.05487.21252-.03551.42466-.07205.6386-.10374.11711-.0173.23576-.03086.35326-.04693.21046-.02886.4204-.05888.63228-.08373.12537-.01472.25255-.02531.37844-.03854.20116-.02124.40155-.04416.604-.06159.00826-.00077.01678-.00142.02505-.00213.20168-.01724.40219-.03699.60516-.05029.6989-.04584,1.39547-.06843,2.08947-.0694.41175-.00058.82246.00794,1.2324.02227,2.58449.08973,5.13374.46533,7.64296,1.03912-5.73348-6.32599-13.11859-10.87006-22.38156-13.76042Z" style="fill: #f9b860; stroke-width: 0px;"/>
        <path d="m353.61595,156.16281v-.93763c.70923-.72007,1.44312-1.41445,2.19896-2.08605.0918-.08154.18489-.16185.27734-.24274.90574-.79167,1.84699-1.54634,2.81974-2.26861,1.5273-1.13389,3.13349-2.18663,4.83058-3.14711.94951-.53731,1.92588-1.04725,2.92975-1.52956,1.00387-.48237,2.03524-.93718,3.0945-1.3641,2.11852-.85384,4.34885-1.59644,6.69461-2.22568l1.68366-.44028c.28173-.06733.57224-.12589.85706-.19012l-.93131-2.03472-8.15684-17.81986-20.76723,7.97653c.51543-7.69015,6.48209-15.37617,15.55564-19.36182l-.50716-1.10787c-.24958-.54474-.00994-1.18889.53505-1.43808.54487-.24958,1.18889-.00994,1.43821.53479l.5437,1.18837c9.64114-3.45595,19.57537-1.76765,25.2501,3.73917l-20.0185,7.68918,8.25884,18.04207.9783,2.1373c.00116-.00026.00232-.00039.00349-.00065,2.32291-.44693,4.74898-.7938,7.28273-1.03718.24067-.02324.48018-.04758.72291-.06895.43215-.03783.86881-.07134,1.30729-.1031.36152-.0264.72537-.05068,1.09115-.07295.37689-.02272.75455-.04474,1.13595-.06301.47372-.02305.95338-.04035,1.43434-.05642.30265-.01001.60258-.02253.90807-.02976.79716-.01917,1.60206-.03099,2.41923-.03112.00529,0,.0102-.00013.01549-.00013.60904,0,1.21136.00504,1.81045.01252.17276.00213.34435.0051.5162.00788.23034.00374.45784.00968.68676.01459.22879.00478.45913.00852.68663.01453.15106.00394.30303.00729.45345.01168.29141.00865.57818.02092.86739.03125.28909.01039.58063.01885.86727.03125.05074.00219.1011.00471.15145.00723.05526.00271.11052.00542.16604.00788.47566.02169.94796.04596,1.41704.07282.16759.00955.3348.0195.50161.0297.41046.02518.81756.0532,1.22285.08238.05462.00387.11014.00704.16462.01104.06908.0051.13841.00988.20775.01478.03473.00245.06946.00478.10394.00736.55093.04196,1.09657.08806,1.63821.13738.13957.01278.27786.0266.41678.03983.41937.0399.83615.08199,1.25009.12634.15378.01653.30781.03286.46094.04997.26598.02976.52782.06294.79199.09425.26404.03125.53053.06068.79186.09419.0009.00006.00181.00026.00271.00032l.00271.00039c.05629.00723.11104.01569.1672.02298.46456.06068.92575.12395,1.38308.19032.14809.02143.29516.04377.44248.06585.06198.0093.12279.0195.18463.02892.33247.05061.66404.10194.99251.15571.0501.0082.10006.0164.15016.02453.07953.01278.15907.02556.23796.03886.49916.08392.99418.17121,1.48418.26262.09141.01704.18128.03525.2723.05255.0009.00013.00181.00039.00258.00052.27824.05281.55674.10523.83176.16055.09232.01853.18179.03938.27372.05817.09851.02014.19535.04177.29335.06236.23047.04848.46107.09684.68986.14667.1929.04196.3858.08405.57779.12692.04209.00936.08496.01827.12692.02782.1122.0255.22234.05287.33376.07908.22285.05249.44609.10458.66752.15823.0705.01711.14074.03428.21149.05119.1459.03493.29232.06946.43654.10575.36397.09154.72266.1876,1.08121.28379.14603.03925.29335.07747.43938.11678.0306.00826.06172.01607.09219.02453.53118.147,1.05693.29851,1.57624.45584.13841.0419.26288.09619.39393.14467.03396.01252.06611.02653.10161.03764l-20.26136-73.2746c-1.41497-5.30227-6.18564-9.01406-11.84229-9.01406h-48.42378c-5.47654,0-10.25005,3.7118-11.66192,9.01406l-24.68084,94.81523h2.34369c4.8227,0,8.74625,4.0023,8.74625,8.92326v18.20185c0,3.13272-1.64802,5.87912-4.12329,7.42385h22.83901c5.83122,0,10.77916-3.88733,12.01673-9.54424l2.53905-24.86179c.01278-.05126.04532-.08877.06055-.1388-.02014-.01033-.04041-.02072-.06055-.03112h.00039c-.00013,0-.00026-.00013-.00039-.00013v-.39742h0v-8.54844Z" style="fill: #f29100; stroke-width: 0px;"/>
        <path d="m358.91199,150.62779c-.97275.72227-1.914,1.47695-2.81974,2.26861.90561-.79167,1.84699-1.54634,2.81974-2.26861Z" style="fill: #f29100; stroke-width: 0px;"/>
        <path d="m353.61595,156.16281v-.93763c.70923-.72007,1.44312-1.41445,2.19896-2.08605-.75584.67159-1.48973,1.36597-2.19896,2.08605v9.48607h0v-8.54844Z" style="fill: #f29100; stroke-width: 0px;"/>
        <path d="m424.05293,142.957c-.03047-.00846-.06159-.01627-.09219-.02453.0306.00826.06172.01607.09219.02453.53118.147,1.05693.29851,1.57624.45584.13841.0419.26301.09626.39393.14467-.13105-.04848-.25552-.10278-.39393-.14467-.5193-.15733-1.04506-.30884-1.57624-.45584Z" style="fill: #f29100; stroke-width: 0px;"/>
        <path d="m392.72448,139.93016c-.38141.01827-.75907.04028-1.13595.06301.37663-.02292.75468-.04448,1.13595-.06301Z" style="fill: #f29100; stroke-width: 0px;"/>
        <path d="m414.23064,140.92557c-.45733-.06637-.91852-.12963-1.38308-.19032.46443.06068.92575.12395,1.38308.19032.14809.02143.29516.04377.44248.06585.06198.0093.12279.01956.18463.02892-.06185-.00943-.12266-.01963-.18463-.02892-.14732-.02208-.29438-.04442-.44248-.06585Z" style="fill: #f29100; stroke-width: 0px;"/>
        <path d="m388.46717,140.23816c-2.53375.24338-4.95982.59025-7.28273,1.03718,2.32304-.44693,4.75065-.79212,7.28273-1.03718Z" style="fill: #f29100; stroke-width: 0px;"/>
        <path d="m390.49737,140.06612c-.43847.03176-.87514.06527-1.30729.1031.43189-.03809.86907-.07101,1.30729-.1031Z" style="fill: #f29100; stroke-width: 0px;"/>
        <path d="m399.31205,139.82526c-.59909-.00749-1.20141-.01252-1.81045-.01252-.00529,0-.0102.00013-.01549.00013.00516,0,.0102-.00013.01549-.00013.60904,0,1.21136.00504,1.81045.01252.17276.00213.34435.0051.5162.00788.23034.00374.45771.00968.68676.01459-.22892-.00491-.45642-.01085-.68676-.01459-.17185-.00278-.34345-.00575-.5162-.00788Z" style="fill: #f29100; stroke-width: 0px;"/>
        <path d="m411.88307,140.61738c.26404.03125.5304.06068.79186.09419.0009.00006.00181.00019.00271.00032-.0009-.00006-.00181-.00026-.00271-.00032-.26133-.03351-.52782-.06294-.79186-.09419Z" style="fill: #f29100; stroke-width: 0px;"/>
        <path d="m421.1246,142.21672c.22285.05249.44609.10465.66752.15823.0705.01711.14074.03428.21149.05119-.07075-.01691-.14099-.03409-.21149-.05119-.22143-.05365-.44467-.10575-.66752-.15823Z" style="fill: #f29100; stroke-width: 0px;"/>
        <path d="m417.72255,141.50207c-.48999-.09141-.98502-.1787-1.48418-.26262-.07889-.0133-.15842-.02608-.23796-.03886.07941.01278.15907.02556.23796.03886.49916.08392.99418.17121,1.48418.26262.09141.01704.18128.03525.2723.05255.0009.00013.00181.00039.00258.00052-.00077-.00013-.00168-.00039-.00258-.00052-.09103-.0173-.18089-.03551-.2723-.05255Z" style="fill: #f29100; stroke-width: 0px;"/>
        <path d="m402.52249,139.90518c.28909.01039.58063.01892.86727.03125.05087.00219.1011.00471.15145.00723-.05035-.00252-.10071-.00504-.15145-.00723-.28664-.0124-.57818-.02085-.86727-.03125Z" style="fill: #f29100; stroke-width: 0px;"/>
        <path d="m395.06688,139.84398c-.30549.00723-.60542.01975-.90807.02976.30252-.01014.60271-.0224.90807-.02976Z" style="fill: #f29100; stroke-width: 0px;"/>
        <path d="m406.84875,140.13642c.05462.00387.11014.00704.16462.01104.06908.00504.13841.00988.20775.01478-.06933-.00491-.13867-.00968-.20775-.01478-.05449-.004-.11001-.00717-.16462-.01104Z" style="fill: #f29100; stroke-width: 0px;"/>
        <path d="m419.39627,141.83622c.23034.04848.46094.09684.68986.14667.19303.04203.3858.08405.57779.12692-.19199-.04287-.38489-.08496-.57779-.12692-.22879-.04984-.45939-.09819-.68986-.14667Z" style="fill: #f29100; stroke-width: 0px;"/>
        <polygon points="381.17941 141.27631 381.18096 141.27599 381.18096 141.27599 381.17941 141.27631" style="fill: #fff; stroke-width: 0px;"/>
        <polygon points="379.00214 141.73093 379.00214 141.73099 379.0046 141.73041 379.00214 141.73093" style="fill: #fff; stroke-width: 0px;"/>
        <path d="m381.17941,141.27631c-.73505.14151-1.4599.2929-2.17481.4541.71491-.16107,1.43976-.31259,2.17481-.4541Z" style="fill: #fff; stroke-width: 0px;"/>
      </g>
      <g>
        <path d="m69.67133,38.48284V.64951h11.34517c6.74673,0,8.54609,3.29878,8.54609,12.99439,0,9.89569-1.79936,13.44383-8.54609,13.44383h-3.49853v11.3951h-7.84664Zm9.94563-19.19148c1.44948,0,1.99911-1.29934,1.99911-5.84753,0-3.99823-.64951-4.89775-2.19886-4.89775h-1.89924v10.74527h2.09899Z" style="fill: #20529f; stroke-width: 0px;"/>
        <path d="m121.54775,38.48284c-.39982-1.24941-.54964-1.99911-1.54935-10.74527-.34988-3.49853-.79965-3.99823-1.79904-3.99823h-1.19947v14.7435h-7.84664V.64951h11.44504c6.79698,0,8.54609,2.89895,8.54609,10.19564,0,7.79638-1.09927,8.34634-3.24852,9.59574v.29995c.39982.34988.84958.64951,1.19947,1.54903.54964,1.19979,1.09959,3.44859,1.64923,7.84664.74971,6.14747.79965,6.99706,1.14953,8.09633v.25001h-8.34634Zm-2.349-21.79049c1.44948,0,1.99911-.9994,1.99911-4.49792,0-2.99851-.64951-3.74822-2.19886-3.74822h-1.99911v8.24614h2.19886Z" style="fill: #20529f; stroke-width: 0px;"/>
        <path d="m158.4313,39.13268c-4.84781,0-7.09661-.74971-8.39627-3.09871-1.29934-2.29906-1.84898-4.59812-1.84898-16.4926s.54964-14.09399,1.84898-16.44298c1.29966-2.29874,3.54847-3.09838,8.39627-3.09838,4.79787,0,7.04699.79965,8.34634,3.09838,1.29966,2.349,1.8493,4.54818,1.8493,16.44298s-.54964,14.19354-1.8493,16.4926c-1.29934,2.349-3.54847,3.09871-8.34634,3.09871Zm2.39894-19.79138c0-8.34634-.14981-9.69562-.44976-10.6454-.24969-.64951-.69977-.94946-1.94918-.94946s-1.7491.29995-1.94918.94946c-.34956.94978-.4997,2.29906-.4997,10.6454,0,8.09633.15013,9.44593.4997,10.44533.20007.64983.69977.89984,1.94918.89984s1.69949-.25001,1.94918-.89984c.29995-.9994.44976-2.349.44976-10.44533Z" style="fill: #20529f; stroke-width: 0px;"/>
        <path d="m201.01161,23.83922h-3.64834v-7.59663h10.69501c.04994,1.29966.1002,3.94829.1002,7.44682,0,8.2964-.59989,10.34545-1.74942,12.34456-1.29934,2.349-3.54847,3.09871-8.34634,3.09871-4.84781,0-7.09661-.74971-8.39627-3.09871-1.29934-2.29906-1.84898-4.59812-1.84898-16.79255,0-11.69473.54964-13.94385,1.84898-16.24291,1.29966-2.2488,3.64866-2.99851,8.39627-2.99851,5.49764,0,8.09665,1.29934,9.19592,4.69768.45008,1.44948.64983,3.29878.64983,5.54758,0,.94978,0,1.29966-.04994,1.94918h-7.29668c.04994-.19975.04994-.44976.04994-.64951,0-1.64923-.15013-2.349-.29995-2.84902-.14981-.64951-.84958-.94946-2.29906-.94946-1.34928,0-1.89924.29995-2.14893.94946-.29995.99972-.44976,2.24912-.44976,10.44565,0,8.64596.09988,9.64568.39982,10.5452.29963.79965,1.09927,1.09959,2.39894,1.09959,1.29934,0,1.84898-.29995,2.2488-.94978.44976-.69945.54996-1.19947.54996-4.19798v-1.79936Z" style="fill: #20529f; stroke-width: 0px;"/>
        <path d="m240.2432,38.48284c-.3995-1.24941-.54996-1.99911-1.54935-10.74527-.34956-3.49853-.79965-3.99823-1.79904-3.99823h-1.19947v14.7435h-7.84664V.64951h11.44504c6.79666,0,8.54641,2.89895,8.54641,10.19564,0,7.79638-1.09991,8.34634-3.24852,9.59574v.29995c.3995.34988.84958.64951,1.19915,1.54903.54996,1.19979,1.09927,3.44859,1.64923,7.84664.74971,6.14747.79965,6.99706,1.14985,8.09633v.25001h-8.34666Zm-2.349-21.79049c1.44948,0,1.99943-.9994,1.99943-4.49792,0-2.99851-.64983-3.74822-2.19918-3.74822h-1.99911v8.24614h2.19886Z" style="fill: #20529f; stroke-width: 0px;"/>
        <path d="m279.77474,38.48284l-.64983-8.74616h-3.79847l-.59925,8.74616h-7.89658l4.04816-37.83333h13.19383l3.79847,37.83333h-8.09633Zm-2.29906-29.93676h-.54996l-1.24909,13.54403h3.09871l-1.29966-13.54403Z" style="fill: #20529f; stroke-width: 0px;"/>
        <path d="m329.80154,38.48284V15.79283h-.29963l-5.74733,22.69001h-3.44827l-5.79791-22.69001h-.29963v22.69001h-7.14687V.64951h11.09516l3.49821,16.44298h.3502l3.89835-16.44298h11.04458l.04994,37.83333h-7.19681Z" style="fill: #20529f; stroke-width: 0px;"/>
        <path d="m369.13397,38.48284l-.64983-8.74616h-3.79847l-.59925,8.74616h-7.89658l4.04816-37.83333h13.19383l3.79847,37.83333h-8.09633Zm-2.29906-29.93676h-.54996l-1.24909,13.54403h3.09871l-1.29966-13.54403Z" style="fill: #20529f; stroke-width: 0px;"/>
      </g>
    </g>
  </g>
</svg>