<?xml version="1.0" encoding="UTF-8"?>
<svg id="Camada_2" data-name="Camada 2" xmlns="http://www.w3.org/2000/svg" width="1062.18732" height="1062.11829" viewBox="0 0 1062.18732 1062.11829">
  <g id="Camada_1-2" data-name="Camada 1">
    <g>
      <polygon points=".03345 455.84485 .03345 .10022 212.46436 .10022 424.89508 .10022 424.89508 .11523 637.32568 .11523 637.32568 .10022 849.75671 .10022 1062 .10022 1062 0 0 0 0 1062 .03345 1062 .03345 540.33527 .03345 455.84485" style="fill: #fff; stroke-width: 0px;"/>
      <polygon points="424.92749 1062 579.13629 1062 424.92749 1061.72632 424.92749 1062" style="fill: #fff; stroke-width: 0px;"/>
      <polygon points="849.75671 1061.72632 695.52411 1062 989.44238 1062 849.75671 1061.8017 849.75671 1061.72632" style="fill: #fff; stroke-width: 0px;"/>
      <path d="m637.32568,53.52667c0,18.02838-1.10797,35.68744-3.22803,52.84943h3.22803v-52.84943Z" style="fill: #fff; stroke-width: 0px;"/>
      <polygon points="212.67529 1062.02795 212.52686 1062.02795 212.52686 1062.11829 424.92749 1062.11829 424.92749 1062 212.67529 1062 212.67529 1062.02795" style="fill: #fff; stroke-width: 0px;"/>
      <path d="m424.89508,1061.72632v-139.3877c0,54.98682-44.57574,99.56256-99.56281,99.56256h-13.30542c-52.83228,0-96.04541-41.15308-99.35156-93.15112v133.24994h212.2522v-.27368h-.03241Z" style="fill: #fff; stroke-width: 0px;"/>
      <path d="m849.75671,205.93866v249.90619c0-54.987,44.57556-99.56274,99.56256-99.56274h13.30542c52.96008,0,96.25488,41.35199,99.37531,93.52814V.10022h-212.24329v205.83844Z" style="fill: #93c01f; stroke-width: 0px;"/>
      <path d="m99.59607,356.2821h13.30542c54.98706,0,99.56287,44.57574,99.56287,99.56274V.10022H.03345v455.74463c0-54.987,44.57568-99.56274,99.56262-99.56274Z" style="fill: #1d70b7; stroke-width: 0px;"/>
      <rect x=".03345" y="1062" width=".21118" height=".02795" style="fill: #fff; stroke-width: 0px;"/>
      <path d="m.24463,839.75775c0-54.987,44.57568-99.56281,99.56274-99.56281h13.30542c52.83228,0,96.04553,41.15308,99.35156,93.15131v-293.01099H.03345v521.66473h.21118v-222.24225Z" style="fill: #fff; stroke-width: 0px;"/>
      <path d="m212.46436,455.84485c0-54.987-44.57581-99.56274-99.56287-99.56274h-13.30542C44.60913,356.2821.03345,400.85785.03345,455.84485v84.49042h212.43091v-84.49042Z" style="fill: #fff; stroke-width: 0px;"/>
      <path d="m212.52686,828.14575h212.36823v-363.1358c0,54.987-44.57574,99.56256-99.56281,99.56256h-13.30542c-54.98682,0-99.5625-44.57556-99.5625-99.56256v368.3363c.02075.32941.04468.65796.0625.98834v-6.18884Z" style="fill: #93c01f; stroke-width: 0px;"/>
      <path d="m212.52686,828.14575v6.18884c.09644,1.79565.14844,3.60333.14844,5.42316v88.99231c3.30615,51.99805,46.51929,93.15112,99.35156,93.15112h13.30542c54.98706,0,99.56281-44.57574,99.56281-99.56256v-94.19287h-212.36823Z" style="fill: #93c01f; stroke-width: 0px;"/>
      <path d="m424.89508,356.28333c-117.32379,0-212.43073-95.10706-212.43073-212.43085v236.66705h212.43073v-24.23621Z" style="fill: #fff; stroke-width: 0px;"/>
      <path d="m424.89508,380.51953h-212.43073v84.49042c0,54.987,44.57568,99.56256,99.5625,99.56256h13.30542c54.98706,0,99.56281-44.57556,99.56281-99.56256v-84.49042Z" style="fill: #fff; stroke-width: 0px;"/>
      <path d="m424.89508,356.28333v99.56152c0-54.987,44.57562-99.56274,99.56262-99.56274h13.30542c54.987,0,99.56256,44.57574,99.56256,99.56274V106.3761h-3.22803c-17.54138,142.01245-104.52856,249.90723-209.20258,249.90723Z" style="fill: #f29100; stroke-width: 0px;"/>
      <path d="m424.89508,828.14575h.03241v103.10254c1.37665-116.13983,95.93231-209.86542,212.39819-209.86542v-181.04761h-212.4306v287.81049Z" style="fill: #00a099; stroke-width: 0px;"/>
      <path d="m424.92749,828.14575h-.03241v105.66797c0-.85767.02228-1.71027.03241-2.56543v-103.10254Z" style="fill: #00a099; stroke-width: 0px;"/>
      <path d="m637.32568,455.84485c0-54.987-44.57556-99.56274-99.56256-99.56274h-13.30542c-54.987,0-99.56262,44.57574-99.56262,99.56274v84.49042h212.4306v-84.49042Z" style="fill: #00a099; stroke-width: 0px;"/>
      <rect x="212.46436" y="1062" width=".0625" height=".02795" style="fill: #1d70b7; stroke-width: 0px;"/>
      <path d="m212.46436,922.33844v139.66156h.0625v-136.29889c-.03711-1.11688-.0625-2.23663-.0625-3.36267Z" style="fill: #1d70b7; stroke-width: 0px;"/>
      <rect x="212.52686" y="1062" width=".14844" height=".02795" style="fill: #1d70b7; stroke-width: 0px;"/>
      <path d="m212.52686,1062h.14844v-133.24994c-.06421-1.01239-.1145-2.02844-.14844-3.04895v136.29889Z" style="fill: #1d70b7; stroke-width: 0px;"/>
      <rect x=".24463" y="1062" width="212.21973" height=".02795" style="fill: #1d70b7; stroke-width: 0px;"/>
      <path d="m212.46436,833.34625c-3.30603-51.99823-46.51929-93.15131-99.35156-93.15131h-13.30542C44.82031,740.19495.24463,784.77075.24463,839.75775v222.24225h212.21973v-228.65375Z" style="fill: #1d70b7; stroke-width: 0px;"/>
      <path d="m212.52686,925.70111v-91.36652c-.01782-.33038-.04175-.65894-.0625-.98834v88.99219c0,1.12604.02539,2.24579.0625,3.36267Z" style="fill: #1d70b7; stroke-width: 0px;"/>
      <path d="m212.52686,834.33459v91.36652c.03394,1.02051.08423,2.03656.14844,3.04895v-88.99231c0-1.81982-.052-3.6275-.14844-5.42316Z" style="fill: #1d70b7; stroke-width: 0px;"/>
      <path d="m637.32568,106.3761v99.56256c0-54.98682,44.57581-99.56256,99.56281-99.56256h13.30542c54.987,0,99.56281,44.57574,99.56281,99.56256V.10022h-212.43103v106.27588Z" style="fill: #1d70b7; stroke-width: 0px;"/>
      <path d="m750.19391,564.57251h-13.30542c-54.987,0-99.56281-44.57556-99.56281-99.56256v256.37292c117.32397,0,212.43103,95.10706,212.43103,212.43085v-468.80377c0,54.987-44.57581,99.56256-99.56281,99.56256Z" style="fill: #93c01f; stroke-width: 0px;"/>
      <path d="m750.19391,106.3761h-13.30542c-54.987,0-99.56281,44.57574-99.56281,99.56256v254.48877h212.43103v-254.48877c0-54.98682-44.57581-99.56256-99.56281-99.56256Z" style="fill: #fff; stroke-width: 0px;"/>
      <path d="m637.32568,465.00995c0,54.987,44.57581,99.56256,99.56281,99.56256h13.30542c54.987,0,99.56281-44.57556,99.56281-99.56256v-4.58252h-212.43103v4.58252Z" style="fill: #fff; stroke-width: 0px;"/>
      <polygon points="1062 1062 989.44238 1062 1062.18732 1062.10327 1062.18732 540.33527 1062 540.33527 1062 1062" style="fill: #f29100; stroke-width: 0px;"/>
      <path d="m962.62469,356.2821h-13.30542c-54.987,0-99.56256,44.57574-99.56256,99.56274v605.95685l139.68567.1983h72.55762V449.81024c-3.12042-52.17615-46.41522-93.52814-99.37531-93.52814Z" style="fill: #f29100; stroke-width: 0px;"/>
      <path d="m634.09766,106.3761c2.12006-17.16199,3.22803-34.82104,3.22803-52.84943V.11523h-212.4306v106.26086h209.20258Z" style="fill: #fff; stroke-width: 0px;"/>
      <path d="m634.09766,106.3761h-209.20258v249.90723c104.67401,0,191.66119-107.89478,209.20258-249.90723Z" style="fill: #fff; stroke-width: 0px;"/>
      <polygon points="424.89508 106.3761 424.89508 .11523 424.89508 .10022 212.46436 .10022 212.46436 106.3761 424.89508 106.3761" style="fill: #f29100; stroke-width: 0px;"/>
      <path d="m424.89508,356.28333V106.3761h-212.43073v37.47638c0,117.32379,95.10693,212.43085,212.43073,212.43085Z" style="fill: #f29100; stroke-width: 0px;"/>
      <polygon points="637.32568 1062.10327 695.52411 1062 579.13629 1062 637.32568 1062.10327" style="fill: #1d70b7; stroke-width: 0px;"/>
      <rect x="424.89508" y="955.526" width=".03241" height="106.20032" style="fill: #1d70b7; stroke-width: 0px;"/>
      <path d="m424.89508,933.81372v21.71228h.03241v-24.27771c-.01013.85516-.03241,1.70776-.03241,2.56543Z" style="fill: #1d70b7; stroke-width: 0px;"/>
      <path d="m637.32568,721.38287c-116.46588,0-211.02155,93.72559-212.39819,209.86542v130.47803l154.2088.27368h116.38782l154.2326-.27368v-127.9126c0-117.32379-95.10706-212.43085-212.43103-212.43085Z" style="fill: #1d70b7; stroke-width: 0px;"/>
    </g>
  </g>
</svg>